0
SECTION
2
HEADER
9
$INSUNITS
70
4
0
ENDSEC
0
SECTION
2
TABLES
0
TABLE
2
LTYPE
0
LTYPE
72
65
70
64
2
CONTINUOUS
3
______
73
0
40
0
0
ENDTAB
0
TABLE
2
LAYER
0
ENDTAB
0
ENDSEC
0
SECTION
2
ENTITIES
0
LINE
8
0
10
-7
20
-8.5
11
7
21
-8.5
0
LINE
8
0
10
9
20
-6.5
11
9
21
6.5
0
LINE
8
0
10
7
20
8.5
11
-7
21
8.5
0
LINE
8
0
10
-9
20
6.5
11
-9
21
-6.5
0
LINE
8
0
10
-7
20
10.5
11
7
21
10.5
0
LINE
8
0
10
9
20
12.5
11
9
21
25.5
0
LINE
8
0
10
7
20
27.5
11
-7
21
27.5
0
LINE
8
0
10
-9
20
25.5
11
-9
21
12.5
0
LINE
8
0
10
-7
20
29.5
11
7
21
29.5
0
LINE
8
0
10
9
20
31.5
11
9
21
44.5
0
LINE
8
0
10
7
20
46.5
11
-7
21
46.5
0
LINE
8
0
10
-9
20
44.5
11
-9
21
31.5
0
LINE
8
0
10
13
20
-8.5
11
27
21
-8.5
0
LINE
8
0
10
29
20
-6.5
11
29
21
6.5
0
LINE
8
0
10
27
20
8.5
11
13
21
8.5
0
LINE
8
0
10
11
20
6.5
11
11
21
-6.5
0
LINE
8
0
10
13
20
10.5
11
27
21
10.5
0
LINE
8
0
10
29
20
12.5
11
29
21
25.5
0
LINE
8
0
10
27
20
27.5
11
13
21
27.5
0
LINE
8
0
10
11
20
25.5
11
11
21
12.5
0
LINE
8
0
10
13
20
29.5
11
27
21
29.5
0
LINE
8
0
10
29
20
31.5
11
29
21
44.5
0
LINE
8
0
10
27
20
46.5
11
13
21
46.5
0
LINE
8
0
10
11
20
44.5
11
11
21
31.5
0
LINE
8
0
10
33
20
1.5
11
47
21
1.5
0
LINE
8
0
10
49
20
3.5
11
49
21
16.5
0
LINE
8
0
10
47
20
18.5
11
33
21
18.5
0
LINE
8
0
10
31
20
16.5
11
31
21
3.5
0
LINE
8
0
10
33
20
20.5
11
47
21
20.5
0
LINE
8
0
10
49
20
22.5
11
49
21
35.5
0
LINE
8
0
10
47
20
37.5
11
33
21
37.5
0
LINE
8
0
10
31
20
35.5
11
31
21
22.5
0
LINE
8
0
10
33
20
39.5
11
47
21
39.5
0
LINE
8
0
10
49
20
41.5
11
49
21
54.5
0
LINE
8
0
10
47
20
56.5
11
33
21
56.5
0
LINE
8
0
10
31
20
54.5
11
31
21
41.5
0
LINE
8
0
10
53
20
6.5
11
67
21
6.5
0
LINE
8
0
10
69
20
8.5
11
69
21
21.5
0
LINE
8
0
10
67
20
23.5
11
53
21
23.5
0
LINE
8
0
10
51
20
21.5
11
51
21
8.5
0
LINE
8
0
10
53
20
25.5
11
67
21
25.5
0
LINE
8
0
10
69
20
27.5
11
69
21
40.5
0
LINE
8
0
10
67
20
42.5
11
53
21
42.5
0
LINE
8
0
10
51
20
40.5
11
51
21
27.5
0
LINE
8
0
10
53
20
44.5
11
67
21
44.5
0
LINE
8
0
10
69
20
46.5
11
69
21
59.5
0
LINE
8
0
10
67
20
61.5
11
53
21
61.5
0
LINE
8
0
10
51
20
59.5
11
51
21
46.5
0
LINE
8
0
10
73
20
0.5
11
87
21
0.5
0
LINE
8
0
10
89
20
2.5
11
89
21
15.5
0
LINE
8
0
10
87
20
17.5
11
73
21
17.5
0
LINE
8
0
10
71
20
15.5
11
71
21
2.5
0
LINE
8
0
10
73
20
19.5
11
87
21
19.5
0
LINE
8
0
10
89
20
21.5
11
89
21
34.5
0
LINE
8
0
10
87
20
36.5
11
73
21
36.5
0
LINE
8
0
10
71
20
34.5
11
71
21
21.5
0
LINE
8
0
10
73
20
38.5
11
87
21
38.5
0
LINE
8
0
10
89
20
40.5
11
89
21
53.5
0
LINE
8
0
10
87
20
55.5
11
73
21
55.5
0
LINE
8
0
10
71
20
53.5
11
71
21
40.5
0
LINE
8
0
10
93
20
-1.5
11
107
21
-1.5
0
LINE
8
0
10
109
20
0.5
11
109
21
13.5
0
LINE
8
0
10
107
20
15.5
11
93
21
15.5
0
LINE
8
0
10
91
20
13.5
11
91
21
0.5
0
LINE
8
0
10
93
20
17.5
11
107
21
17.5
0
LINE
8
0
10
109
20
19.5
11
109
21
32.5
0
LINE
8
0
10
107
20
34.5
11
93
21
34.5
0
LINE
8
0
10
91
20
32.5
11
91
21
19.5
0
LINE
8
0
10
93
20
36.5
11
107
21
36.5
0
LINE
8
0
10
109
20
38.5
11
109
21
51.5
0
LINE
8
0
10
107
20
53.5
11
93
21
53.5
0
LINE
8
0
10
91
20
51.5
11
91
21
38.5
0
LINE
8
0
10
73
20
-20.5
11
87
21
-20.5
0
LINE
8
0
10
89
20
-18.5
11
89
21
-5.5
0
LINE
8
0
10
87
20
-3.5
11
73
21
-3.5
0
LINE
8
0
10
71
20
-5.5
11
71
21
-18.5
0
LINE
8
0
10
91.6303362
20
-21.8553286
11
105.4176448
21
-24.2864031
0
LINE
8
0
10
107.7345566
20
-22.664084
11
109.9919829
21
-9.8615832
0
LINE
8
0
10
108.3696638
20
-7.5446714
11
94.5823552
21
-5.1135969
0
LINE
8
0
10
92.2654434
20
-6.735916
11
90.0080171
21
-19.5384168
0
LINE
8
0
10
125.5748186
20
-30.1774566
11
133.4412819
21
-8.5645262
0
LINE
8
0
10
132.2459369
20
-6.0011008
11
120.0299328
21
-1.5548389
0
LINE
8
0
10
117.4665074
20
-2.750184
11
109.6000441
21
-24.3631144
0
LINE
8
0
10
110.7953891
20
-26.9265398
11
123.0113932
21
-31.3728017
0
LINE
8
0
10
128.6
20
17.5
11
128.6
21
53.5
0
LINE
8
0
10
128.6
20
53.5
11
110.6
21
53.5
0
LINE
8
0
10
110.6
20
17.5
11
110.6
21
53.5
0
LINE
8
0
10
112.6
20
15.5
11
126.6
21
15.5
0
LINE
8
0
10
-10
20
-7.5
11
-10
21
45.5
0
LINE
8
0
10
-8
20
47.5
11
28
21
47.5
0
LINE
8
0
10
30
20
49.5
11
30
21
55.5
0
LINE
8
0
10
32
20
57.5
11
48
21
57.5
0
LINE
8
0
10
50
20
59.5
11
50
21
60.5
0
LINE
8
0
10
52
20
62.5
11
68
21
62.5
0
LINE
8
0
10
70
20
60.5
11
70
21
58.5
0
LINE
8
0
10
72
20
56.5
11
90
21
56.5
0
LINE
8
0
10
90
20
56.5
11
90
21
54.5
0
LINE
8
0
10
90
20
54.5
11
127.5
21
54.5
0
LINE
8
0
10
129.5
20
52.5
11
129.5
21
2.9325599
0
LINE
8
0
10
129.9172858
20
1.7098515
11
134.9046393
21
-4.7459437
0
LINE
8
0
10
135.2013103
20
-6.6526923
11
125.9943676
21
-31.9485596
0
LINE
8
0
10
123.450625
20
-33.1509524
11
107.9339399
21
-27.6863407
0
LINE
8
0
10
107.8015972
20
-27.6448316
11
88.7200803
21
-22.3792979
0
LINE
8
0
10
88.2765294
20
-22.3091974
11
71.9115362
21
-21.5846337
0
LINE
8
0
10
70
20
-19.5865911
11
70
21
3.5
0
LINE
8
0
10
68
20
5.5
11
52
21
5.5
0
LINE
8
0
10
50
20
3.5
11
50
21
2.5
0
LINE
8
0
10
48
20
0.5
11
32
21
0.5
0
LINE
8
0
10
30
20
-1.5
11
30
21
-7.5
0
LINE
8
0
10
28
20
-9.5
11
-8
21
-9.5
0
ARC
8
0
10
-8
20
45.5
40
2
50
90
51
180
0
ARC
8
0
10
28
20
49.5
40
2
50
270
51
0
0
ARC
8
0
10
32
20
55.5
40
2
50
90
51
180
0
ARC
8
0
10
48
20
59.5
40
2
50
270
51
0
0
ARC
8
0
10
52
20
60.5
40
2
50
90
51
180
0
ARC
8
0
10
68
20
60.5
40
2
50
0
51
90
0
ARC
8
0
10
72
20
58.5
40
2
50
180
51
270
0
ARC
8
0
10
127.5
20
52.5
40
2
50
0
51
90
0
ARC
8
0
10
131.5
20
2.9325599
40
2
50
180
51
217.6874846
0
ARC
8
0
10
133.3219251
20
-5.9686521
40
2
50
340.0000019
51
37.6874846
0
ARC
8
0
10
124.1149824
20
-31.2645194
40
2
50
250.5989334
51
340.0000019
0
ARC
8
0
10
107.2695826
20
-29.5727737
40
2
50
70.5989334
51
74.5731845
0
ARC
8
0
10
88.1880656
20
-24.30724
40
2
50
74.5731845
51
87.4648717
0
ARC
8
0
10
72
20
-19.5865911
40
2
50
180
51
267.4648717
0
ARC
8
0
10
68
20
3.5
40
2
50
0
51
90
0
ARC
8
0
10
52
20
3.5
40
2
50
90
51
180
0
ARC
8
0
10
48
20
2.5
40
2
50
270
51
0
0
ARC
8
0
10
32
20
-1.5
40
2
50
90
51
180
0
ARC
8
0
10
28
20
-7.5
40
2
50
270
51
0
0
ARC
8
0
10
-8
20
-7.5
40
2
50
180
51
270
0
ARC
8
0
10
112.6
20
17.5
40
2
50
180
51
270
0
ARC
8
0
10
126.6
20
17.5
40
2
50
270
51
0
0
ARC
8
0
10
131.5618967
20
-7.880486
40
2
50
340.0000019
51
70.0000019
0
ARC
8
0
10
119.3458926
20
-3.4342242
40
2
50
70.0000019
51
160.0000019
0
ARC
8
0
10
111.4794293
20
-25.0471546
40
2
50
160.0000019
51
250.0000019
0
ARC
8
0
10
123.6954334
20
-29.4934164
40
2
50
250.0000019
51
340.0000019
0
ARC
8
0
10
105.7649411
20
-22.3167876
40
2
50
259.9999992
51
349.9999992
0
ARC
8
0
10
108.0223674
20
-9.5142869
40
2
50
349.9999992
51
79.9999992
0
ARC
8
0
10
94.2350589
20
-7.0832124
40
2
50
79.9999992
51
169.9999992
0
ARC
8
0
10
91.9776326
20
-19.8857131
40
2
50
169.9999992
51
259.9999992
0
ARC
8
0
10
7
20
-6.5
40
2
50
270
51
0
0
ARC
8
0
10
7
20
6.5
40
2
50
0
51
90
0
ARC
8
0
10
-7
20
6.5
40
2
50
90
51
180
0
ARC
8
0
10
-7
20
-6.5
40
2
50
180
51
270
0
ARC
8
0
10
7
20
12.5
40
2
50
270
51
0
0
ARC
8
0
10
7
20
25.5
40
2
50
0
51
90
0
ARC
8
0
10
-7
20
25.5
40
2
50
90
51
180
0
ARC
8
0
10
-7
20
12.5
40
2
50
180
51
270
0
ARC
8
0
10
7
20
31.5
40
2
50
270
51
0
0
ARC
8
0
10
7
20
44.5
40
2
50
0
51
90
0
ARC
8
0
10
-7
20
44.5
40
2
50
90
51
180
0
ARC
8
0
10
-7
20
31.5
40
2
50
180
51
270
0
ARC
8
0
10
27
20
-6.5
40
2
50
270
51
0
0
ARC
8
0
10
27
20
6.5
40
2
50
0
51
90
0
ARC
8
0
10
13
20
6.5
40
2
50
90
51
180
0
ARC
8
0
10
13
20
-6.5
40
2
50
180
51
270
0
ARC
8
0
10
27
20
12.5
40
2
50
270
51
0
0
ARC
8
0
10
27
20
25.5
40
2
50
0
51
90
0
ARC
8
0
10
13
20
25.5
40
2
50
90
51
180
0
ARC
8
0
10
13
20
12.5
40
2
50
180
51
270
0
ARC
8
0
10
27
20
31.5
40
2
50
270
51
0
0
ARC
8
0
10
27
20
44.5
40
2
50
0
51
90
0
ARC
8
0
10
13
20
44.5
40
2
50
90
51
180
0
ARC
8
0
10
13
20
31.5
40
2
50
180
51
270
0
ARC
8
0
10
47
20
3.5
40
2
50
270
51
0
0
ARC
8
0
10
47
20
16.5
40
2
50
0
51
90
0
ARC
8
0
10
33
20
16.5
40
2
50
90
51
180
0
ARC
8
0
10
33
20
3.5
40
2
50
180
51
270
0
ARC
8
0
10
47
20
22.5
40
2
50
270
51
0
0
ARC
8
0
10
47
20
35.5
40
2
50
0
51
90
0
ARC
8
0
10
33
20
35.5
40
2
50
90
51
180
0
ARC
8
0
10
33
20
22.5
40
2
50
180
51
270
0
ARC
8
0
10
47
20
41.5
40
2
50
270
51
0
0
ARC
8
0
10
47
20
54.5
40
2
50
0
51
90
0
ARC
8
0
10
33
20
54.5
40
2
50
90
51
180
0
ARC
8
0
10
33
20
41.5
40
2
50
180
51
270
0
ARC
8
0
10
67
20
8.5
40
2
50
270
51
0
0
ARC
8
0
10
67
20
21.5
40
2
50
0
51
90
0
ARC
8
0
10
53
20
21.5
40
2
50
90
51
180
0
ARC
8
0
10
53
20
8.5
40
2
50
180
51
270
0
ARC
8
0
10
67
20
27.5
40
2
50
270
51
0
0
ARC
8
0
10
67
20
40.5
40
2
50
0
51
90
0
ARC
8
0
10
53
20
40.5
40
2
50
90
51
180
0
ARC
8
0
10
53
20
27.5
40
2
50
180
51
270
0
ARC
8
0
10
67
20
46.5
40
2
50
270
51
0
0
ARC
8
0
10
67
20
59.5
40
2
50
0
51
90
0
ARC
8
0
10
53
20
59.5
40
2
50
90
51
180
0
ARC
8
0
10
53
20
46.5
40
2
50
180
51
270
0
ARC
8
0
10
87
20
2.5
40
2
50
270
51
0
0
ARC
8
0
10
87
20
15.5
40
2
50
0
51
90
0
ARC
8
0
10
73
20
15.5
40
2
50
90
51
180
0
ARC
8
0
10
73
20
2.5
40
2
50
180
51
270
0
ARC
8
0
10
87
20
21.5
40
2
50
270
51
0
0
ARC
8
0
10
87
20
34.5
40
2
50
0
51
90
0
ARC
8
0
10
73
20
34.5
40
2
50
90
51
180
0
ARC
8
0
10
73
20
21.5
40
2
50
180
51
270
0
ARC
8
0
10
87
20
40.5
40
2
50
270
51
0
0
ARC
8
0
10
87
20
53.5
40
2
50
0
51
90
0
ARC
8
0
10
73
20
53.5
40
2
50
90
51
180
0
ARC
8
0
10
73
20
40.5
40
2
50
180
51
270
0
ARC
8
0
10
107
20
0.5
40
2
50
270
51
0
0
ARC
8
0
10
107
20
13.5
40
2
50
0
51
90
0
ARC
8
0
10
93
20
13.5
40
2
50
90
51
180
0
ARC
8
0
10
93
20
0.5
40
2
50
180
51
270
0
ARC
8
0
10
107
20
19.5
40
2
50
270
51
0
0
ARC
8
0
10
107
20
32.5
40
2
50
0
51
90
0
ARC
8
0
10
93
20
32.5
40
2
50
90
51
180
0
ARC
8
0
10
93
20
19.5
40
2
50
180
51
270
0
ARC
8
0
10
107
20
38.5
40
2
50
270
51
0
0
ARC
8
0
10
107
20
51.5
40
2
50
0
51
90
0
ARC
8
0
10
93
20
51.5
40
2
50
90
51
180
0
ARC
8
0
10
93
20
38.5
40
2
50
180
51
270
0
ARC
8
0
10
87
20
-18.5
40
2
50
270
51
0
0
ARC
8
0
10
87
20
-5.5
40
2
50
0
51
90
0
ARC
8
0
10
73
20
-5.5
40
2
50
90
51
180
0
ARC
8
0
10
73
20
-18.5
40
2
50
180
51
270
0
ENDSEC
0
EOF