0
SECTION
2
HEADER
9
$INSUNITS
70
4
0
ENDSEC
0
SECTION
2
TABLES
0
TABLE
2
LTYPE
0
LTYPE
72
65
70
64
2
CONTINUOUS
3
______
73
0
40
0
0
ENDTAB
0
TABLE
2
LAYER
0
ENDTAB
0
ENDSEC
0
SECTION
2
ENTITIES
0
LINE
8
0
10
-9
20
-8.5
11
9
21
-8.5
0
LINE
8
0
10
9
20
-8.5
11
9
21
8.5
0
LINE
8
0
10
9
20
8.5
11
-9
21
8.5
0
LINE
8
0
10
-9
20
8.5
11
-9
21
-8.5
0
LINE
8
0
10
-9
20
10.5
11
9
21
10.5
0
LINE
8
0
10
9
20
10.5
11
9
21
27.5
0
LINE
8
0
10
9
20
27.5
11
-9
21
27.5
0
LINE
8
0
10
-9
20
27.5
11
-9
21
10.5
0
LINE
8
0
10
-9
20
29.5
11
9
21
29.5
0
LINE
8
0
10
9
20
29.5
11
9
21
46.5
0
LINE
8
0
10
9
20
46.5
11
-9
21
46.5
0
LINE
8
0
10
-9
20
46.5
11
-9
21
29.5
0
LINE
8
0
10
11
20
-8.5
11
29
21
-8.5
0
LINE
8
0
10
29
20
-8.5
11
29
21
8.5
0
LINE
8
0
10
29
20
8.5
11
11
21
8.5
0
LINE
8
0
10
11
20
8.5
11
11
21
-8.5
0
LINE
8
0
10
11
20
10.5
11
29
21
10.5
0
LINE
8
0
10
29
20
10.5
11
29
21
27.5
0
LINE
8
0
10
29
20
27.5
11
11
21
27.5
0
LINE
8
0
10
11
20
27.5
11
11
21
10.5
0
LINE
8
0
10
11
20
29.5
11
29
21
29.5
0
LINE
8
0
10
29
20
29.5
11
29
21
46.5
0
LINE
8
0
10
29
20
46.5
11
11
21
46.5
0
LINE
8
0
10
11
20
46.5
11
11
21
29.5
0
LINE
8
0
10
31
20
1.5
11
49
21
1.5
0
LINE
8
0
10
49
20
1.5
11
49
21
18.5
0
LINE
8
0
10
49
20
18.5
11
31
21
18.5
0
LINE
8
0
10
31
20
18.5
11
31
21
1.5
0
LINE
8
0
10
31
20
20.5
11
49
21
20.5
0
LINE
8
0
10
49
20
20.5
11
49
21
37.5
0
LINE
8
0
10
49
20
37.5
11
31
21
37.5
0
LINE
8
0
10
31
20
37.5
11
31
21
20.5
0
LINE
8
0
10
31
20
39.5
11
49
21
39.5
0
LINE
8
0
10
49
20
39.5
11
49
21
56.5
0
LINE
8
0
10
49
20
56.5
11
31
21
56.5
0
LINE
8
0
10
31
20
56.5
11
31
21
39.5
0
LINE
8
0
10
51
20
6.5
11
69
21
6.5
0
LINE
8
0
10
69
20
6.5
11
69
21
23.5
0
LINE
8
0
10
69
20
23.5
11
51
21
23.5
0
LINE
8
0
10
51
20
23.5
11
51
21
6.5
0
LINE
8
0
10
51
20
25.5
11
69
21
25.5
0
LINE
8
0
10
69
20
25.5
11
69
21
42.5
0
LINE
8
0
10
69
20
42.5
11
51
21
42.5
0
LINE
8
0
10
51
20
42.5
11
51
21
25.5
0
LINE
8
0
10
51
20
44.5
11
69
21
44.5
0
LINE
8
0
10
69
20
44.5
11
69
21
61.5
0
LINE
8
0
10
69
20
61.5
11
51
21
61.5
0
LINE
8
0
10
51
20
61.5
11
51
21
44.5
0
LINE
8
0
10
71
20
0.5
11
89
21
0.5
0
LINE
8
0
10
89
20
0.5
11
89
21
17.5
0
LINE
8
0
10
89
20
17.5
11
71
21
17.5
0
LINE
8
0
10
71
20
17.5
11
71
21
0.5
0
LINE
8
0
10
71
20
19.5
11
89
21
19.5
0
LINE
8
0
10
89
20
19.5
11
89
21
36.5
0
LINE
8
0
10
89
20
36.5
11
71
21
36.5
0
LINE
8
0
10
71
20
36.5
11
71
21
19.5
0
LINE
8
0
10
71
20
38.5
11
89
21
38.5
0
LINE
8
0
10
89
20
38.5
11
89
21
55.5
0
LINE
8
0
10
89
20
55.5
11
71
21
55.5
0
LINE
8
0
10
71
20
55.5
11
71
21
38.5
0
LINE
8
0
10
91
20
-1.5
11
109
21
-1.5
0
LINE
8
0
10
109
20
-1.5
11
109
21
15.5
0
LINE
8
0
10
109
20
15.5
11
91
21
15.5
0
LINE
8
0
10
91
20
15.5
11
91
21
-1.5
0
LINE
8
0
10
91
20
17.5
11
109
21
17.5
0
LINE
8
0
10
109
20
17.5
11
109
21
34.5
0
LINE
8
0
10
109
20
34.5
11
91
21
34.5
0
LINE
8
0
10
91
20
34.5
11
91
21
17.5
0
LINE
8
0
10
91
20
36.5
11
109
21
36.5
0
LINE
8
0
10
109
20
36.5
11
109
21
53.5
0
LINE
8
0
10
109
20
53.5
11
91
21
53.5
0
LINE
8
0
10
91
20
53.5
11
91
21
36.5
0
LINE
8
0
10
71
20
-20.5
11
89
21
-20.5
0
LINE
8
0
10
89
20
-20.5
11
89
21
-3.5
0
LINE
8
0
10
89
20
-3.5
11
71
21
-3.5
0
LINE
8
0
10
71
20
-3.5
11
71
21
-20.5
0
LINE
8
0
10
89.6607207
20
-21.5080323
11
107.3872603
21
-24.6336995
0
LINE
8
0
10
107.3872603
20
-24.6336995
11
110.3392793
21
-7.8919677
0
LINE
8
0
10
110.3392793
20
-7.8919677
11
92.6127397
21
-4.7663005
0
LINE
8
0
10
92.6127397
20
-4.7663005
11
89.6607207
21
-21.5080323
0
LINE
8
0
10
124.8907783
20
-32.0568419
11
134.1253222
21
-6.6851411
0
LINE
8
0
10
134.1253222
20
-6.6851411
11
118.1505477
21
-0.8707987
0
LINE
8
0
10
118.1505477
20
-0.8707987
11
108.9160038
21
-26.2424995
0
LINE
8
0
10
108.9160038
20
-26.2424995
11
124.8907783
21
-32.0568419
0
LINE
8
0
10
128.6
20
15.5
11
128.6
21
53.5
0
LINE
8
0
10
128.6
20
53.5
11
110.6
21
53.5
0
LINE
8
0
10
110.6
20
15.5
11
110.6
21
53.5
0
LINE
8
0
10
110.6
20
15.5
11
128.6
21
15.5
0
ENDSEC
0
EOF