<svg width="145.322mm" height="95.765mm" viewBox="0 0 145.322 95.765" xmlns="http://www.w3.org/2000/svg"><g id="svgGroup" stroke-linecap="round" fill-rule="evenodd" font-size="9pt" stroke="#000" stroke-width="0.25mm" fill="none" style="stroke:#000;stroke-width:0.25mm;fill:none"><path d="M 0 70 L 0 17 A 2 2 0 0 1 2 15 L 38 15 A 2 2 0 0 0 40 13 L 40 7 A 2 2 0 0 1 42 5 L 58 5 A 2 2 0 0 0 60 3 L 60 2 A 2 2 0 0 1 62 0 L 78 0 A 2 2 0 0 1 80 2 L 80 4 A 2 2 0 0 0 82 6 L 100 6 L 100 8 L 137.5 8 A 2 2 0 0 1 139.5 10 L 139.5 59.567 A 2 2 0 0 0 139.917 60.79 L 144.905 67.246 A 2 2 0 0 1 145.201 69.153 L 135.994 94.449 A 2 2 0 0 1 133.451 95.651 L 117.934 90.186 A 2 2 0 0 0 117.802 90.145 L 98.72 84.879 A 2 2 0 0 0 98.277 84.809 L 81.912 84.085 A 2 2 0 0 1 80 82.087 L 80 59 A 2 2 0 0 0 78 57 L 62 57 A 2 2 0 0 0 60 59 L 60 60 A 2 2 0 0 1 58 62 L 42 62 A 2 2 0 0 0 40 64 L 40 70 A 2 2 0 0 1 38 72 L 2 72 A 2 2 0 0 1 0 70 Z M 138.6 45 L 138.6 9 L 120.6 9 L 120.6 45 A 2 2 0 0 0 122.6 47 L 136.6 47 A 2 2 0 0 0 138.6 45 Z M 135.575 92.677 L 143.441 71.065 A 2 2 0 0 0 142.246 68.501 L 130.03 64.055 A 2 2 0 0 0 127.467 65.25 L 119.6 86.863 A 2 2 0 0 0 120.795 89.427 L 133.011 93.873 A 2 2 0 0 0 135.575 92.677 Z M 101.63 84.355 L 115.418 86.786 A 2 2 0 0 0 117.735 85.164 L 119.992 72.362 A 2 2 0 0 0 118.37 70.045 L 104.582 67.614 A 2 2 0 0 0 102.265 69.236 L 100.008 82.038 A 2 2 0 0 0 101.63 84.355 Z M 3 71 L 17 71 A 2 2 0 0 0 19 69 L 19 56 A 2 2 0 0 0 17 54 L 3 54 A 2 2 0 0 0 1 56 L 1 69 A 2 2 0 0 0 3 71 Z M 3 52 L 17 52 A 2 2 0 0 0 19 50 L 19 37 A 2 2 0 0 0 17 35 L 3 35 A 2 2 0 0 0 1 37 L 1 50 A 2 2 0 0 0 3 52 Z M 3 33 L 17 33 A 2 2 0 0 0 19 31 L 19 18 A 2 2 0 0 0 17 16 L 3 16 A 2 2 0 0 0 1 18 L 1 31 A 2 2 0 0 0 3 33 Z M 23 71 L 37 71 A 2 2 0 0 0 39 69 L 39 56 A 2 2 0 0 0 37 54 L 23 54 A 2 2 0 0 0 21 56 L 21 69 A 2 2 0 0 0 23 71 Z M 23 52 L 37 52 A 2 2 0 0 0 39 50 L 39 37 A 2 2 0 0 0 37 35 L 23 35 A 2 2 0 0 0 21 37 L 21 50 A 2 2 0 0 0 23 52 Z M 23 33 L 37 33 A 2 2 0 0 0 39 31 L 39 18 A 2 2 0 0 0 37 16 L 23 16 A 2 2 0 0 0 21 18 L 21 31 A 2 2 0 0 0 23 33 Z M 43 61 L 57 61 A 2 2 0 0 0 59 59 L 59 46 A 2 2 0 0 0 57 44 L 43 44 A 2 2 0 0 0 41 46 L 41 59 A 2 2 0 0 0 43 61 Z M 43 42 L 57 42 A 2 2 0 0 0 59 40 L 59 27 A 2 2 0 0 0 57 25 L 43 25 A 2 2 0 0 0 41 27 L 41 40 A 2 2 0 0 0 43 42 Z M 43 23 L 57 23 A 2 2 0 0 0 59 21 L 59 8 A 2 2 0 0 0 57 6 L 43 6 A 2 2 0 0 0 41 8 L 41 21 A 2 2 0 0 0 43 23 Z M 63 56 L 77 56 A 2 2 0 0 0 79 54 L 79 41 A 2 2 0 0 0 77 39 L 63 39 A 2 2 0 0 0 61 41 L 61 54 A 2 2 0 0 0 63 56 Z M 63 37 L 77 37 A 2 2 0 0 0 79 35 L 79 22 A 2 2 0 0 0 77 20 L 63 20 A 2 2 0 0 0 61 22 L 61 35 A 2 2 0 0 0 63 37 Z M 63 18 L 77 18 A 2 2 0 0 0 79 16 L 79 3 A 2 2 0 0 0 77 1 L 63 1 A 2 2 0 0 0 61 3 L 61 16 A 2 2 0 0 0 63 18 Z M 83 62 L 97 62 A 2 2 0 0 0 99 60 L 99 47 A 2 2 0 0 0 97 45 L 83 45 A 2 2 0 0 0 81 47 L 81 60 A 2 2 0 0 0 83 62 Z M 83 43 L 97 43 A 2 2 0 0 0 99 41 L 99 28 A 2 2 0 0 0 97 26 L 83 26 A 2 2 0 0 0 81 28 L 81 41 A 2 2 0 0 0 83 43 Z M 83 24 L 97 24 A 2 2 0 0 0 99 22 L 99 9 A 2 2 0 0 0 97 7 L 83 7 A 2 2 0 0 0 81 9 L 81 22 A 2 2 0 0 0 83 24 Z M 103 64 L 117 64 A 2 2 0 0 0 119 62 L 119 49 A 2 2 0 0 0 117 47 L 103 47 A 2 2 0 0 0 101 49 L 101 62 A 2 2 0 0 0 103 64 Z M 103 45 L 117 45 A 2 2 0 0 0 119 43 L 119 30 A 2 2 0 0 0 117 28 L 103 28 A 2 2 0 0 0 101 30 L 101 43 A 2 2 0 0 0 103 45 Z M 103 26 L 117 26 A 2 2 0 0 0 119 24 L 119 11 A 2 2 0 0 0 117 9 L 103 9 A 2 2 0 0 0 101 11 L 101 24 A 2 2 0 0 0 103 26 Z M 83 83 L 97 83 A 2 2 0 0 0 99 81 L 99 68 A 2 2 0 0 0 97 66 L 83 66 A 2 2 0 0 0 81 68 L 81 81 A 2 2 0 0 0 83 83 Z" vector-effect="non-scaling-stroke"/></g></svg>