<svg width="143.125mm" height="93.557mm" viewBox="0 0 143.125 93.557" xmlns="http://www.w3.org/2000/svg"><g id="svgGroup" stroke-linecap="round" fill-rule="evenodd" font-size="9pt" stroke="#000" stroke-width="0.25mm" fill="none" style="stroke:#000;stroke-width:0.25mm;fill:none"><path d="M 137.6 46 L 137.6 8 L 119.6 8 L 119.6 46 L 137.6 46 Z M 133.891 93.557 L 143.125 68.185 L 127.151 62.371 L 117.916 87.742 L 133.891 93.557 Z M 98.661 83.008 L 116.387 86.134 L 119.339 69.392 L 101.613 66.266 L 98.661 83.008 Z M 0 70 L 18 70 L 18 53 L 0 53 L 0 70 Z M 0 51 L 18 51 L 18 34 L 0 34 L 0 51 Z M 0 32 L 18 32 L 18 15 L 0 15 L 0 32 Z M 20 70 L 38 70 L 38 53 L 20 53 L 20 70 Z M 20 51 L 38 51 L 38 34 L 20 34 L 20 51 Z M 20 32 L 38 32 L 38 15 L 20 15 L 20 32 Z M 40 60 L 58 60 L 58 43 L 40 43 L 40 60 Z M 40 41 L 58 41 L 58 24 L 40 24 L 40 41 Z M 40 22 L 58 22 L 58 5 L 40 5 L 40 22 Z M 60 55 L 78 55 L 78 38 L 60 38 L 60 55 Z M 60 36 L 78 36 L 78 19 L 60 19 L 60 36 Z M 60 17 L 78 17 L 78 0 L 60 0 L 60 17 Z M 80 61 L 98 61 L 98 44 L 80 44 L 80 61 Z M 80 42 L 98 42 L 98 25 L 80 25 L 80 42 Z M 80 23 L 98 23 L 98 6 L 80 6 L 80 23 Z M 100 63 L 118 63 L 118 46 L 100 46 L 100 63 Z M 100 44 L 118 44 L 118 27 L 100 27 L 100 44 Z M 100 25 L 118 25 L 118 8 L 100 8 L 100 25 Z M 80 82 L 98 82 L 98 65 L 80 65 L 80 82 Z" vector-effect="non-scaling-stroke"/></g></svg>