M48
; DRILL file KiCad 10.0.0 date 2026-04-13T15:49:33
; FORMAT={-:-/ absolute / metric / decimal}
; #@! TF.CreationDate,2026-04-13T15:49:33-04:00
; #@! TF.GenerationSoftware,Kicad,Pcbnew,10.0.0
; #@! TF.FileFunction,Plated,1,2,PTH
FMAT,2
METRIC
; #@! TA.AperFunction,Plated,PTH,ViaDrill
T1C0.300
; #@! TA.AperFunction,Plated,PTH,ComponentDrill
T2C0.750
; #@! TA.AperFunction,Plated,PTH,ComponentDrill
T3C0.991
; #@! TA.AperFunction,Plated,PTH,ComponentDrill
T4C1.000
%
G90
G05
T1
X101.65Y-67.0
X113.55Y-73.9
X151.375Y-83.425
X151.525Y-82.225
X202.125Y-105.225
X211.825Y-83.1
X215.9Y-95.25
X221.25Y-85.05
X222.93Y-78.225
X222.93Y-79.074
X224.375Y-99.809
X224.475Y-91.493
X225.35Y-77.475
X228.7Y-85.425
X229.175Y-100.125
T2
X222.6Y-93.5
X222.6Y-95.5
T3
X96.19Y-67.0
X96.19Y-86.0
X96.19Y-105.0
X103.81Y-67.0
X103.81Y-86.0
X103.81Y-105.0
X116.19Y-67.0
X116.19Y-86.0
X116.19Y-105.0
X123.81Y-67.0
X123.81Y-86.0
X123.81Y-105.0
X136.19Y-57.0
X136.19Y-76.0
X136.19Y-95.0
X143.81Y-57.0
X143.81Y-76.0
X143.81Y-95.0
X156.19Y-52.0
X156.19Y-71.0
X156.19Y-90.0
X163.81Y-52.0
X163.81Y-71.0
X163.81Y-90.0
X176.19Y-58.0
X176.19Y-77.0
X176.19Y-96.0
X176.19Y-117.0
X183.81Y-58.0
X183.81Y-77.0
X183.81Y-96.0
X183.81Y-117.0
X195.38Y-118.962
X196.19Y-60.0
X196.19Y-79.0
X196.19Y-98.0
X202.884Y-120.286
X203.81Y-60.0
X203.81Y-79.0
X203.81Y-98.0
X224.916Y-121.754
X227.522Y-114.594
T4
X211.98Y-50.3
X211.98Y-52.84
X211.98Y-55.38
X211.98Y-57.92
X211.98Y-60.46
X211.98Y-63.0
X211.98Y-65.54
X211.98Y-68.08
X211.98Y-70.62
X211.98Y-73.16
X211.98Y-75.7
X211.98Y-78.24
X214.52Y-83.2
X217.06Y-83.2
X219.6Y-83.2
X222.14Y-83.2
X224.68Y-83.2
X227.22Y-50.3
X227.22Y-52.84
X227.22Y-55.38
X227.22Y-57.92
X227.22Y-60.46
X227.22Y-63.0
X227.22Y-65.54
X227.22Y-68.08
X227.22Y-70.62
X227.22Y-73.16
X227.22Y-75.7
X227.22Y-78.24
M30
