M48
; DRILL file KiCad 10.0.0 date 2026-04-13T15:49:33
; FORMAT={-:-/ absolute / metric / decimal}
; #@! TF.CreationDate,2026-04-13T15:49:33-04:00
; #@! TF.GenerationSoftware,Kicad,Pcbnew,10.0.0
; #@! TF.FileFunction,NonPlated,1,2,NPTH
FMAT,2
METRIC
; #@! TA.AperFunction,NonPlated,NPTH,ComponentDrill
T1C0.900
; #@! TA.AperFunction,NonPlated,NPTH,ComponentDrill
T2C1.702
; #@! TA.AperFunction,NonPlated,NPTH,ComponentDrill
T3C2.200
; #@! TA.AperFunction,NonPlated,NPTH,ComponentDrill
T4C3.000
; #@! TA.AperFunction,NonPlated,NPTH,ComponentDrill
T5C3.429
%
G90
G05
T1
X227.275Y-91.5
X227.275Y-94.5
T2
X94.5Y-62.0
X94.5Y-81.0
X94.5Y-100.0
X105.5Y-62.0
X105.5Y-81.0
X105.5Y-100.0
X114.5Y-62.0
X114.5Y-81.0
X114.5Y-100.0
X125.5Y-62.0
X125.5Y-81.0
X125.5Y-100.0
X134.5Y-52.0
X134.5Y-71.0
X134.5Y-90.0
X145.5Y-52.0
X145.5Y-71.0
X145.5Y-90.0
X154.5Y-47.0
X154.5Y-66.0
X154.5Y-85.0
X165.5Y-47.0
X165.5Y-66.0
X165.5Y-85.0
X174.5Y-53.0
X174.5Y-72.0
X174.5Y-91.0
X174.5Y-112.0
X185.5Y-53.0
X185.5Y-72.0
X185.5Y-91.0
X185.5Y-112.0
X194.5Y-55.0
X194.5Y-74.0
X194.5Y-93.0
X194.584Y-113.745
X205.416Y-115.655
X205.5Y-55.0
X205.5Y-74.0
X205.5Y-93.0
X219.64Y-121.632
X223.402Y-111.296
T3
X110.0Y-71.5
X110.0Y-90.5
X190.0Y-63.5
X210.76Y-104.732
T4
X100.0Y-56.05
X100.0Y-75.05
X100.0Y-94.05
X105.0Y-58.25
X105.0Y-77.25
X105.0Y-96.25
X120.0Y-56.05
X120.0Y-75.05
X120.0Y-94.05
X125.0Y-58.25
X125.0Y-77.25
X125.0Y-96.25
X140.0Y-46.05
X140.0Y-65.05
X140.0Y-84.05
X145.0Y-48.25
X145.0Y-67.25
X145.0Y-86.25
X160.0Y-41.05
X160.0Y-60.05
X160.0Y-79.05
X165.0Y-43.25
X165.0Y-62.25
X165.0Y-81.25
X180.0Y-47.05
X180.0Y-66.05
X180.0Y-85.05
X180.0Y-106.05
X185.0Y-49.25
X185.0Y-68.25
X185.0Y-87.25
X185.0Y-108.25
X200.0Y-49.05
X200.0Y-68.05
X200.0Y-87.05
X201.033Y-108.84
X205.0Y-51.25
X205.0Y-70.25
X205.0Y-89.25
X205.575Y-111.875
X215.929Y-114.429
X219.707Y-110.483
T5
X100.0Y-62.0
X100.0Y-81.0
X100.0Y-100.0
X120.0Y-62.0
X120.0Y-81.0
X120.0Y-100.0
X140.0Y-52.0
X140.0Y-71.0
X140.0Y-90.0
X160.0Y-47.0
X160.0Y-66.0
X160.0Y-85.0
X180.0Y-53.0
X180.0Y-72.0
X180.0Y-91.0
X180.0Y-112.0
X200.0Y-55.0
X200.0Y-74.0
X200.0Y-93.0
X200.0Y-114.7
X221.521Y-116.464
M30
