%TF.GenerationSoftware,KiCad,Pcbnew,10.0.0*%
%TF.CreationDate,2026-04-13T15:49:09-04:00*%
%TF.ProjectId,mulloy42_left,6d756c6c-6f79-4343-925f-6c6566742e6b,0.1*%
%TF.SameCoordinates,Original*%
%TF.FileFunction,Legend,Top*%
%TF.FilePolarity,Positive*%
%FSLAX46Y46*%
G04 Gerber Fmt 4.6, Leading zero omitted, Abs format (unit mm)*
G04 Created by KiCad (PCBNEW 10.0.0) date 2026-04-13 15:49:09*
%MOMM*%
%LPD*%
G01*
G04 APERTURE LIST*
%ADD10C,0.150000*%
%ADD11C,0.100000*%
%ADD12C,0.120000*%
G04 APERTURE END LIST*
D10*
X226630952Y-87454819D02*
X226821428Y-87454819D01*
X226821428Y-87454819D02*
X226916666Y-87502438D01*
X226916666Y-87502438D02*
X227011904Y-87597676D01*
X227011904Y-87597676D02*
X227059523Y-87788152D01*
X227059523Y-87788152D02*
X227059523Y-88121485D01*
X227059523Y-88121485D02*
X227011904Y-88311961D01*
X227011904Y-88311961D02*
X226916666Y-88407200D01*
X226916666Y-88407200D02*
X226821428Y-88454819D01*
X226821428Y-88454819D02*
X226630952Y-88454819D01*
X226630952Y-88454819D02*
X226535714Y-88407200D01*
X226535714Y-88407200D02*
X226440476Y-88311961D01*
X226440476Y-88311961D02*
X226392857Y-88121485D01*
X226392857Y-88121485D02*
X226392857Y-87788152D01*
X226392857Y-87788152D02*
X226440476Y-87597676D01*
X226440476Y-87597676D02*
X226535714Y-87502438D01*
X226535714Y-87502438D02*
X226630952Y-87454819D01*
X227488095Y-88454819D02*
X227488095Y-87454819D01*
X227488095Y-87454819D02*
X228059523Y-88454819D01*
X228059523Y-88454819D02*
X228059523Y-87454819D01*
X226297619Y-97454819D02*
X226488095Y-97454819D01*
X226488095Y-97454819D02*
X226583333Y-97502438D01*
X226583333Y-97502438D02*
X226678571Y-97597676D01*
X226678571Y-97597676D02*
X226726190Y-97788152D01*
X226726190Y-97788152D02*
X226726190Y-98121485D01*
X226726190Y-98121485D02*
X226678571Y-98311961D01*
X226678571Y-98311961D02*
X226583333Y-98407200D01*
X226583333Y-98407200D02*
X226488095Y-98454819D01*
X226488095Y-98454819D02*
X226297619Y-98454819D01*
X226297619Y-98454819D02*
X226202381Y-98407200D01*
X226202381Y-98407200D02*
X226107143Y-98311961D01*
X226107143Y-98311961D02*
X226059524Y-98121485D01*
X226059524Y-98121485D02*
X226059524Y-97788152D01*
X226059524Y-97788152D02*
X226107143Y-97597676D01*
X226107143Y-97597676D02*
X226202381Y-97502438D01*
X226202381Y-97502438D02*
X226297619Y-97454819D01*
X227488095Y-97931009D02*
X227154762Y-97931009D01*
X227154762Y-98454819D02*
X227154762Y-97454819D01*
X227154762Y-97454819D02*
X227630952Y-97454819D01*
X228345238Y-97931009D02*
X228011905Y-97931009D01*
X228011905Y-98454819D02*
X228011905Y-97454819D01*
X228011905Y-97454819D02*
X228488095Y-97454819D01*
X214391905Y-50754819D02*
X214391905Y-49754819D01*
X214391905Y-49754819D02*
X214772857Y-49754819D01*
X214772857Y-49754819D02*
X214868095Y-49802438D01*
X214868095Y-49802438D02*
X214915714Y-49850057D01*
X214915714Y-49850057D02*
X214963333Y-49945295D01*
X214963333Y-49945295D02*
X214963333Y-50088152D01*
X214963333Y-50088152D02*
X214915714Y-50183390D01*
X214915714Y-50183390D02*
X214868095Y-50231009D01*
X214868095Y-50231009D02*
X214772857Y-50278628D01*
X214772857Y-50278628D02*
X214391905Y-50278628D01*
X215915714Y-50754819D02*
X215344286Y-50754819D01*
X215630000Y-50754819D02*
X215630000Y-49754819D01*
X215630000Y-49754819D02*
X215534762Y-49897676D01*
X215534762Y-49897676D02*
X215439524Y-49992914D01*
X215439524Y-49992914D02*
X215344286Y-50040533D01*
X214391905Y-53294819D02*
X214391905Y-52294819D01*
X214391905Y-52294819D02*
X214772857Y-52294819D01*
X214772857Y-52294819D02*
X214868095Y-52342438D01*
X214868095Y-52342438D02*
X214915714Y-52390057D01*
X214915714Y-52390057D02*
X214963333Y-52485295D01*
X214963333Y-52485295D02*
X214963333Y-52628152D01*
X214963333Y-52628152D02*
X214915714Y-52723390D01*
X214915714Y-52723390D02*
X214868095Y-52771009D01*
X214868095Y-52771009D02*
X214772857Y-52818628D01*
X214772857Y-52818628D02*
X214391905Y-52818628D01*
X215582381Y-52294819D02*
X215677619Y-52294819D01*
X215677619Y-52294819D02*
X215772857Y-52342438D01*
X215772857Y-52342438D02*
X215820476Y-52390057D01*
X215820476Y-52390057D02*
X215868095Y-52485295D01*
X215868095Y-52485295D02*
X215915714Y-52675771D01*
X215915714Y-52675771D02*
X215915714Y-52913866D01*
X215915714Y-52913866D02*
X215868095Y-53104342D01*
X215868095Y-53104342D02*
X215820476Y-53199580D01*
X215820476Y-53199580D02*
X215772857Y-53247200D01*
X215772857Y-53247200D02*
X215677619Y-53294819D01*
X215677619Y-53294819D02*
X215582381Y-53294819D01*
X215582381Y-53294819D02*
X215487143Y-53247200D01*
X215487143Y-53247200D02*
X215439524Y-53199580D01*
X215439524Y-53199580D02*
X215391905Y-53104342D01*
X215391905Y-53104342D02*
X215344286Y-52913866D01*
X215344286Y-52913866D02*
X215344286Y-52675771D01*
X215344286Y-52675771D02*
X215391905Y-52485295D01*
X215391905Y-52485295D02*
X215439524Y-52390057D01*
X215439524Y-52390057D02*
X215487143Y-52342438D01*
X215487143Y-52342438D02*
X215582381Y-52294819D01*
X214368095Y-54882438D02*
X214272857Y-54834819D01*
X214272857Y-54834819D02*
X214130000Y-54834819D01*
X214130000Y-54834819D02*
X213987143Y-54882438D01*
X213987143Y-54882438D02*
X213891905Y-54977676D01*
X213891905Y-54977676D02*
X213844286Y-55072914D01*
X213844286Y-55072914D02*
X213796667Y-55263390D01*
X213796667Y-55263390D02*
X213796667Y-55406247D01*
X213796667Y-55406247D02*
X213844286Y-55596723D01*
X213844286Y-55596723D02*
X213891905Y-55691961D01*
X213891905Y-55691961D02*
X213987143Y-55787200D01*
X213987143Y-55787200D02*
X214130000Y-55834819D01*
X214130000Y-55834819D02*
X214225238Y-55834819D01*
X214225238Y-55834819D02*
X214368095Y-55787200D01*
X214368095Y-55787200D02*
X214415714Y-55739580D01*
X214415714Y-55739580D02*
X214415714Y-55406247D01*
X214415714Y-55406247D02*
X214225238Y-55406247D01*
X214844286Y-55834819D02*
X214844286Y-54834819D01*
X214844286Y-54834819D02*
X215415714Y-55834819D01*
X215415714Y-55834819D02*
X215415714Y-54834819D01*
X215891905Y-55834819D02*
X215891905Y-54834819D01*
X215891905Y-54834819D02*
X216130000Y-54834819D01*
X216130000Y-54834819D02*
X216272857Y-54882438D01*
X216272857Y-54882438D02*
X216368095Y-54977676D01*
X216368095Y-54977676D02*
X216415714Y-55072914D01*
X216415714Y-55072914D02*
X216463333Y-55263390D01*
X216463333Y-55263390D02*
X216463333Y-55406247D01*
X216463333Y-55406247D02*
X216415714Y-55596723D01*
X216415714Y-55596723D02*
X216368095Y-55691961D01*
X216368095Y-55691961D02*
X216272857Y-55787200D01*
X216272857Y-55787200D02*
X216130000Y-55834819D01*
X216130000Y-55834819D02*
X215891905Y-55834819D01*
X214368095Y-57422438D02*
X214272857Y-57374819D01*
X214272857Y-57374819D02*
X214130000Y-57374819D01*
X214130000Y-57374819D02*
X213987143Y-57422438D01*
X213987143Y-57422438D02*
X213891905Y-57517676D01*
X213891905Y-57517676D02*
X213844286Y-57612914D01*
X213844286Y-57612914D02*
X213796667Y-57803390D01*
X213796667Y-57803390D02*
X213796667Y-57946247D01*
X213796667Y-57946247D02*
X213844286Y-58136723D01*
X213844286Y-58136723D02*
X213891905Y-58231961D01*
X213891905Y-58231961D02*
X213987143Y-58327200D01*
X213987143Y-58327200D02*
X214130000Y-58374819D01*
X214130000Y-58374819D02*
X214225238Y-58374819D01*
X214225238Y-58374819D02*
X214368095Y-58327200D01*
X214368095Y-58327200D02*
X214415714Y-58279580D01*
X214415714Y-58279580D02*
X214415714Y-57946247D01*
X214415714Y-57946247D02*
X214225238Y-57946247D01*
X214844286Y-58374819D02*
X214844286Y-57374819D01*
X214844286Y-57374819D02*
X215415714Y-58374819D01*
X215415714Y-58374819D02*
X215415714Y-57374819D01*
X215891905Y-58374819D02*
X215891905Y-57374819D01*
X215891905Y-57374819D02*
X216130000Y-57374819D01*
X216130000Y-57374819D02*
X216272857Y-57422438D01*
X216272857Y-57422438D02*
X216368095Y-57517676D01*
X216368095Y-57517676D02*
X216415714Y-57612914D01*
X216415714Y-57612914D02*
X216463333Y-57803390D01*
X216463333Y-57803390D02*
X216463333Y-57946247D01*
X216463333Y-57946247D02*
X216415714Y-58136723D01*
X216415714Y-58136723D02*
X216368095Y-58231961D01*
X216368095Y-58231961D02*
X216272857Y-58327200D01*
X216272857Y-58327200D02*
X216130000Y-58374819D01*
X216130000Y-58374819D02*
X215891905Y-58374819D01*
X214391905Y-60914819D02*
X214391905Y-59914819D01*
X214391905Y-59914819D02*
X214772857Y-59914819D01*
X214772857Y-59914819D02*
X214868095Y-59962438D01*
X214868095Y-59962438D02*
X214915714Y-60010057D01*
X214915714Y-60010057D02*
X214963333Y-60105295D01*
X214963333Y-60105295D02*
X214963333Y-60248152D01*
X214963333Y-60248152D02*
X214915714Y-60343390D01*
X214915714Y-60343390D02*
X214868095Y-60391009D01*
X214868095Y-60391009D02*
X214772857Y-60438628D01*
X214772857Y-60438628D02*
X214391905Y-60438628D01*
X215344286Y-60010057D02*
X215391905Y-59962438D01*
X215391905Y-59962438D02*
X215487143Y-59914819D01*
X215487143Y-59914819D02*
X215725238Y-59914819D01*
X215725238Y-59914819D02*
X215820476Y-59962438D01*
X215820476Y-59962438D02*
X215868095Y-60010057D01*
X215868095Y-60010057D02*
X215915714Y-60105295D01*
X215915714Y-60105295D02*
X215915714Y-60200533D01*
X215915714Y-60200533D02*
X215868095Y-60343390D01*
X215868095Y-60343390D02*
X215296667Y-60914819D01*
X215296667Y-60914819D02*
X215915714Y-60914819D01*
X214391905Y-63454819D02*
X214391905Y-62454819D01*
X214391905Y-62454819D02*
X214772857Y-62454819D01*
X214772857Y-62454819D02*
X214868095Y-62502438D01*
X214868095Y-62502438D02*
X214915714Y-62550057D01*
X214915714Y-62550057D02*
X214963333Y-62645295D01*
X214963333Y-62645295D02*
X214963333Y-62788152D01*
X214963333Y-62788152D02*
X214915714Y-62883390D01*
X214915714Y-62883390D02*
X214868095Y-62931009D01*
X214868095Y-62931009D02*
X214772857Y-62978628D01*
X214772857Y-62978628D02*
X214391905Y-62978628D01*
X215296667Y-62454819D02*
X215915714Y-62454819D01*
X215915714Y-62454819D02*
X215582381Y-62835771D01*
X215582381Y-62835771D02*
X215725238Y-62835771D01*
X215725238Y-62835771D02*
X215820476Y-62883390D01*
X215820476Y-62883390D02*
X215868095Y-62931009D01*
X215868095Y-62931009D02*
X215915714Y-63026247D01*
X215915714Y-63026247D02*
X215915714Y-63264342D01*
X215915714Y-63264342D02*
X215868095Y-63359580D01*
X215868095Y-63359580D02*
X215820476Y-63407200D01*
X215820476Y-63407200D02*
X215725238Y-63454819D01*
X215725238Y-63454819D02*
X215439524Y-63454819D01*
X215439524Y-63454819D02*
X215344286Y-63407200D01*
X215344286Y-63407200D02*
X215296667Y-63359580D01*
X214391905Y-65994819D02*
X214391905Y-64994819D01*
X214391905Y-64994819D02*
X214772857Y-64994819D01*
X214772857Y-64994819D02*
X214868095Y-65042438D01*
X214868095Y-65042438D02*
X214915714Y-65090057D01*
X214915714Y-65090057D02*
X214963333Y-65185295D01*
X214963333Y-65185295D02*
X214963333Y-65328152D01*
X214963333Y-65328152D02*
X214915714Y-65423390D01*
X214915714Y-65423390D02*
X214868095Y-65471009D01*
X214868095Y-65471009D02*
X214772857Y-65518628D01*
X214772857Y-65518628D02*
X214391905Y-65518628D01*
X215820476Y-65328152D02*
X215820476Y-65994819D01*
X215582381Y-64947200D02*
X215344286Y-65661485D01*
X215344286Y-65661485D02*
X215963333Y-65661485D01*
X214391905Y-68534819D02*
X214391905Y-67534819D01*
X214391905Y-67534819D02*
X214772857Y-67534819D01*
X214772857Y-67534819D02*
X214868095Y-67582438D01*
X214868095Y-67582438D02*
X214915714Y-67630057D01*
X214915714Y-67630057D02*
X214963333Y-67725295D01*
X214963333Y-67725295D02*
X214963333Y-67868152D01*
X214963333Y-67868152D02*
X214915714Y-67963390D01*
X214915714Y-67963390D02*
X214868095Y-68011009D01*
X214868095Y-68011009D02*
X214772857Y-68058628D01*
X214772857Y-68058628D02*
X214391905Y-68058628D01*
X215868095Y-67534819D02*
X215391905Y-67534819D01*
X215391905Y-67534819D02*
X215344286Y-68011009D01*
X215344286Y-68011009D02*
X215391905Y-67963390D01*
X215391905Y-67963390D02*
X215487143Y-67915771D01*
X215487143Y-67915771D02*
X215725238Y-67915771D01*
X215725238Y-67915771D02*
X215820476Y-67963390D01*
X215820476Y-67963390D02*
X215868095Y-68011009D01*
X215868095Y-68011009D02*
X215915714Y-68106247D01*
X215915714Y-68106247D02*
X215915714Y-68344342D01*
X215915714Y-68344342D02*
X215868095Y-68439580D01*
X215868095Y-68439580D02*
X215820476Y-68487200D01*
X215820476Y-68487200D02*
X215725238Y-68534819D01*
X215725238Y-68534819D02*
X215487143Y-68534819D01*
X215487143Y-68534819D02*
X215391905Y-68487200D01*
X215391905Y-68487200D02*
X215344286Y-68439580D01*
X214391905Y-71074819D02*
X214391905Y-70074819D01*
X214391905Y-70074819D02*
X214772857Y-70074819D01*
X214772857Y-70074819D02*
X214868095Y-70122438D01*
X214868095Y-70122438D02*
X214915714Y-70170057D01*
X214915714Y-70170057D02*
X214963333Y-70265295D01*
X214963333Y-70265295D02*
X214963333Y-70408152D01*
X214963333Y-70408152D02*
X214915714Y-70503390D01*
X214915714Y-70503390D02*
X214868095Y-70551009D01*
X214868095Y-70551009D02*
X214772857Y-70598628D01*
X214772857Y-70598628D02*
X214391905Y-70598628D01*
X215820476Y-70074819D02*
X215630000Y-70074819D01*
X215630000Y-70074819D02*
X215534762Y-70122438D01*
X215534762Y-70122438D02*
X215487143Y-70170057D01*
X215487143Y-70170057D02*
X215391905Y-70312914D01*
X215391905Y-70312914D02*
X215344286Y-70503390D01*
X215344286Y-70503390D02*
X215344286Y-70884342D01*
X215344286Y-70884342D02*
X215391905Y-70979580D01*
X215391905Y-70979580D02*
X215439524Y-71027200D01*
X215439524Y-71027200D02*
X215534762Y-71074819D01*
X215534762Y-71074819D02*
X215725238Y-71074819D01*
X215725238Y-71074819D02*
X215820476Y-71027200D01*
X215820476Y-71027200D02*
X215868095Y-70979580D01*
X215868095Y-70979580D02*
X215915714Y-70884342D01*
X215915714Y-70884342D02*
X215915714Y-70646247D01*
X215915714Y-70646247D02*
X215868095Y-70551009D01*
X215868095Y-70551009D02*
X215820476Y-70503390D01*
X215820476Y-70503390D02*
X215725238Y-70455771D01*
X215725238Y-70455771D02*
X215534762Y-70455771D01*
X215534762Y-70455771D02*
X215439524Y-70503390D01*
X215439524Y-70503390D02*
X215391905Y-70551009D01*
X215391905Y-70551009D02*
X215344286Y-70646247D01*
X214391905Y-73614819D02*
X214391905Y-72614819D01*
X214391905Y-72614819D02*
X214772857Y-72614819D01*
X214772857Y-72614819D02*
X214868095Y-72662438D01*
X214868095Y-72662438D02*
X214915714Y-72710057D01*
X214915714Y-72710057D02*
X214963333Y-72805295D01*
X214963333Y-72805295D02*
X214963333Y-72948152D01*
X214963333Y-72948152D02*
X214915714Y-73043390D01*
X214915714Y-73043390D02*
X214868095Y-73091009D01*
X214868095Y-73091009D02*
X214772857Y-73138628D01*
X214772857Y-73138628D02*
X214391905Y-73138628D01*
X215296667Y-72614819D02*
X215963333Y-72614819D01*
X215963333Y-72614819D02*
X215534762Y-73614819D01*
X214391905Y-76154819D02*
X214391905Y-75154819D01*
X214391905Y-75154819D02*
X214772857Y-75154819D01*
X214772857Y-75154819D02*
X214868095Y-75202438D01*
X214868095Y-75202438D02*
X214915714Y-75250057D01*
X214915714Y-75250057D02*
X214963333Y-75345295D01*
X214963333Y-75345295D02*
X214963333Y-75488152D01*
X214963333Y-75488152D02*
X214915714Y-75583390D01*
X214915714Y-75583390D02*
X214868095Y-75631009D01*
X214868095Y-75631009D02*
X214772857Y-75678628D01*
X214772857Y-75678628D02*
X214391905Y-75678628D01*
X215534762Y-75583390D02*
X215439524Y-75535771D01*
X215439524Y-75535771D02*
X215391905Y-75488152D01*
X215391905Y-75488152D02*
X215344286Y-75392914D01*
X215344286Y-75392914D02*
X215344286Y-75345295D01*
X215344286Y-75345295D02*
X215391905Y-75250057D01*
X215391905Y-75250057D02*
X215439524Y-75202438D01*
X215439524Y-75202438D02*
X215534762Y-75154819D01*
X215534762Y-75154819D02*
X215725238Y-75154819D01*
X215725238Y-75154819D02*
X215820476Y-75202438D01*
X215820476Y-75202438D02*
X215868095Y-75250057D01*
X215868095Y-75250057D02*
X215915714Y-75345295D01*
X215915714Y-75345295D02*
X215915714Y-75392914D01*
X215915714Y-75392914D02*
X215868095Y-75488152D01*
X215868095Y-75488152D02*
X215820476Y-75535771D01*
X215820476Y-75535771D02*
X215725238Y-75583390D01*
X215725238Y-75583390D02*
X215534762Y-75583390D01*
X215534762Y-75583390D02*
X215439524Y-75631009D01*
X215439524Y-75631009D02*
X215391905Y-75678628D01*
X215391905Y-75678628D02*
X215344286Y-75773866D01*
X215344286Y-75773866D02*
X215344286Y-75964342D01*
X215344286Y-75964342D02*
X215391905Y-76059580D01*
X215391905Y-76059580D02*
X215439524Y-76107200D01*
X215439524Y-76107200D02*
X215534762Y-76154819D01*
X215534762Y-76154819D02*
X215725238Y-76154819D01*
X215725238Y-76154819D02*
X215820476Y-76107200D01*
X215820476Y-76107200D02*
X215868095Y-76059580D01*
X215868095Y-76059580D02*
X215915714Y-75964342D01*
X215915714Y-75964342D02*
X215915714Y-75773866D01*
X215915714Y-75773866D02*
X215868095Y-75678628D01*
X215868095Y-75678628D02*
X215820476Y-75631009D01*
X215820476Y-75631009D02*
X215725238Y-75583390D01*
X214391905Y-78694819D02*
X214391905Y-77694819D01*
X214391905Y-77694819D02*
X214772857Y-77694819D01*
X214772857Y-77694819D02*
X214868095Y-77742438D01*
X214868095Y-77742438D02*
X214915714Y-77790057D01*
X214915714Y-77790057D02*
X214963333Y-77885295D01*
X214963333Y-77885295D02*
X214963333Y-78028152D01*
X214963333Y-78028152D02*
X214915714Y-78123390D01*
X214915714Y-78123390D02*
X214868095Y-78171009D01*
X214868095Y-78171009D02*
X214772857Y-78218628D01*
X214772857Y-78218628D02*
X214391905Y-78218628D01*
X215439524Y-78694819D02*
X215630000Y-78694819D01*
X215630000Y-78694819D02*
X215725238Y-78647200D01*
X215725238Y-78647200D02*
X215772857Y-78599580D01*
X215772857Y-78599580D02*
X215868095Y-78456723D01*
X215868095Y-78456723D02*
X215915714Y-78266247D01*
X215915714Y-78266247D02*
X215915714Y-77885295D01*
X215915714Y-77885295D02*
X215868095Y-77790057D01*
X215868095Y-77790057D02*
X215820476Y-77742438D01*
X215820476Y-77742438D02*
X215725238Y-77694819D01*
X215725238Y-77694819D02*
X215534762Y-77694819D01*
X215534762Y-77694819D02*
X215439524Y-77742438D01*
X215439524Y-77742438D02*
X215391905Y-77790057D01*
X215391905Y-77790057D02*
X215344286Y-77885295D01*
X215344286Y-77885295D02*
X215344286Y-78123390D01*
X215344286Y-78123390D02*
X215391905Y-78218628D01*
X215391905Y-78218628D02*
X215439524Y-78266247D01*
X215439524Y-78266247D02*
X215534762Y-78313866D01*
X215534762Y-78313866D02*
X215725238Y-78313866D01*
X215725238Y-78313866D02*
X215820476Y-78266247D01*
X215820476Y-78266247D02*
X215868095Y-78218628D01*
X215868095Y-78218628D02*
X215915714Y-78123390D01*
X223379523Y-50754819D02*
X223046190Y-50278628D01*
X222808095Y-50754819D02*
X222808095Y-49754819D01*
X222808095Y-49754819D02*
X223189047Y-49754819D01*
X223189047Y-49754819D02*
X223284285Y-49802438D01*
X223284285Y-49802438D02*
X223331904Y-49850057D01*
X223331904Y-49850057D02*
X223379523Y-49945295D01*
X223379523Y-49945295D02*
X223379523Y-50088152D01*
X223379523Y-50088152D02*
X223331904Y-50183390D01*
X223331904Y-50183390D02*
X223284285Y-50231009D01*
X223284285Y-50231009D02*
X223189047Y-50278628D01*
X223189047Y-50278628D02*
X222808095Y-50278628D01*
X223760476Y-50469104D02*
X224236666Y-50469104D01*
X223665238Y-50754819D02*
X223998571Y-49754819D01*
X223998571Y-49754819D02*
X224331904Y-50754819D01*
X224570000Y-49754819D02*
X224808095Y-50754819D01*
X224808095Y-50754819D02*
X224998571Y-50040533D01*
X224998571Y-50040533D02*
X225189047Y-50754819D01*
X225189047Y-50754819D02*
X225427143Y-49754819D01*
X223308095Y-52342438D02*
X223212857Y-52294819D01*
X223212857Y-52294819D02*
X223070000Y-52294819D01*
X223070000Y-52294819D02*
X222927143Y-52342438D01*
X222927143Y-52342438D02*
X222831905Y-52437676D01*
X222831905Y-52437676D02*
X222784286Y-52532914D01*
X222784286Y-52532914D02*
X222736667Y-52723390D01*
X222736667Y-52723390D02*
X222736667Y-52866247D01*
X222736667Y-52866247D02*
X222784286Y-53056723D01*
X222784286Y-53056723D02*
X222831905Y-53151961D01*
X222831905Y-53151961D02*
X222927143Y-53247200D01*
X222927143Y-53247200D02*
X223070000Y-53294819D01*
X223070000Y-53294819D02*
X223165238Y-53294819D01*
X223165238Y-53294819D02*
X223308095Y-53247200D01*
X223308095Y-53247200D02*
X223355714Y-53199580D01*
X223355714Y-53199580D02*
X223355714Y-52866247D01*
X223355714Y-52866247D02*
X223165238Y-52866247D01*
X223784286Y-53294819D02*
X223784286Y-52294819D01*
X223784286Y-52294819D02*
X224355714Y-53294819D01*
X224355714Y-53294819D02*
X224355714Y-52294819D01*
X224831905Y-53294819D02*
X224831905Y-52294819D01*
X224831905Y-52294819D02*
X225070000Y-52294819D01*
X225070000Y-52294819D02*
X225212857Y-52342438D01*
X225212857Y-52342438D02*
X225308095Y-52437676D01*
X225308095Y-52437676D02*
X225355714Y-52532914D01*
X225355714Y-52532914D02*
X225403333Y-52723390D01*
X225403333Y-52723390D02*
X225403333Y-52866247D01*
X225403333Y-52866247D02*
X225355714Y-53056723D01*
X225355714Y-53056723D02*
X225308095Y-53151961D01*
X225308095Y-53151961D02*
X225212857Y-53247200D01*
X225212857Y-53247200D02*
X225070000Y-53294819D01*
X225070000Y-53294819D02*
X224831905Y-53294819D01*
X223522380Y-55834819D02*
X223189047Y-55358628D01*
X222950952Y-55834819D02*
X222950952Y-54834819D01*
X222950952Y-54834819D02*
X223331904Y-54834819D01*
X223331904Y-54834819D02*
X223427142Y-54882438D01*
X223427142Y-54882438D02*
X223474761Y-54930057D01*
X223474761Y-54930057D02*
X223522380Y-55025295D01*
X223522380Y-55025295D02*
X223522380Y-55168152D01*
X223522380Y-55168152D02*
X223474761Y-55263390D01*
X223474761Y-55263390D02*
X223427142Y-55311009D01*
X223427142Y-55311009D02*
X223331904Y-55358628D01*
X223331904Y-55358628D02*
X222950952Y-55358628D01*
X223903333Y-55787200D02*
X224046190Y-55834819D01*
X224046190Y-55834819D02*
X224284285Y-55834819D01*
X224284285Y-55834819D02*
X224379523Y-55787200D01*
X224379523Y-55787200D02*
X224427142Y-55739580D01*
X224427142Y-55739580D02*
X224474761Y-55644342D01*
X224474761Y-55644342D02*
X224474761Y-55549104D01*
X224474761Y-55549104D02*
X224427142Y-55453866D01*
X224427142Y-55453866D02*
X224379523Y-55406247D01*
X224379523Y-55406247D02*
X224284285Y-55358628D01*
X224284285Y-55358628D02*
X224093809Y-55311009D01*
X224093809Y-55311009D02*
X223998571Y-55263390D01*
X223998571Y-55263390D02*
X223950952Y-55215771D01*
X223950952Y-55215771D02*
X223903333Y-55120533D01*
X223903333Y-55120533D02*
X223903333Y-55025295D01*
X223903333Y-55025295D02*
X223950952Y-54930057D01*
X223950952Y-54930057D02*
X223998571Y-54882438D01*
X223998571Y-54882438D02*
X224093809Y-54834819D01*
X224093809Y-54834819D02*
X224331904Y-54834819D01*
X224331904Y-54834819D02*
X224474761Y-54882438D01*
X224760476Y-54834819D02*
X225331904Y-54834819D01*
X225046190Y-55834819D02*
X225046190Y-54834819D01*
X222736667Y-57374819D02*
X223070000Y-58374819D01*
X223070000Y-58374819D02*
X223403333Y-57374819D01*
X224308095Y-58279580D02*
X224260476Y-58327200D01*
X224260476Y-58327200D02*
X224117619Y-58374819D01*
X224117619Y-58374819D02*
X224022381Y-58374819D01*
X224022381Y-58374819D02*
X223879524Y-58327200D01*
X223879524Y-58327200D02*
X223784286Y-58231961D01*
X223784286Y-58231961D02*
X223736667Y-58136723D01*
X223736667Y-58136723D02*
X223689048Y-57946247D01*
X223689048Y-57946247D02*
X223689048Y-57803390D01*
X223689048Y-57803390D02*
X223736667Y-57612914D01*
X223736667Y-57612914D02*
X223784286Y-57517676D01*
X223784286Y-57517676D02*
X223879524Y-57422438D01*
X223879524Y-57422438D02*
X224022381Y-57374819D01*
X224022381Y-57374819D02*
X224117619Y-57374819D01*
X224117619Y-57374819D02*
X224260476Y-57422438D01*
X224260476Y-57422438D02*
X224308095Y-57470057D01*
X225308095Y-58279580D02*
X225260476Y-58327200D01*
X225260476Y-58327200D02*
X225117619Y-58374819D01*
X225117619Y-58374819D02*
X225022381Y-58374819D01*
X225022381Y-58374819D02*
X224879524Y-58327200D01*
X224879524Y-58327200D02*
X224784286Y-58231961D01*
X224784286Y-58231961D02*
X224736667Y-58136723D01*
X224736667Y-58136723D02*
X224689048Y-57946247D01*
X224689048Y-57946247D02*
X224689048Y-57803390D01*
X224689048Y-57803390D02*
X224736667Y-57612914D01*
X224736667Y-57612914D02*
X224784286Y-57517676D01*
X224784286Y-57517676D02*
X224879524Y-57422438D01*
X224879524Y-57422438D02*
X225022381Y-57374819D01*
X225022381Y-57374819D02*
X225117619Y-57374819D01*
X225117619Y-57374819D02*
X225260476Y-57422438D01*
X225260476Y-57422438D02*
X225308095Y-57470057D01*
X222855714Y-60914819D02*
X222855714Y-59914819D01*
X222855714Y-59914819D02*
X223236666Y-59914819D01*
X223236666Y-59914819D02*
X223331904Y-59962438D01*
X223331904Y-59962438D02*
X223379523Y-60010057D01*
X223379523Y-60010057D02*
X223427142Y-60105295D01*
X223427142Y-60105295D02*
X223427142Y-60248152D01*
X223427142Y-60248152D02*
X223379523Y-60343390D01*
X223379523Y-60343390D02*
X223331904Y-60391009D01*
X223331904Y-60391009D02*
X223236666Y-60438628D01*
X223236666Y-60438628D02*
X222855714Y-60438628D01*
X223808095Y-60010057D02*
X223855714Y-59962438D01*
X223855714Y-59962438D02*
X223950952Y-59914819D01*
X223950952Y-59914819D02*
X224189047Y-59914819D01*
X224189047Y-59914819D02*
X224284285Y-59962438D01*
X224284285Y-59962438D02*
X224331904Y-60010057D01*
X224331904Y-60010057D02*
X224379523Y-60105295D01*
X224379523Y-60105295D02*
X224379523Y-60200533D01*
X224379523Y-60200533D02*
X224331904Y-60343390D01*
X224331904Y-60343390D02*
X223760476Y-60914819D01*
X223760476Y-60914819D02*
X224379523Y-60914819D01*
X225331904Y-60914819D02*
X224760476Y-60914819D01*
X225046190Y-60914819D02*
X225046190Y-59914819D01*
X225046190Y-59914819D02*
X224950952Y-60057676D01*
X224950952Y-60057676D02*
X224855714Y-60152914D01*
X224855714Y-60152914D02*
X224760476Y-60200533D01*
X222855714Y-63454819D02*
X222855714Y-62454819D01*
X222855714Y-62454819D02*
X223236666Y-62454819D01*
X223236666Y-62454819D02*
X223331904Y-62502438D01*
X223331904Y-62502438D02*
X223379523Y-62550057D01*
X223379523Y-62550057D02*
X223427142Y-62645295D01*
X223427142Y-62645295D02*
X223427142Y-62788152D01*
X223427142Y-62788152D02*
X223379523Y-62883390D01*
X223379523Y-62883390D02*
X223331904Y-62931009D01*
X223331904Y-62931009D02*
X223236666Y-62978628D01*
X223236666Y-62978628D02*
X222855714Y-62978628D01*
X223808095Y-62550057D02*
X223855714Y-62502438D01*
X223855714Y-62502438D02*
X223950952Y-62454819D01*
X223950952Y-62454819D02*
X224189047Y-62454819D01*
X224189047Y-62454819D02*
X224284285Y-62502438D01*
X224284285Y-62502438D02*
X224331904Y-62550057D01*
X224331904Y-62550057D02*
X224379523Y-62645295D01*
X224379523Y-62645295D02*
X224379523Y-62740533D01*
X224379523Y-62740533D02*
X224331904Y-62883390D01*
X224331904Y-62883390D02*
X223760476Y-63454819D01*
X223760476Y-63454819D02*
X224379523Y-63454819D01*
X224998571Y-62454819D02*
X225093809Y-62454819D01*
X225093809Y-62454819D02*
X225189047Y-62502438D01*
X225189047Y-62502438D02*
X225236666Y-62550057D01*
X225236666Y-62550057D02*
X225284285Y-62645295D01*
X225284285Y-62645295D02*
X225331904Y-62835771D01*
X225331904Y-62835771D02*
X225331904Y-63073866D01*
X225331904Y-63073866D02*
X225284285Y-63264342D01*
X225284285Y-63264342D02*
X225236666Y-63359580D01*
X225236666Y-63359580D02*
X225189047Y-63407200D01*
X225189047Y-63407200D02*
X225093809Y-63454819D01*
X225093809Y-63454819D02*
X224998571Y-63454819D01*
X224998571Y-63454819D02*
X224903333Y-63407200D01*
X224903333Y-63407200D02*
X224855714Y-63359580D01*
X224855714Y-63359580D02*
X224808095Y-63264342D01*
X224808095Y-63264342D02*
X224760476Y-63073866D01*
X224760476Y-63073866D02*
X224760476Y-62835771D01*
X224760476Y-62835771D02*
X224808095Y-62645295D01*
X224808095Y-62645295D02*
X224855714Y-62550057D01*
X224855714Y-62550057D02*
X224903333Y-62502438D01*
X224903333Y-62502438D02*
X224998571Y-62454819D01*
X222855714Y-65994819D02*
X222855714Y-64994819D01*
X222855714Y-64994819D02*
X223236666Y-64994819D01*
X223236666Y-64994819D02*
X223331904Y-65042438D01*
X223331904Y-65042438D02*
X223379523Y-65090057D01*
X223379523Y-65090057D02*
X223427142Y-65185295D01*
X223427142Y-65185295D02*
X223427142Y-65328152D01*
X223427142Y-65328152D02*
X223379523Y-65423390D01*
X223379523Y-65423390D02*
X223331904Y-65471009D01*
X223331904Y-65471009D02*
X223236666Y-65518628D01*
X223236666Y-65518628D02*
X222855714Y-65518628D01*
X224379523Y-65994819D02*
X223808095Y-65994819D01*
X224093809Y-65994819D02*
X224093809Y-64994819D01*
X224093809Y-64994819D02*
X223998571Y-65137676D01*
X223998571Y-65137676D02*
X223903333Y-65232914D01*
X223903333Y-65232914D02*
X223808095Y-65280533D01*
X224855714Y-65994819D02*
X225046190Y-65994819D01*
X225046190Y-65994819D02*
X225141428Y-65947200D01*
X225141428Y-65947200D02*
X225189047Y-65899580D01*
X225189047Y-65899580D02*
X225284285Y-65756723D01*
X225284285Y-65756723D02*
X225331904Y-65566247D01*
X225331904Y-65566247D02*
X225331904Y-65185295D01*
X225331904Y-65185295D02*
X225284285Y-65090057D01*
X225284285Y-65090057D02*
X225236666Y-65042438D01*
X225236666Y-65042438D02*
X225141428Y-64994819D01*
X225141428Y-64994819D02*
X224950952Y-64994819D01*
X224950952Y-64994819D02*
X224855714Y-65042438D01*
X224855714Y-65042438D02*
X224808095Y-65090057D01*
X224808095Y-65090057D02*
X224760476Y-65185295D01*
X224760476Y-65185295D02*
X224760476Y-65423390D01*
X224760476Y-65423390D02*
X224808095Y-65518628D01*
X224808095Y-65518628D02*
X224855714Y-65566247D01*
X224855714Y-65566247D02*
X224950952Y-65613866D01*
X224950952Y-65613866D02*
X225141428Y-65613866D01*
X225141428Y-65613866D02*
X225236666Y-65566247D01*
X225236666Y-65566247D02*
X225284285Y-65518628D01*
X225284285Y-65518628D02*
X225331904Y-65423390D01*
X222855714Y-68534819D02*
X222855714Y-67534819D01*
X222855714Y-67534819D02*
X223236666Y-67534819D01*
X223236666Y-67534819D02*
X223331904Y-67582438D01*
X223331904Y-67582438D02*
X223379523Y-67630057D01*
X223379523Y-67630057D02*
X223427142Y-67725295D01*
X223427142Y-67725295D02*
X223427142Y-67868152D01*
X223427142Y-67868152D02*
X223379523Y-67963390D01*
X223379523Y-67963390D02*
X223331904Y-68011009D01*
X223331904Y-68011009D02*
X223236666Y-68058628D01*
X223236666Y-68058628D02*
X222855714Y-68058628D01*
X224379523Y-68534819D02*
X223808095Y-68534819D01*
X224093809Y-68534819D02*
X224093809Y-67534819D01*
X224093809Y-67534819D02*
X223998571Y-67677676D01*
X223998571Y-67677676D02*
X223903333Y-67772914D01*
X223903333Y-67772914D02*
X223808095Y-67820533D01*
X224950952Y-67963390D02*
X224855714Y-67915771D01*
X224855714Y-67915771D02*
X224808095Y-67868152D01*
X224808095Y-67868152D02*
X224760476Y-67772914D01*
X224760476Y-67772914D02*
X224760476Y-67725295D01*
X224760476Y-67725295D02*
X224808095Y-67630057D01*
X224808095Y-67630057D02*
X224855714Y-67582438D01*
X224855714Y-67582438D02*
X224950952Y-67534819D01*
X224950952Y-67534819D02*
X225141428Y-67534819D01*
X225141428Y-67534819D02*
X225236666Y-67582438D01*
X225236666Y-67582438D02*
X225284285Y-67630057D01*
X225284285Y-67630057D02*
X225331904Y-67725295D01*
X225331904Y-67725295D02*
X225331904Y-67772914D01*
X225331904Y-67772914D02*
X225284285Y-67868152D01*
X225284285Y-67868152D02*
X225236666Y-67915771D01*
X225236666Y-67915771D02*
X225141428Y-67963390D01*
X225141428Y-67963390D02*
X224950952Y-67963390D01*
X224950952Y-67963390D02*
X224855714Y-68011009D01*
X224855714Y-68011009D02*
X224808095Y-68058628D01*
X224808095Y-68058628D02*
X224760476Y-68153866D01*
X224760476Y-68153866D02*
X224760476Y-68344342D01*
X224760476Y-68344342D02*
X224808095Y-68439580D01*
X224808095Y-68439580D02*
X224855714Y-68487200D01*
X224855714Y-68487200D02*
X224950952Y-68534819D01*
X224950952Y-68534819D02*
X225141428Y-68534819D01*
X225141428Y-68534819D02*
X225236666Y-68487200D01*
X225236666Y-68487200D02*
X225284285Y-68439580D01*
X225284285Y-68439580D02*
X225331904Y-68344342D01*
X225331904Y-68344342D02*
X225331904Y-68153866D01*
X225331904Y-68153866D02*
X225284285Y-68058628D01*
X225284285Y-68058628D02*
X225236666Y-68011009D01*
X225236666Y-68011009D02*
X225141428Y-67963390D01*
X222855714Y-71074819D02*
X222855714Y-70074819D01*
X222855714Y-70074819D02*
X223236666Y-70074819D01*
X223236666Y-70074819D02*
X223331904Y-70122438D01*
X223331904Y-70122438D02*
X223379523Y-70170057D01*
X223379523Y-70170057D02*
X223427142Y-70265295D01*
X223427142Y-70265295D02*
X223427142Y-70408152D01*
X223427142Y-70408152D02*
X223379523Y-70503390D01*
X223379523Y-70503390D02*
X223331904Y-70551009D01*
X223331904Y-70551009D02*
X223236666Y-70598628D01*
X223236666Y-70598628D02*
X222855714Y-70598628D01*
X224379523Y-71074819D02*
X223808095Y-71074819D01*
X224093809Y-71074819D02*
X224093809Y-70074819D01*
X224093809Y-70074819D02*
X223998571Y-70217676D01*
X223998571Y-70217676D02*
X223903333Y-70312914D01*
X223903333Y-70312914D02*
X223808095Y-70360533D01*
X225284285Y-70074819D02*
X224808095Y-70074819D01*
X224808095Y-70074819D02*
X224760476Y-70551009D01*
X224760476Y-70551009D02*
X224808095Y-70503390D01*
X224808095Y-70503390D02*
X224903333Y-70455771D01*
X224903333Y-70455771D02*
X225141428Y-70455771D01*
X225141428Y-70455771D02*
X225236666Y-70503390D01*
X225236666Y-70503390D02*
X225284285Y-70551009D01*
X225284285Y-70551009D02*
X225331904Y-70646247D01*
X225331904Y-70646247D02*
X225331904Y-70884342D01*
X225331904Y-70884342D02*
X225284285Y-70979580D01*
X225284285Y-70979580D02*
X225236666Y-71027200D01*
X225236666Y-71027200D02*
X225141428Y-71074819D01*
X225141428Y-71074819D02*
X224903333Y-71074819D01*
X224903333Y-71074819D02*
X224808095Y-71027200D01*
X224808095Y-71027200D02*
X224760476Y-70979580D01*
X222855714Y-73614819D02*
X222855714Y-72614819D01*
X222855714Y-72614819D02*
X223236666Y-72614819D01*
X223236666Y-72614819D02*
X223331904Y-72662438D01*
X223331904Y-72662438D02*
X223379523Y-72710057D01*
X223379523Y-72710057D02*
X223427142Y-72805295D01*
X223427142Y-72805295D02*
X223427142Y-72948152D01*
X223427142Y-72948152D02*
X223379523Y-73043390D01*
X223379523Y-73043390D02*
X223331904Y-73091009D01*
X223331904Y-73091009D02*
X223236666Y-73138628D01*
X223236666Y-73138628D02*
X222855714Y-73138628D01*
X224379523Y-73614819D02*
X223808095Y-73614819D01*
X224093809Y-73614819D02*
X224093809Y-72614819D01*
X224093809Y-72614819D02*
X223998571Y-72757676D01*
X223998571Y-72757676D02*
X223903333Y-72852914D01*
X223903333Y-72852914D02*
X223808095Y-72900533D01*
X225236666Y-72948152D02*
X225236666Y-73614819D01*
X224998571Y-72567200D02*
X224760476Y-73281485D01*
X224760476Y-73281485D02*
X225379523Y-73281485D01*
X222855714Y-76154819D02*
X222855714Y-75154819D01*
X222855714Y-75154819D02*
X223236666Y-75154819D01*
X223236666Y-75154819D02*
X223331904Y-75202438D01*
X223331904Y-75202438D02*
X223379523Y-75250057D01*
X223379523Y-75250057D02*
X223427142Y-75345295D01*
X223427142Y-75345295D02*
X223427142Y-75488152D01*
X223427142Y-75488152D02*
X223379523Y-75583390D01*
X223379523Y-75583390D02*
X223331904Y-75631009D01*
X223331904Y-75631009D02*
X223236666Y-75678628D01*
X223236666Y-75678628D02*
X222855714Y-75678628D01*
X224379523Y-76154819D02*
X223808095Y-76154819D01*
X224093809Y-76154819D02*
X224093809Y-75154819D01*
X224093809Y-75154819D02*
X223998571Y-75297676D01*
X223998571Y-75297676D02*
X223903333Y-75392914D01*
X223903333Y-75392914D02*
X223808095Y-75440533D01*
X225236666Y-75154819D02*
X225046190Y-75154819D01*
X225046190Y-75154819D02*
X224950952Y-75202438D01*
X224950952Y-75202438D02*
X224903333Y-75250057D01*
X224903333Y-75250057D02*
X224808095Y-75392914D01*
X224808095Y-75392914D02*
X224760476Y-75583390D01*
X224760476Y-75583390D02*
X224760476Y-75964342D01*
X224760476Y-75964342D02*
X224808095Y-76059580D01*
X224808095Y-76059580D02*
X224855714Y-76107200D01*
X224855714Y-76107200D02*
X224950952Y-76154819D01*
X224950952Y-76154819D02*
X225141428Y-76154819D01*
X225141428Y-76154819D02*
X225236666Y-76107200D01*
X225236666Y-76107200D02*
X225284285Y-76059580D01*
X225284285Y-76059580D02*
X225331904Y-75964342D01*
X225331904Y-75964342D02*
X225331904Y-75726247D01*
X225331904Y-75726247D02*
X225284285Y-75631009D01*
X225284285Y-75631009D02*
X225236666Y-75583390D01*
X225236666Y-75583390D02*
X225141428Y-75535771D01*
X225141428Y-75535771D02*
X224950952Y-75535771D01*
X224950952Y-75535771D02*
X224855714Y-75583390D01*
X224855714Y-75583390D02*
X224808095Y-75631009D01*
X224808095Y-75631009D02*
X224760476Y-75726247D01*
X222855714Y-78694819D02*
X222855714Y-77694819D01*
X222855714Y-77694819D02*
X223236666Y-77694819D01*
X223236666Y-77694819D02*
X223331904Y-77742438D01*
X223331904Y-77742438D02*
X223379523Y-77790057D01*
X223379523Y-77790057D02*
X223427142Y-77885295D01*
X223427142Y-77885295D02*
X223427142Y-78028152D01*
X223427142Y-78028152D02*
X223379523Y-78123390D01*
X223379523Y-78123390D02*
X223331904Y-78171009D01*
X223331904Y-78171009D02*
X223236666Y-78218628D01*
X223236666Y-78218628D02*
X222855714Y-78218628D01*
X224379523Y-78694819D02*
X223808095Y-78694819D01*
X224093809Y-78694819D02*
X224093809Y-77694819D01*
X224093809Y-77694819D02*
X223998571Y-77837676D01*
X223998571Y-77837676D02*
X223903333Y-77932914D01*
X223903333Y-77932914D02*
X223808095Y-77980533D01*
X224998571Y-77694819D02*
X225093809Y-77694819D01*
X225093809Y-77694819D02*
X225189047Y-77742438D01*
X225189047Y-77742438D02*
X225236666Y-77790057D01*
X225236666Y-77790057D02*
X225284285Y-77885295D01*
X225284285Y-77885295D02*
X225331904Y-78075771D01*
X225331904Y-78075771D02*
X225331904Y-78313866D01*
X225331904Y-78313866D02*
X225284285Y-78504342D01*
X225284285Y-78504342D02*
X225236666Y-78599580D01*
X225236666Y-78599580D02*
X225189047Y-78647200D01*
X225189047Y-78647200D02*
X225093809Y-78694819D01*
X225093809Y-78694819D02*
X224998571Y-78694819D01*
X224998571Y-78694819D02*
X224903333Y-78647200D01*
X224903333Y-78647200D02*
X224855714Y-78599580D01*
X224855714Y-78599580D02*
X224808095Y-78504342D01*
X224808095Y-78504342D02*
X224760476Y-78313866D01*
X224760476Y-78313866D02*
X224760476Y-78075771D01*
X224760476Y-78075771D02*
X224808095Y-77885295D01*
X224808095Y-77885295D02*
X224855714Y-77790057D01*
X224855714Y-77790057D02*
X224903333Y-77742438D01*
X224903333Y-77742438D02*
X224998571Y-77694819D01*
X214974819Y-86812969D02*
X213974819Y-86812969D01*
X213974819Y-86812969D02*
X213974819Y-86432017D01*
X213974819Y-86432017D02*
X214022438Y-86336779D01*
X214022438Y-86336779D02*
X214070057Y-86289160D01*
X214070057Y-86289160D02*
X214165295Y-86241541D01*
X214165295Y-86241541D02*
X214308152Y-86241541D01*
X214308152Y-86241541D02*
X214403390Y-86289160D01*
X214403390Y-86289160D02*
X214451009Y-86336779D01*
X214451009Y-86336779D02*
X214498628Y-86432017D01*
X214498628Y-86432017D02*
X214498628Y-86812969D01*
X213974819Y-85908207D02*
X213974819Y-85241541D01*
X213974819Y-85241541D02*
X214974819Y-85670112D01*
X217574819Y-86812969D02*
X216574819Y-86812969D01*
X216574819Y-86812969D02*
X216574819Y-86432017D01*
X216574819Y-86432017D02*
X216622438Y-86336779D01*
X216622438Y-86336779D02*
X216670057Y-86289160D01*
X216670057Y-86289160D02*
X216765295Y-86241541D01*
X216765295Y-86241541D02*
X216908152Y-86241541D01*
X216908152Y-86241541D02*
X217003390Y-86289160D01*
X217003390Y-86289160D02*
X217051009Y-86336779D01*
X217051009Y-86336779D02*
X217098628Y-86432017D01*
X217098628Y-86432017D02*
X217098628Y-86812969D01*
X216574819Y-85384398D02*
X216574819Y-85574874D01*
X216574819Y-85574874D02*
X216622438Y-85670112D01*
X216622438Y-85670112D02*
X216670057Y-85717731D01*
X216670057Y-85717731D02*
X216812914Y-85812969D01*
X216812914Y-85812969D02*
X217003390Y-85860588D01*
X217003390Y-85860588D02*
X217384342Y-85860588D01*
X217384342Y-85860588D02*
X217479580Y-85812969D01*
X217479580Y-85812969D02*
X217527200Y-85765350D01*
X217527200Y-85765350D02*
X217574819Y-85670112D01*
X217574819Y-85670112D02*
X217574819Y-85479636D01*
X217574819Y-85479636D02*
X217527200Y-85384398D01*
X217527200Y-85384398D02*
X217479580Y-85336779D01*
X217479580Y-85336779D02*
X217384342Y-85289160D01*
X217384342Y-85289160D02*
X217146247Y-85289160D01*
X217146247Y-85289160D02*
X217051009Y-85336779D01*
X217051009Y-85336779D02*
X217003390Y-85384398D01*
X217003390Y-85384398D02*
X216955771Y-85479636D01*
X216955771Y-85479636D02*
X216955771Y-85670112D01*
X216955771Y-85670112D02*
X217003390Y-85765350D01*
X217003390Y-85765350D02*
X217051009Y-85812969D01*
X217051009Y-85812969D02*
X217146247Y-85860588D01*
X219204819Y-87860588D02*
X220204819Y-87527255D01*
X220204819Y-87527255D02*
X219204819Y-87193922D01*
X220109580Y-86289160D02*
X220157200Y-86336779D01*
X220157200Y-86336779D02*
X220204819Y-86479636D01*
X220204819Y-86479636D02*
X220204819Y-86574874D01*
X220204819Y-86574874D02*
X220157200Y-86717731D01*
X220157200Y-86717731D02*
X220061961Y-86812969D01*
X220061961Y-86812969D02*
X219966723Y-86860588D01*
X219966723Y-86860588D02*
X219776247Y-86908207D01*
X219776247Y-86908207D02*
X219633390Y-86908207D01*
X219633390Y-86908207D02*
X219442914Y-86860588D01*
X219442914Y-86860588D02*
X219347676Y-86812969D01*
X219347676Y-86812969D02*
X219252438Y-86717731D01*
X219252438Y-86717731D02*
X219204819Y-86574874D01*
X219204819Y-86574874D02*
X219204819Y-86479636D01*
X219204819Y-86479636D02*
X219252438Y-86336779D01*
X219252438Y-86336779D02*
X219300057Y-86289160D01*
X220109580Y-85289160D02*
X220157200Y-85336779D01*
X220157200Y-85336779D02*
X220204819Y-85479636D01*
X220204819Y-85479636D02*
X220204819Y-85574874D01*
X220204819Y-85574874D02*
X220157200Y-85717731D01*
X220157200Y-85717731D02*
X220061961Y-85812969D01*
X220061961Y-85812969D02*
X219966723Y-85860588D01*
X219966723Y-85860588D02*
X219776247Y-85908207D01*
X219776247Y-85908207D02*
X219633390Y-85908207D01*
X219633390Y-85908207D02*
X219442914Y-85860588D01*
X219442914Y-85860588D02*
X219347676Y-85812969D01*
X219347676Y-85812969D02*
X219252438Y-85717731D01*
X219252438Y-85717731D02*
X219204819Y-85574874D01*
X219204819Y-85574874D02*
X219204819Y-85479636D01*
X219204819Y-85479636D02*
X219252438Y-85336779D01*
X219252438Y-85336779D02*
X219300057Y-85289160D01*
X221722438Y-87384398D02*
X221674819Y-87479636D01*
X221674819Y-87479636D02*
X221674819Y-87622493D01*
X221674819Y-87622493D02*
X221722438Y-87765350D01*
X221722438Y-87765350D02*
X221817676Y-87860588D01*
X221817676Y-87860588D02*
X221912914Y-87908207D01*
X221912914Y-87908207D02*
X222103390Y-87955826D01*
X222103390Y-87955826D02*
X222246247Y-87955826D01*
X222246247Y-87955826D02*
X222436723Y-87908207D01*
X222436723Y-87908207D02*
X222531961Y-87860588D01*
X222531961Y-87860588D02*
X222627200Y-87765350D01*
X222627200Y-87765350D02*
X222674819Y-87622493D01*
X222674819Y-87622493D02*
X222674819Y-87527255D01*
X222674819Y-87527255D02*
X222627200Y-87384398D01*
X222627200Y-87384398D02*
X222579580Y-87336779D01*
X222579580Y-87336779D02*
X222246247Y-87336779D01*
X222246247Y-87336779D02*
X222246247Y-87527255D01*
X222674819Y-86908207D02*
X221674819Y-86908207D01*
X221674819Y-86908207D02*
X222674819Y-86336779D01*
X222674819Y-86336779D02*
X221674819Y-86336779D01*
X222674819Y-85860588D02*
X221674819Y-85860588D01*
X221674819Y-85860588D02*
X221674819Y-85622493D01*
X221674819Y-85622493D02*
X221722438Y-85479636D01*
X221722438Y-85479636D02*
X221817676Y-85384398D01*
X221817676Y-85384398D02*
X221912914Y-85336779D01*
X221912914Y-85336779D02*
X222103390Y-85289160D01*
X222103390Y-85289160D02*
X222246247Y-85289160D01*
X222246247Y-85289160D02*
X222436723Y-85336779D01*
X222436723Y-85336779D02*
X222531961Y-85384398D01*
X222531961Y-85384398D02*
X222627200Y-85479636D01*
X222627200Y-85479636D02*
X222674819Y-85622493D01*
X222674819Y-85622493D02*
X222674819Y-85860588D01*
X225174819Y-87765350D02*
X224174819Y-87765350D01*
X224174819Y-87765350D02*
X224174819Y-87384398D01*
X224174819Y-87384398D02*
X224222438Y-87289160D01*
X224222438Y-87289160D02*
X224270057Y-87241541D01*
X224270057Y-87241541D02*
X224365295Y-87193922D01*
X224365295Y-87193922D02*
X224508152Y-87193922D01*
X224508152Y-87193922D02*
X224603390Y-87241541D01*
X224603390Y-87241541D02*
X224651009Y-87289160D01*
X224651009Y-87289160D02*
X224698628Y-87384398D01*
X224698628Y-87384398D02*
X224698628Y-87765350D01*
X225174819Y-86241541D02*
X225174819Y-86812969D01*
X225174819Y-86527255D02*
X224174819Y-86527255D01*
X224174819Y-86527255D02*
X224317676Y-86622493D01*
X224317676Y-86622493D02*
X224412914Y-86717731D01*
X224412914Y-86717731D02*
X224460533Y-86812969D01*
X224508152Y-85384398D02*
X225174819Y-85384398D01*
X224127200Y-85622493D02*
X224841485Y-85860588D01*
X224841485Y-85860588D02*
X224841485Y-85241541D01*
%TO.C,D2*%
D11*
X99250000Y-86000000D02*
X99650000Y-86000000D01*
X99650000Y-86000000D02*
X99650000Y-85450000D01*
X99650000Y-86000000D02*
X99650000Y-86550000D01*
X99650000Y-86000000D02*
X100250000Y-85600000D01*
X100250000Y-85600000D02*
X100250000Y-86400000D01*
X100250000Y-86000000D02*
X100750000Y-86000000D01*
X100250000Y-86400000D02*
X99650000Y-86000000D01*
%TO.C,D7*%
X139250000Y-95000000D02*
X139650000Y-95000000D01*
X139650000Y-95000000D02*
X139650000Y-94450000D01*
X139650000Y-95000000D02*
X139650000Y-95550000D01*
X139650000Y-95000000D02*
X140250000Y-94600000D01*
X140250000Y-94600000D02*
X140250000Y-95400000D01*
X140250000Y-95000000D02*
X140750000Y-95000000D01*
X140250000Y-95400000D02*
X139650000Y-95000000D01*
%TO.C,D1*%
X99250000Y-105000000D02*
X99650000Y-105000000D01*
X99650000Y-105000000D02*
X99650000Y-104450000D01*
X99650000Y-105000000D02*
X99650000Y-105550000D01*
X99650000Y-105000000D02*
X100250000Y-104600000D01*
X100250000Y-104600000D02*
X100250000Y-105400000D01*
X100250000Y-105000000D02*
X100750000Y-105000000D01*
X100250000Y-105400000D02*
X99650000Y-105000000D01*
%TO.C,PWR1*%
D12*
X225825000Y-91600000D02*
X225825000Y-91400000D01*
X225825000Y-94600000D02*
X225825000Y-92900000D01*
X226875000Y-96450000D02*
X227665000Y-96450000D01*
X227665000Y-89550000D02*
X226875000Y-89550000D01*
X228675000Y-95850000D02*
X228675000Y-90150000D01*
%TO.C,D16*%
D11*
X199250000Y-98000000D02*
X199650000Y-98000000D01*
X199650000Y-98000000D02*
X199650000Y-97450000D01*
X199650000Y-98000000D02*
X199650000Y-98550000D01*
X199650000Y-98000000D02*
X200250000Y-97600000D01*
X200250000Y-97600000D02*
X200250000Y-98400000D01*
X200250000Y-98000000D02*
X200750000Y-98000000D01*
X200250000Y-98400000D02*
X199650000Y-98000000D01*
%TO.C,D3*%
X99250000Y-67000000D02*
X99650000Y-67000000D01*
X99650000Y-67000000D02*
X99650000Y-66450000D01*
X99650000Y-67000000D02*
X99650000Y-67550000D01*
X99650000Y-67000000D02*
X100250000Y-66600000D01*
X100250000Y-66600000D02*
X100250000Y-67400000D01*
X100250000Y-67000000D02*
X100750000Y-67000000D01*
X100250000Y-67400000D02*
X99650000Y-67000000D01*
%TO.C,D13*%
X179250000Y-96000000D02*
X179650000Y-96000000D01*
X179650000Y-96000000D02*
X179650000Y-95450000D01*
X179650000Y-96000000D02*
X179650000Y-96550000D01*
X179650000Y-96000000D02*
X180250000Y-95600000D01*
X180250000Y-95600000D02*
X180250000Y-96400000D01*
X180250000Y-96000000D02*
X180750000Y-96000000D01*
X180250000Y-96400000D02*
X179650000Y-96000000D01*
%TO.C,D15*%
X179250000Y-58000000D02*
X179650000Y-58000000D01*
X179650000Y-58000000D02*
X179650000Y-57450000D01*
X179650000Y-58000000D02*
X179650000Y-58550000D01*
X179650000Y-58000000D02*
X180250000Y-57600000D01*
X180250000Y-57600000D02*
X180250000Y-58400000D01*
X180250000Y-58000000D02*
X180750000Y-58000000D01*
X180250000Y-58400000D02*
X179650000Y-58000000D01*
%TO.C,D6*%
X119250000Y-67000000D02*
X119650000Y-67000000D01*
X119650000Y-67000000D02*
X119650000Y-66450000D01*
X119650000Y-67000000D02*
X119650000Y-67550000D01*
X119650000Y-67000000D02*
X120250000Y-66600000D01*
X120250000Y-66600000D02*
X120250000Y-67400000D01*
X120250000Y-67000000D02*
X120750000Y-67000000D01*
X120250000Y-67400000D02*
X119650000Y-67000000D01*
%TO.C,D10*%
X159250000Y-90000000D02*
X159650000Y-90000000D01*
X159650000Y-90000000D02*
X159650000Y-89450000D01*
X159650000Y-90000000D02*
X159650000Y-90550000D01*
X159650000Y-90000000D02*
X160250000Y-89600000D01*
X160250000Y-89600000D02*
X160250000Y-90400000D01*
X160250000Y-90000000D02*
X160750000Y-90000000D01*
X160250000Y-90400000D02*
X159650000Y-90000000D01*
%TO.C,D21*%
X225928754Y-117802190D02*
X226680508Y-118075806D01*
X225962611Y-118878690D02*
X226099419Y-118502813D01*
X226099419Y-118502813D02*
X225582588Y-118314702D01*
X226099419Y-118502813D02*
X225928754Y-117802190D01*
X226099419Y-118502813D02*
X226616250Y-118690924D01*
X226304631Y-117938998D02*
X226475641Y-117469152D01*
X226680508Y-118075806D02*
X226099419Y-118502813D01*
%TO.C,D17*%
X199250000Y-79000000D02*
X199650000Y-79000000D01*
X199650000Y-79000000D02*
X199650000Y-78450000D01*
X199650000Y-79000000D02*
X199650000Y-79550000D01*
X199650000Y-79000000D02*
X200250000Y-78600000D01*
X200250000Y-78600000D02*
X200250000Y-79400000D01*
X200250000Y-79000000D02*
X200750000Y-79000000D01*
X200250000Y-79400000D02*
X199650000Y-79000000D01*
%TO.C,D18*%
X199250000Y-60000000D02*
X199650000Y-60000000D01*
X199650000Y-60000000D02*
X199650000Y-59450000D01*
X199650000Y-60000000D02*
X199650000Y-60550000D01*
X199650000Y-60000000D02*
X200250000Y-59600000D01*
X200250000Y-59600000D02*
X200250000Y-60400000D01*
X200250000Y-60000000D02*
X200750000Y-60000000D01*
X200250000Y-60400000D02*
X199650000Y-60000000D01*
%TO.C,JST1*%
X215200000Y-93000000D02*
X215200000Y-94000000D01*
X215200000Y-96000000D02*
X215200000Y-95000000D01*
X215700000Y-95500000D02*
X214700000Y-95500000D01*
D12*
X216240000Y-91440000D02*
X217240000Y-91440000D01*
X216240000Y-92360000D02*
X216240000Y-91440000D01*
X216240000Y-96640000D02*
X216240000Y-97560000D01*
X216240000Y-97560000D02*
X217240000Y-97560000D01*
X224060000Y-91440000D02*
X223060000Y-91440000D01*
X224060000Y-92440000D02*
X224060000Y-91440000D01*
X224060000Y-96640000D02*
X224060000Y-97560000D01*
X224060000Y-97560000D02*
X223060000Y-97560000D01*
%TO.C,MCU1*%
X210650000Y-48970000D02*
X210650000Y-79570000D01*
X210650000Y-48970000D02*
X213310000Y-48970000D01*
X210650000Y-79570000D02*
X213310000Y-79570000D01*
X213310000Y-48970000D02*
X213310000Y-79570000D01*
X213310000Y-51570000D02*
X210650000Y-51570000D01*
X225890000Y-48970000D02*
X225890000Y-79570000D01*
X225890000Y-48970000D02*
X228550000Y-48970000D01*
X225890000Y-79570000D02*
X228550000Y-79570000D01*
X228550000Y-48970000D02*
X228550000Y-79570000D01*
%TO.C,D14*%
D11*
X179250000Y-77000000D02*
X179650000Y-77000000D01*
X179650000Y-77000000D02*
X179650000Y-76450000D01*
X179650000Y-77000000D02*
X179650000Y-77550000D01*
X179650000Y-77000000D02*
X180250000Y-76600000D01*
X180250000Y-76600000D02*
X180250000Y-77400000D01*
X180250000Y-77000000D02*
X180750000Y-77000000D01*
X180250000Y-77400000D02*
X179650000Y-77000000D01*
%TO.C,D20*%
X198393153Y-119493803D02*
X198787076Y-119563262D01*
X198787076Y-119563262D02*
X198691570Y-120104906D01*
X198787076Y-119563262D02*
X198882583Y-119021618D01*
X198787076Y-119563262D02*
X199447420Y-119273528D01*
X199308502Y-120061374D02*
X198787076Y-119563262D01*
X199377961Y-119667451D02*
X199870365Y-119754275D01*
X199447420Y-119273528D02*
X199308502Y-120061374D01*
%TO.C,D19*%
X179250000Y-117000000D02*
X179650000Y-117000000D01*
X179650000Y-117000000D02*
X179650000Y-116450000D01*
X179650000Y-117000000D02*
X179650000Y-117550000D01*
X179650000Y-117000000D02*
X180250000Y-116600000D01*
X180250000Y-116600000D02*
X180250000Y-117400000D01*
X180250000Y-117000000D02*
X180750000Y-117000000D01*
X180250000Y-117400000D02*
X179650000Y-117000000D01*
%TO.C,D4*%
X119250000Y-105000000D02*
X119650000Y-105000000D01*
X119650000Y-105000000D02*
X119650000Y-104450000D01*
X119650000Y-105000000D02*
X119650000Y-105550000D01*
X119650000Y-105000000D02*
X120250000Y-104600000D01*
X120250000Y-104600000D02*
X120250000Y-105400000D01*
X120250000Y-105000000D02*
X120750000Y-105000000D01*
X120250000Y-105400000D02*
X119650000Y-105000000D01*
%TO.C,D9*%
X139250000Y-57000000D02*
X139650000Y-57000000D01*
X139650000Y-57000000D02*
X139650000Y-56450000D01*
X139650000Y-57000000D02*
X139650000Y-57550000D01*
X139650000Y-57000000D02*
X140250000Y-56600000D01*
X140250000Y-56600000D02*
X140250000Y-57400000D01*
X140250000Y-57000000D02*
X140750000Y-57000000D01*
X140250000Y-57400000D02*
X139650000Y-57000000D01*
%TO.C,D8*%
X139250000Y-76000000D02*
X139650000Y-76000000D01*
X139650000Y-76000000D02*
X139650000Y-75450000D01*
X139650000Y-76000000D02*
X139650000Y-76550000D01*
X139650000Y-76000000D02*
X140250000Y-75600000D01*
X140250000Y-75600000D02*
X140250000Y-76400000D01*
X140250000Y-76000000D02*
X140750000Y-76000000D01*
X140250000Y-76400000D02*
X139650000Y-76000000D01*
%TO.C,D11*%
X159250000Y-71000000D02*
X159650000Y-71000000D01*
X159650000Y-71000000D02*
X159650000Y-70450000D01*
X159650000Y-71000000D02*
X159650000Y-71550000D01*
X159650000Y-71000000D02*
X160250000Y-70600000D01*
X160250000Y-70600000D02*
X160250000Y-71400000D01*
X160250000Y-71000000D02*
X160750000Y-71000000D01*
X160250000Y-71400000D02*
X159650000Y-71000000D01*
%TO.C,D5*%
X119250000Y-86000000D02*
X119650000Y-86000000D01*
X119650000Y-86000000D02*
X119650000Y-85450000D01*
X119650000Y-86000000D02*
X119650000Y-86550000D01*
X119650000Y-86000000D02*
X120250000Y-85600000D01*
X120250000Y-85600000D02*
X120250000Y-86400000D01*
X120250000Y-86000000D02*
X120750000Y-86000000D01*
X120250000Y-86400000D02*
X119650000Y-86000000D01*
%TO.C,D12*%
X159250000Y-52000000D02*
X159650000Y-52000000D01*
X159650000Y-52000000D02*
X159650000Y-51450000D01*
X159650000Y-52000000D02*
X159650000Y-52550000D01*
X159650000Y-52000000D02*
X160250000Y-51600000D01*
X160250000Y-51600000D02*
X160250000Y-52400000D01*
X160250000Y-52000000D02*
X160750000Y-52000000D01*
X160250000Y-52400000D02*
X159650000Y-52000000D01*
%TO.C,DISP1*%
D12*
X213190000Y-81870000D02*
X213190000Y-84530000D01*
X226010000Y-81870000D02*
X213190000Y-81870000D01*
X226010000Y-81870000D02*
X226010000Y-84530000D01*
X226010000Y-84530000D02*
X213190000Y-84530000D01*
%TO.C,RST1*%
D11*
X228677520Y-103501117D02*
X228523605Y-103304114D01*
X228720607Y-103150199D02*
X228523605Y-103304114D01*
X231084640Y-101303215D02*
X231281642Y-101149299D01*
X231263298Y-106810762D02*
X231417214Y-107007765D01*
X231435558Y-101346302D02*
X231281642Y-101149299D01*
X231614216Y-106853849D02*
X231417214Y-107007765D01*
X233978249Y-105006865D02*
X234175251Y-104852950D01*
X234021336Y-104655947D02*
X234175251Y-104852950D01*
%TD*%
M02*
