<svg width="143.595mm" height="94.228mm" viewBox="0 0 143.595 94.228" xmlns="http://www.w3.org/2000/svg"><g id="svgGroup" stroke-linecap="round" fill-rule="evenodd" font-size="9pt" stroke="#000" stroke-width="0.25mm" fill="none" style="stroke:#000;stroke-width:0.25mm;fill:none"><path d="M 117.446 88.071 L 126.681 62.7 L 143.595 68.856 L 134.361 94.228 L 117.446 88.071 Z M 101.7 66.274 L 119.426 69.4 L 116.3 87.126 L 98.574 84 L 101.7 66.274 Z M 0 53 L 18 53 L 18 71 L 0 71 L 0 53 Z M 0 34 L 18 34 L 18 52 L 0 52 L 0 34 Z M 0 15 L 18 15 L 18 33 L 0 33 L 0 15 Z M 20 53 L 38 53 L 38 71 L 20 71 L 20 53 Z M 20 34 L 38 34 L 38 52 L 20 52 L 20 34 Z M 20 15 L 38 15 L 38 33 L 20 33 L 20 15 Z M 40 43 L 58 43 L 58 61 L 40 61 L 40 43 Z M 40 24 L 58 24 L 58 42 L 40 42 L 40 24 Z M 40 5 L 58 5 L 58 23 L 40 23 L 40 5 Z M 60 38 L 78 38 L 78 56 L 60 56 L 60 38 Z M 60 19 L 78 19 L 78 37 L 60 37 L 60 19 Z M 60 0 L 78 0 L 78 18 L 60 18 L 60 0 Z M 80 44 L 98 44 L 98 62 L 80 62 L 80 44 Z M 80 25 L 98 25 L 98 43 L 80 43 L 80 25 Z M 80 6 L 98 6 L 98 24 L 80 24 L 80 6 Z M 100 46 L 118 46 L 118 64 L 100 64 L 100 46 Z M 100 27 L 118 27 L 118 45 L 100 45 L 100 27 Z M 100 8 L 118 8 L 118 26 L 100 26 L 100 8 Z M 80 65 L 98 65 L 98 83 L 80 83 L 80 65 Z M 119.6 16 L 137.6 16 L 137.6 34 L 119.6 34 L 119.6 16 Z M 119.6 19.5 L 137.6 19.5 L 137.6 37.5 L 119.6 37.5 L 119.6 19.5 Z" vector-effect="non-scaling-stroke"/></g></svg>