%TF.GenerationSoftware,KiCad,Pcbnew,10.0.0*%
%TF.CreationDate,2026-04-13T15:50:50-04:00*%
%TF.ProjectId,mulloy42_right,6d756c6c-6f79-4343-925f-72696768742e,0.1*%
%TF.SameCoordinates,Original*%
%TF.FileFunction,Paste,Bot*%
%TF.FilePolarity,Positive*%
%FSLAX46Y46*%
G04 Gerber Fmt 4.6, Leading zero omitted, Abs format (unit mm)*
G04 Created by KiCad (PCBNEW 10.0.0) date 2026-04-13 15:50:50*
%MOMM*%
%LPD*%
G01*
G04 APERTURE LIST*
G04 Aperture macros list*
%AMRotRect*
0 Rectangle, with rotation*
0 The origin of the aperture is its center*
0 $1 length*
0 $2 width*
0 $3 Rotation angle, in degrees counterclockwise*
0 Add horizontal line*
21,1,$1,$2,0,0,$3*%
G04 Aperture macros list end*
%ADD10R,2.600000X2.600000*%
%ADD11R,0.900000X1.200000*%
%ADD12RotRect,0.900000X1.200000X10.000000*%
%ADD13RotRect,2.600000X2.600000X10.000000*%
%ADD14RotRect,0.900000X1.200000X290.000000*%
%ADD15RotRect,2.600000X2.600000X290.000000*%
G04 APERTURE END LIST*
D10*
%TO.C,S32*%
X218975000Y-95650000D03*
X230525000Y-97850000D03*
%TD*%
D11*
%TO.C,D38*%
X180600000Y-114600000D03*
X183900000Y-114600000D03*
%TD*%
D10*
%TO.C,S25*%
X258975000Y-129650000D03*
X270525000Y-131850000D03*
%TD*%
D11*
%TO.C,D26*%
X260600000Y-121600000D03*
X263900000Y-121600000D03*
%TD*%
%TO.C,D25*%
X260600000Y-140600000D03*
X263900000Y-140600000D03*
%TD*%
D10*
%TO.C,S31*%
X218975000Y-114650000D03*
X230525000Y-116850000D03*
%TD*%
D11*
%TO.C,D39*%
X180600000Y-95600000D03*
X183900000Y-95600000D03*
%TD*%
D10*
%TO.C,S35*%
X198975000Y-101650000D03*
X210525000Y-103850000D03*
%TD*%
%TO.C,S26*%
X258975000Y-110650000D03*
X270525000Y-112850000D03*
%TD*%
%TO.C,S27*%
X258975000Y-91650000D03*
X270525000Y-93850000D03*
%TD*%
%TO.C,S33*%
X218975000Y-76650000D03*
X230525000Y-78850000D03*
%TD*%
%TO.C,S38*%
X178975000Y-103650000D03*
X190525000Y-105850000D03*
%TD*%
D11*
%TO.C,D35*%
X200600000Y-112600000D03*
X203900000Y-112600000D03*
%TD*%
%TO.C,D40*%
X200600000Y-152600000D03*
X203900000Y-152600000D03*
%TD*%
D12*
%TO.C,D41*%
X181493308Y-155510558D03*
X184743174Y-154937520D03*
%TD*%
D11*
%TO.C,D22*%
X280600000Y-140600000D03*
X283900000Y-140600000D03*
%TD*%
%TO.C,D24*%
X280600000Y-102600000D03*
X283900000Y-102600000D03*
%TD*%
D10*
%TO.C,S37*%
X178975000Y-122650000D03*
X190525000Y-124850000D03*
%TD*%
%TO.C,S24*%
X278975000Y-91650000D03*
X290525000Y-93850000D03*
%TD*%
%TO.C,S40*%
X198975000Y-141650000D03*
X210525000Y-143850000D03*
%TD*%
%TO.C,S36*%
X198975000Y-82650000D03*
X210525000Y-84850000D03*
%TD*%
D13*
%TO.C,S41*%
X177991548Y-145009092D03*
X189748103Y-145170032D03*
%TD*%
D11*
%TO.C,D29*%
X240600000Y-111600000D03*
X243900000Y-111600000D03*
%TD*%
%TO.C,D37*%
X180600000Y-133600000D03*
X183900000Y-133600000D03*
%TD*%
D10*
%TO.C,S30*%
X238975000Y-81650000D03*
X250525000Y-83850000D03*
%TD*%
D11*
%TO.C,D28*%
X240600000Y-130600000D03*
X243900000Y-130600000D03*
%TD*%
%TO.C,D31*%
X220600000Y-125600000D03*
X223900000Y-125600000D03*
%TD*%
D10*
%TO.C,S39*%
X178975000Y-84650000D03*
X190525000Y-86850000D03*
%TD*%
%TO.C,S28*%
X238975000Y-119650000D03*
X250525000Y-121850000D03*
%TD*%
%TO.C,S29*%
X238975000Y-100650000D03*
X250525000Y-102850000D03*
%TD*%
%TO.C,S22*%
X278975000Y-129650000D03*
X290525000Y-131850000D03*
%TD*%
D11*
%TO.C,D23*%
X280600000Y-121600000D03*
X283900000Y-121600000D03*
%TD*%
D10*
%TO.C,S23*%
X278975000Y-110650000D03*
X290525000Y-112850000D03*
%TD*%
D11*
%TO.C,D30*%
X240600000Y-92600000D03*
X243900000Y-92600000D03*
%TD*%
%TO.C,D33*%
X220600000Y-87600000D03*
X223900000Y-87600000D03*
%TD*%
D14*
%TO.C,D42*%
X155466541Y-152223428D03*
X156595207Y-155324414D03*
%TD*%
D15*
%TO.C,S42*%
X165200392Y-146951307D03*
X167083401Y-158557201D03*
%TD*%
D11*
%TO.C,D27*%
X260600000Y-102600000D03*
X263900000Y-102600000D03*
%TD*%
D10*
%TO.C,S34*%
X198975000Y-120650000D03*
X210525000Y-122850000D03*
%TD*%
D11*
%TO.C,D34*%
X200600000Y-131600000D03*
X203900000Y-131600000D03*
%TD*%
%TO.C,D32*%
X220600000Y-106600000D03*
X223900000Y-106600000D03*
%TD*%
%TO.C,D36*%
X200600000Y-93600000D03*
X203900000Y-93600000D03*
%TD*%
M02*
