%TF.GenerationSoftware,KiCad,Pcbnew,10.0.0*%
%TF.CreationDate,2026-04-13T15:50:50-04:00*%
%TF.ProjectId,mulloy42_right,6d756c6c-6f79-4343-925f-72696768742e,0.1*%
%TF.SameCoordinates,Original*%
%TF.FileFunction,Profile,NP*%
%FSLAX46Y46*%
G04 Gerber Fmt 4.6, Leading zero omitted, Abs format (unit mm)*
G04 Created by KiCad (PCBNEW 10.0.0) date 2026-04-13 15:50:50*
%MOMM*%
%LPD*%
G01*
G04 APERTURE LIST*
%TA.AperFunction,Profile*%
%ADD10C,0.150000*%
%TD*%
G04 APERTURE END LIST*
D10*
X147048690Y-142252692D02*
G75*
G02*
X147345371Y-140345952I1879610J683992D01*
G01*
X147048690Y-142252692D02*
X156255632Y-167548560D01*
X152332714Y-133890149D02*
X147345361Y-140345944D01*
X152750000Y-83100000D02*
X152750000Y-132667440D01*
X152750000Y-83100000D02*
G75*
G02*
X154750000Y-81100000I2000000J0D01*
G01*
X152750000Y-132667440D02*
G75*
G02*
X152332727Y-133890159I-2000200J40D01*
G01*
X158799375Y-168750952D02*
G75*
G02*
X156255657Y-167548551I-664375J1886352D01*
G01*
X158799375Y-168750952D02*
X174316060Y-163286341D01*
X174316060Y-163286341D02*
G75*
G02*
X174448403Y-163244833I663340J-1883259D01*
G01*
X174448403Y-163244832D02*
X193528239Y-157979762D01*
X192250000Y-79100000D02*
X192250000Y-81100000D01*
X192250000Y-81100000D02*
X154750000Y-81100000D01*
X193528239Y-157979762D02*
G75*
G02*
X193975230Y-157909522I531861J-1927238D01*
G01*
X193975230Y-157909512D02*
X211085024Y-157181483D01*
X209500000Y-79100000D02*
X192250000Y-79100000D01*
X211500000Y-75100000D02*
X211500000Y-77100000D01*
X211500000Y-75100000D02*
G75*
G02*
X213500000Y-73100000I2000000J0D01*
G01*
X211500000Y-77100000D02*
G75*
G02*
X209500000Y-79100000I-2000000J0D01*
G01*
X213000000Y-132100000D02*
G75*
G02*
X215000000Y-130100000I2000000J0D01*
G01*
X213000000Y-155183291D02*
G75*
G02*
X211085024Y-157181492I-2000000J-9D01*
G01*
X213000000Y-155183291D02*
X213000000Y-132100000D01*
X215000000Y-130100000D02*
X230250000Y-130100000D01*
X230250000Y-73100000D02*
X213500000Y-73100000D01*
X230250000Y-73100000D02*
G75*
G02*
X232250000Y-75100000I0J-2000000D01*
G01*
X230250000Y-130100000D02*
G75*
G02*
X232250000Y-132100000I0J-2000000D01*
G01*
X232250000Y-76100000D02*
X232250000Y-75100000D01*
X232250000Y-132100000D02*
X232250000Y-133100000D01*
X234250000Y-78100000D02*
G75*
G02*
X232250000Y-76100000I0J2000000D01*
G01*
X234250000Y-135100000D02*
G75*
G02*
X232250000Y-133100000I0J2000000D01*
G01*
X234250000Y-135100000D02*
X250250000Y-135100000D01*
X250250000Y-135100000D02*
G75*
G02*
X252250000Y-137100000I0J-2000000D01*
G01*
X251000000Y-78100000D02*
X234250000Y-78100000D01*
X251000000Y-78100000D02*
G75*
G02*
X253000000Y-80100000I0J-2000000D01*
G01*
X252250000Y-137100000D02*
X252250000Y-143100000D01*
X253000000Y-86100000D02*
X253000000Y-80100000D01*
X254250000Y-145100000D02*
G75*
G02*
X252250000Y-143100000I0J2000000D01*
G01*
X254250000Y-145100000D02*
X291000000Y-145100000D01*
X255000000Y-88100000D02*
G75*
G02*
X253000000Y-86100000I0J2000000D01*
G01*
X291000000Y-88100000D02*
X255000000Y-88100000D01*
X291000000Y-88100000D02*
G75*
G02*
X293000000Y-90100000I0J-2000000D01*
G01*
X293000000Y-143100000D02*
G75*
G02*
X291000000Y-145100000I-2000000J0D01*
G01*
X293000000Y-143100000D02*
X293000000Y-90100000D01*
M02*
