%TF.GenerationSoftware,KiCad,Pcbnew,10.0.0*%
%TF.CreationDate,2026-04-13T15:50:50-04:00*%
%TF.ProjectId,mulloy42_right,6d756c6c-6f79-4343-925f-72696768742e,0.1*%
%TF.SameCoordinates,Original*%
%TF.FileFunction,Legend,Top*%
%TF.FilePolarity,Positive*%
%FSLAX46Y46*%
G04 Gerber Fmt 4.6, Leading zero omitted, Abs format (unit mm)*
G04 Created by KiCad (PCBNEW 10.0.0) date 2026-04-13 15:50:50*
%MOMM*%
%LPD*%
G01*
G04 APERTURE LIST*
%ADD10C,0.150000*%
%ADD11C,0.100000*%
%ADD12C,0.120000*%
G04 APERTURE END LIST*
D10*
X157441905Y-86354819D02*
X157441905Y-85354819D01*
X157441905Y-85354819D02*
X157822857Y-85354819D01*
X157822857Y-85354819D02*
X157918095Y-85402438D01*
X157918095Y-85402438D02*
X157965714Y-85450057D01*
X157965714Y-85450057D02*
X158013333Y-85545295D01*
X158013333Y-85545295D02*
X158013333Y-85688152D01*
X158013333Y-85688152D02*
X157965714Y-85783390D01*
X157965714Y-85783390D02*
X157918095Y-85831009D01*
X157918095Y-85831009D02*
X157822857Y-85878628D01*
X157822857Y-85878628D02*
X157441905Y-85878628D01*
X158965714Y-86354819D02*
X158394286Y-86354819D01*
X158680000Y-86354819D02*
X158680000Y-85354819D01*
X158680000Y-85354819D02*
X158584762Y-85497676D01*
X158584762Y-85497676D02*
X158489524Y-85592914D01*
X158489524Y-85592914D02*
X158394286Y-85640533D01*
X157441905Y-88894819D02*
X157441905Y-87894819D01*
X157441905Y-87894819D02*
X157822857Y-87894819D01*
X157822857Y-87894819D02*
X157918095Y-87942438D01*
X157918095Y-87942438D02*
X157965714Y-87990057D01*
X157965714Y-87990057D02*
X158013333Y-88085295D01*
X158013333Y-88085295D02*
X158013333Y-88228152D01*
X158013333Y-88228152D02*
X157965714Y-88323390D01*
X157965714Y-88323390D02*
X157918095Y-88371009D01*
X157918095Y-88371009D02*
X157822857Y-88418628D01*
X157822857Y-88418628D02*
X157441905Y-88418628D01*
X158632381Y-87894819D02*
X158727619Y-87894819D01*
X158727619Y-87894819D02*
X158822857Y-87942438D01*
X158822857Y-87942438D02*
X158870476Y-87990057D01*
X158870476Y-87990057D02*
X158918095Y-88085295D01*
X158918095Y-88085295D02*
X158965714Y-88275771D01*
X158965714Y-88275771D02*
X158965714Y-88513866D01*
X158965714Y-88513866D02*
X158918095Y-88704342D01*
X158918095Y-88704342D02*
X158870476Y-88799580D01*
X158870476Y-88799580D02*
X158822857Y-88847200D01*
X158822857Y-88847200D02*
X158727619Y-88894819D01*
X158727619Y-88894819D02*
X158632381Y-88894819D01*
X158632381Y-88894819D02*
X158537143Y-88847200D01*
X158537143Y-88847200D02*
X158489524Y-88799580D01*
X158489524Y-88799580D02*
X158441905Y-88704342D01*
X158441905Y-88704342D02*
X158394286Y-88513866D01*
X158394286Y-88513866D02*
X158394286Y-88275771D01*
X158394286Y-88275771D02*
X158441905Y-88085295D01*
X158441905Y-88085295D02*
X158489524Y-87990057D01*
X158489524Y-87990057D02*
X158537143Y-87942438D01*
X158537143Y-87942438D02*
X158632381Y-87894819D01*
X157418095Y-90482438D02*
X157322857Y-90434819D01*
X157322857Y-90434819D02*
X157180000Y-90434819D01*
X157180000Y-90434819D02*
X157037143Y-90482438D01*
X157037143Y-90482438D02*
X156941905Y-90577676D01*
X156941905Y-90577676D02*
X156894286Y-90672914D01*
X156894286Y-90672914D02*
X156846667Y-90863390D01*
X156846667Y-90863390D02*
X156846667Y-91006247D01*
X156846667Y-91006247D02*
X156894286Y-91196723D01*
X156894286Y-91196723D02*
X156941905Y-91291961D01*
X156941905Y-91291961D02*
X157037143Y-91387200D01*
X157037143Y-91387200D02*
X157180000Y-91434819D01*
X157180000Y-91434819D02*
X157275238Y-91434819D01*
X157275238Y-91434819D02*
X157418095Y-91387200D01*
X157418095Y-91387200D02*
X157465714Y-91339580D01*
X157465714Y-91339580D02*
X157465714Y-91006247D01*
X157465714Y-91006247D02*
X157275238Y-91006247D01*
X157894286Y-91434819D02*
X157894286Y-90434819D01*
X157894286Y-90434819D02*
X158465714Y-91434819D01*
X158465714Y-91434819D02*
X158465714Y-90434819D01*
X158941905Y-91434819D02*
X158941905Y-90434819D01*
X158941905Y-90434819D02*
X159180000Y-90434819D01*
X159180000Y-90434819D02*
X159322857Y-90482438D01*
X159322857Y-90482438D02*
X159418095Y-90577676D01*
X159418095Y-90577676D02*
X159465714Y-90672914D01*
X159465714Y-90672914D02*
X159513333Y-90863390D01*
X159513333Y-90863390D02*
X159513333Y-91006247D01*
X159513333Y-91006247D02*
X159465714Y-91196723D01*
X159465714Y-91196723D02*
X159418095Y-91291961D01*
X159418095Y-91291961D02*
X159322857Y-91387200D01*
X159322857Y-91387200D02*
X159180000Y-91434819D01*
X159180000Y-91434819D02*
X158941905Y-91434819D01*
X157418095Y-93022438D02*
X157322857Y-92974819D01*
X157322857Y-92974819D02*
X157180000Y-92974819D01*
X157180000Y-92974819D02*
X157037143Y-93022438D01*
X157037143Y-93022438D02*
X156941905Y-93117676D01*
X156941905Y-93117676D02*
X156894286Y-93212914D01*
X156894286Y-93212914D02*
X156846667Y-93403390D01*
X156846667Y-93403390D02*
X156846667Y-93546247D01*
X156846667Y-93546247D02*
X156894286Y-93736723D01*
X156894286Y-93736723D02*
X156941905Y-93831961D01*
X156941905Y-93831961D02*
X157037143Y-93927200D01*
X157037143Y-93927200D02*
X157180000Y-93974819D01*
X157180000Y-93974819D02*
X157275238Y-93974819D01*
X157275238Y-93974819D02*
X157418095Y-93927200D01*
X157418095Y-93927200D02*
X157465714Y-93879580D01*
X157465714Y-93879580D02*
X157465714Y-93546247D01*
X157465714Y-93546247D02*
X157275238Y-93546247D01*
X157894286Y-93974819D02*
X157894286Y-92974819D01*
X157894286Y-92974819D02*
X158465714Y-93974819D01*
X158465714Y-93974819D02*
X158465714Y-92974819D01*
X158941905Y-93974819D02*
X158941905Y-92974819D01*
X158941905Y-92974819D02*
X159180000Y-92974819D01*
X159180000Y-92974819D02*
X159322857Y-93022438D01*
X159322857Y-93022438D02*
X159418095Y-93117676D01*
X159418095Y-93117676D02*
X159465714Y-93212914D01*
X159465714Y-93212914D02*
X159513333Y-93403390D01*
X159513333Y-93403390D02*
X159513333Y-93546247D01*
X159513333Y-93546247D02*
X159465714Y-93736723D01*
X159465714Y-93736723D02*
X159418095Y-93831961D01*
X159418095Y-93831961D02*
X159322857Y-93927200D01*
X159322857Y-93927200D02*
X159180000Y-93974819D01*
X159180000Y-93974819D02*
X158941905Y-93974819D01*
X157441905Y-96514819D02*
X157441905Y-95514819D01*
X157441905Y-95514819D02*
X157822857Y-95514819D01*
X157822857Y-95514819D02*
X157918095Y-95562438D01*
X157918095Y-95562438D02*
X157965714Y-95610057D01*
X157965714Y-95610057D02*
X158013333Y-95705295D01*
X158013333Y-95705295D02*
X158013333Y-95848152D01*
X158013333Y-95848152D02*
X157965714Y-95943390D01*
X157965714Y-95943390D02*
X157918095Y-95991009D01*
X157918095Y-95991009D02*
X157822857Y-96038628D01*
X157822857Y-96038628D02*
X157441905Y-96038628D01*
X158394286Y-95610057D02*
X158441905Y-95562438D01*
X158441905Y-95562438D02*
X158537143Y-95514819D01*
X158537143Y-95514819D02*
X158775238Y-95514819D01*
X158775238Y-95514819D02*
X158870476Y-95562438D01*
X158870476Y-95562438D02*
X158918095Y-95610057D01*
X158918095Y-95610057D02*
X158965714Y-95705295D01*
X158965714Y-95705295D02*
X158965714Y-95800533D01*
X158965714Y-95800533D02*
X158918095Y-95943390D01*
X158918095Y-95943390D02*
X158346667Y-96514819D01*
X158346667Y-96514819D02*
X158965714Y-96514819D01*
X157441905Y-99054819D02*
X157441905Y-98054819D01*
X157441905Y-98054819D02*
X157822857Y-98054819D01*
X157822857Y-98054819D02*
X157918095Y-98102438D01*
X157918095Y-98102438D02*
X157965714Y-98150057D01*
X157965714Y-98150057D02*
X158013333Y-98245295D01*
X158013333Y-98245295D02*
X158013333Y-98388152D01*
X158013333Y-98388152D02*
X157965714Y-98483390D01*
X157965714Y-98483390D02*
X157918095Y-98531009D01*
X157918095Y-98531009D02*
X157822857Y-98578628D01*
X157822857Y-98578628D02*
X157441905Y-98578628D01*
X158346667Y-98054819D02*
X158965714Y-98054819D01*
X158965714Y-98054819D02*
X158632381Y-98435771D01*
X158632381Y-98435771D02*
X158775238Y-98435771D01*
X158775238Y-98435771D02*
X158870476Y-98483390D01*
X158870476Y-98483390D02*
X158918095Y-98531009D01*
X158918095Y-98531009D02*
X158965714Y-98626247D01*
X158965714Y-98626247D02*
X158965714Y-98864342D01*
X158965714Y-98864342D02*
X158918095Y-98959580D01*
X158918095Y-98959580D02*
X158870476Y-99007200D01*
X158870476Y-99007200D02*
X158775238Y-99054819D01*
X158775238Y-99054819D02*
X158489524Y-99054819D01*
X158489524Y-99054819D02*
X158394286Y-99007200D01*
X158394286Y-99007200D02*
X158346667Y-98959580D01*
X157441905Y-101594819D02*
X157441905Y-100594819D01*
X157441905Y-100594819D02*
X157822857Y-100594819D01*
X157822857Y-100594819D02*
X157918095Y-100642438D01*
X157918095Y-100642438D02*
X157965714Y-100690057D01*
X157965714Y-100690057D02*
X158013333Y-100785295D01*
X158013333Y-100785295D02*
X158013333Y-100928152D01*
X158013333Y-100928152D02*
X157965714Y-101023390D01*
X157965714Y-101023390D02*
X157918095Y-101071009D01*
X157918095Y-101071009D02*
X157822857Y-101118628D01*
X157822857Y-101118628D02*
X157441905Y-101118628D01*
X158870476Y-100928152D02*
X158870476Y-101594819D01*
X158632381Y-100547200D02*
X158394286Y-101261485D01*
X158394286Y-101261485D02*
X159013333Y-101261485D01*
X157441905Y-104134819D02*
X157441905Y-103134819D01*
X157441905Y-103134819D02*
X157822857Y-103134819D01*
X157822857Y-103134819D02*
X157918095Y-103182438D01*
X157918095Y-103182438D02*
X157965714Y-103230057D01*
X157965714Y-103230057D02*
X158013333Y-103325295D01*
X158013333Y-103325295D02*
X158013333Y-103468152D01*
X158013333Y-103468152D02*
X157965714Y-103563390D01*
X157965714Y-103563390D02*
X157918095Y-103611009D01*
X157918095Y-103611009D02*
X157822857Y-103658628D01*
X157822857Y-103658628D02*
X157441905Y-103658628D01*
X158918095Y-103134819D02*
X158441905Y-103134819D01*
X158441905Y-103134819D02*
X158394286Y-103611009D01*
X158394286Y-103611009D02*
X158441905Y-103563390D01*
X158441905Y-103563390D02*
X158537143Y-103515771D01*
X158537143Y-103515771D02*
X158775238Y-103515771D01*
X158775238Y-103515771D02*
X158870476Y-103563390D01*
X158870476Y-103563390D02*
X158918095Y-103611009D01*
X158918095Y-103611009D02*
X158965714Y-103706247D01*
X158965714Y-103706247D02*
X158965714Y-103944342D01*
X158965714Y-103944342D02*
X158918095Y-104039580D01*
X158918095Y-104039580D02*
X158870476Y-104087200D01*
X158870476Y-104087200D02*
X158775238Y-104134819D01*
X158775238Y-104134819D02*
X158537143Y-104134819D01*
X158537143Y-104134819D02*
X158441905Y-104087200D01*
X158441905Y-104087200D02*
X158394286Y-104039580D01*
X157441905Y-106674819D02*
X157441905Y-105674819D01*
X157441905Y-105674819D02*
X157822857Y-105674819D01*
X157822857Y-105674819D02*
X157918095Y-105722438D01*
X157918095Y-105722438D02*
X157965714Y-105770057D01*
X157965714Y-105770057D02*
X158013333Y-105865295D01*
X158013333Y-105865295D02*
X158013333Y-106008152D01*
X158013333Y-106008152D02*
X157965714Y-106103390D01*
X157965714Y-106103390D02*
X157918095Y-106151009D01*
X157918095Y-106151009D02*
X157822857Y-106198628D01*
X157822857Y-106198628D02*
X157441905Y-106198628D01*
X158870476Y-105674819D02*
X158680000Y-105674819D01*
X158680000Y-105674819D02*
X158584762Y-105722438D01*
X158584762Y-105722438D02*
X158537143Y-105770057D01*
X158537143Y-105770057D02*
X158441905Y-105912914D01*
X158441905Y-105912914D02*
X158394286Y-106103390D01*
X158394286Y-106103390D02*
X158394286Y-106484342D01*
X158394286Y-106484342D02*
X158441905Y-106579580D01*
X158441905Y-106579580D02*
X158489524Y-106627200D01*
X158489524Y-106627200D02*
X158584762Y-106674819D01*
X158584762Y-106674819D02*
X158775238Y-106674819D01*
X158775238Y-106674819D02*
X158870476Y-106627200D01*
X158870476Y-106627200D02*
X158918095Y-106579580D01*
X158918095Y-106579580D02*
X158965714Y-106484342D01*
X158965714Y-106484342D02*
X158965714Y-106246247D01*
X158965714Y-106246247D02*
X158918095Y-106151009D01*
X158918095Y-106151009D02*
X158870476Y-106103390D01*
X158870476Y-106103390D02*
X158775238Y-106055771D01*
X158775238Y-106055771D02*
X158584762Y-106055771D01*
X158584762Y-106055771D02*
X158489524Y-106103390D01*
X158489524Y-106103390D02*
X158441905Y-106151009D01*
X158441905Y-106151009D02*
X158394286Y-106246247D01*
X157441905Y-109214819D02*
X157441905Y-108214819D01*
X157441905Y-108214819D02*
X157822857Y-108214819D01*
X157822857Y-108214819D02*
X157918095Y-108262438D01*
X157918095Y-108262438D02*
X157965714Y-108310057D01*
X157965714Y-108310057D02*
X158013333Y-108405295D01*
X158013333Y-108405295D02*
X158013333Y-108548152D01*
X158013333Y-108548152D02*
X157965714Y-108643390D01*
X157965714Y-108643390D02*
X157918095Y-108691009D01*
X157918095Y-108691009D02*
X157822857Y-108738628D01*
X157822857Y-108738628D02*
X157441905Y-108738628D01*
X158346667Y-108214819D02*
X159013333Y-108214819D01*
X159013333Y-108214819D02*
X158584762Y-109214819D01*
X157441905Y-111754819D02*
X157441905Y-110754819D01*
X157441905Y-110754819D02*
X157822857Y-110754819D01*
X157822857Y-110754819D02*
X157918095Y-110802438D01*
X157918095Y-110802438D02*
X157965714Y-110850057D01*
X157965714Y-110850057D02*
X158013333Y-110945295D01*
X158013333Y-110945295D02*
X158013333Y-111088152D01*
X158013333Y-111088152D02*
X157965714Y-111183390D01*
X157965714Y-111183390D02*
X157918095Y-111231009D01*
X157918095Y-111231009D02*
X157822857Y-111278628D01*
X157822857Y-111278628D02*
X157441905Y-111278628D01*
X158584762Y-111183390D02*
X158489524Y-111135771D01*
X158489524Y-111135771D02*
X158441905Y-111088152D01*
X158441905Y-111088152D02*
X158394286Y-110992914D01*
X158394286Y-110992914D02*
X158394286Y-110945295D01*
X158394286Y-110945295D02*
X158441905Y-110850057D01*
X158441905Y-110850057D02*
X158489524Y-110802438D01*
X158489524Y-110802438D02*
X158584762Y-110754819D01*
X158584762Y-110754819D02*
X158775238Y-110754819D01*
X158775238Y-110754819D02*
X158870476Y-110802438D01*
X158870476Y-110802438D02*
X158918095Y-110850057D01*
X158918095Y-110850057D02*
X158965714Y-110945295D01*
X158965714Y-110945295D02*
X158965714Y-110992914D01*
X158965714Y-110992914D02*
X158918095Y-111088152D01*
X158918095Y-111088152D02*
X158870476Y-111135771D01*
X158870476Y-111135771D02*
X158775238Y-111183390D01*
X158775238Y-111183390D02*
X158584762Y-111183390D01*
X158584762Y-111183390D02*
X158489524Y-111231009D01*
X158489524Y-111231009D02*
X158441905Y-111278628D01*
X158441905Y-111278628D02*
X158394286Y-111373866D01*
X158394286Y-111373866D02*
X158394286Y-111564342D01*
X158394286Y-111564342D02*
X158441905Y-111659580D01*
X158441905Y-111659580D02*
X158489524Y-111707200D01*
X158489524Y-111707200D02*
X158584762Y-111754819D01*
X158584762Y-111754819D02*
X158775238Y-111754819D01*
X158775238Y-111754819D02*
X158870476Y-111707200D01*
X158870476Y-111707200D02*
X158918095Y-111659580D01*
X158918095Y-111659580D02*
X158965714Y-111564342D01*
X158965714Y-111564342D02*
X158965714Y-111373866D01*
X158965714Y-111373866D02*
X158918095Y-111278628D01*
X158918095Y-111278628D02*
X158870476Y-111231009D01*
X158870476Y-111231009D02*
X158775238Y-111183390D01*
X157441905Y-114294819D02*
X157441905Y-113294819D01*
X157441905Y-113294819D02*
X157822857Y-113294819D01*
X157822857Y-113294819D02*
X157918095Y-113342438D01*
X157918095Y-113342438D02*
X157965714Y-113390057D01*
X157965714Y-113390057D02*
X158013333Y-113485295D01*
X158013333Y-113485295D02*
X158013333Y-113628152D01*
X158013333Y-113628152D02*
X157965714Y-113723390D01*
X157965714Y-113723390D02*
X157918095Y-113771009D01*
X157918095Y-113771009D02*
X157822857Y-113818628D01*
X157822857Y-113818628D02*
X157441905Y-113818628D01*
X158489524Y-114294819D02*
X158680000Y-114294819D01*
X158680000Y-114294819D02*
X158775238Y-114247200D01*
X158775238Y-114247200D02*
X158822857Y-114199580D01*
X158822857Y-114199580D02*
X158918095Y-114056723D01*
X158918095Y-114056723D02*
X158965714Y-113866247D01*
X158965714Y-113866247D02*
X158965714Y-113485295D01*
X158965714Y-113485295D02*
X158918095Y-113390057D01*
X158918095Y-113390057D02*
X158870476Y-113342438D01*
X158870476Y-113342438D02*
X158775238Y-113294819D01*
X158775238Y-113294819D02*
X158584762Y-113294819D01*
X158584762Y-113294819D02*
X158489524Y-113342438D01*
X158489524Y-113342438D02*
X158441905Y-113390057D01*
X158441905Y-113390057D02*
X158394286Y-113485295D01*
X158394286Y-113485295D02*
X158394286Y-113723390D01*
X158394286Y-113723390D02*
X158441905Y-113818628D01*
X158441905Y-113818628D02*
X158489524Y-113866247D01*
X158489524Y-113866247D02*
X158584762Y-113913866D01*
X158584762Y-113913866D02*
X158775238Y-113913866D01*
X158775238Y-113913866D02*
X158870476Y-113866247D01*
X158870476Y-113866247D02*
X158918095Y-113818628D01*
X158918095Y-113818628D02*
X158965714Y-113723390D01*
X166429523Y-86354819D02*
X166096190Y-85878628D01*
X165858095Y-86354819D02*
X165858095Y-85354819D01*
X165858095Y-85354819D02*
X166239047Y-85354819D01*
X166239047Y-85354819D02*
X166334285Y-85402438D01*
X166334285Y-85402438D02*
X166381904Y-85450057D01*
X166381904Y-85450057D02*
X166429523Y-85545295D01*
X166429523Y-85545295D02*
X166429523Y-85688152D01*
X166429523Y-85688152D02*
X166381904Y-85783390D01*
X166381904Y-85783390D02*
X166334285Y-85831009D01*
X166334285Y-85831009D02*
X166239047Y-85878628D01*
X166239047Y-85878628D02*
X165858095Y-85878628D01*
X166810476Y-86069104D02*
X167286666Y-86069104D01*
X166715238Y-86354819D02*
X167048571Y-85354819D01*
X167048571Y-85354819D02*
X167381904Y-86354819D01*
X167620000Y-85354819D02*
X167858095Y-86354819D01*
X167858095Y-86354819D02*
X168048571Y-85640533D01*
X168048571Y-85640533D02*
X168239047Y-86354819D01*
X168239047Y-86354819D02*
X168477143Y-85354819D01*
X166358095Y-87942438D02*
X166262857Y-87894819D01*
X166262857Y-87894819D02*
X166120000Y-87894819D01*
X166120000Y-87894819D02*
X165977143Y-87942438D01*
X165977143Y-87942438D02*
X165881905Y-88037676D01*
X165881905Y-88037676D02*
X165834286Y-88132914D01*
X165834286Y-88132914D02*
X165786667Y-88323390D01*
X165786667Y-88323390D02*
X165786667Y-88466247D01*
X165786667Y-88466247D02*
X165834286Y-88656723D01*
X165834286Y-88656723D02*
X165881905Y-88751961D01*
X165881905Y-88751961D02*
X165977143Y-88847200D01*
X165977143Y-88847200D02*
X166120000Y-88894819D01*
X166120000Y-88894819D02*
X166215238Y-88894819D01*
X166215238Y-88894819D02*
X166358095Y-88847200D01*
X166358095Y-88847200D02*
X166405714Y-88799580D01*
X166405714Y-88799580D02*
X166405714Y-88466247D01*
X166405714Y-88466247D02*
X166215238Y-88466247D01*
X166834286Y-88894819D02*
X166834286Y-87894819D01*
X166834286Y-87894819D02*
X167405714Y-88894819D01*
X167405714Y-88894819D02*
X167405714Y-87894819D01*
X167881905Y-88894819D02*
X167881905Y-87894819D01*
X167881905Y-87894819D02*
X168120000Y-87894819D01*
X168120000Y-87894819D02*
X168262857Y-87942438D01*
X168262857Y-87942438D02*
X168358095Y-88037676D01*
X168358095Y-88037676D02*
X168405714Y-88132914D01*
X168405714Y-88132914D02*
X168453333Y-88323390D01*
X168453333Y-88323390D02*
X168453333Y-88466247D01*
X168453333Y-88466247D02*
X168405714Y-88656723D01*
X168405714Y-88656723D02*
X168358095Y-88751961D01*
X168358095Y-88751961D02*
X168262857Y-88847200D01*
X168262857Y-88847200D02*
X168120000Y-88894819D01*
X168120000Y-88894819D02*
X167881905Y-88894819D01*
X166572380Y-91434819D02*
X166239047Y-90958628D01*
X166000952Y-91434819D02*
X166000952Y-90434819D01*
X166000952Y-90434819D02*
X166381904Y-90434819D01*
X166381904Y-90434819D02*
X166477142Y-90482438D01*
X166477142Y-90482438D02*
X166524761Y-90530057D01*
X166524761Y-90530057D02*
X166572380Y-90625295D01*
X166572380Y-90625295D02*
X166572380Y-90768152D01*
X166572380Y-90768152D02*
X166524761Y-90863390D01*
X166524761Y-90863390D02*
X166477142Y-90911009D01*
X166477142Y-90911009D02*
X166381904Y-90958628D01*
X166381904Y-90958628D02*
X166000952Y-90958628D01*
X166953333Y-91387200D02*
X167096190Y-91434819D01*
X167096190Y-91434819D02*
X167334285Y-91434819D01*
X167334285Y-91434819D02*
X167429523Y-91387200D01*
X167429523Y-91387200D02*
X167477142Y-91339580D01*
X167477142Y-91339580D02*
X167524761Y-91244342D01*
X167524761Y-91244342D02*
X167524761Y-91149104D01*
X167524761Y-91149104D02*
X167477142Y-91053866D01*
X167477142Y-91053866D02*
X167429523Y-91006247D01*
X167429523Y-91006247D02*
X167334285Y-90958628D01*
X167334285Y-90958628D02*
X167143809Y-90911009D01*
X167143809Y-90911009D02*
X167048571Y-90863390D01*
X167048571Y-90863390D02*
X167000952Y-90815771D01*
X167000952Y-90815771D02*
X166953333Y-90720533D01*
X166953333Y-90720533D02*
X166953333Y-90625295D01*
X166953333Y-90625295D02*
X167000952Y-90530057D01*
X167000952Y-90530057D02*
X167048571Y-90482438D01*
X167048571Y-90482438D02*
X167143809Y-90434819D01*
X167143809Y-90434819D02*
X167381904Y-90434819D01*
X167381904Y-90434819D02*
X167524761Y-90482438D01*
X167810476Y-90434819D02*
X168381904Y-90434819D01*
X168096190Y-91434819D02*
X168096190Y-90434819D01*
X165786667Y-92974819D02*
X166120000Y-93974819D01*
X166120000Y-93974819D02*
X166453333Y-92974819D01*
X167358095Y-93879580D02*
X167310476Y-93927200D01*
X167310476Y-93927200D02*
X167167619Y-93974819D01*
X167167619Y-93974819D02*
X167072381Y-93974819D01*
X167072381Y-93974819D02*
X166929524Y-93927200D01*
X166929524Y-93927200D02*
X166834286Y-93831961D01*
X166834286Y-93831961D02*
X166786667Y-93736723D01*
X166786667Y-93736723D02*
X166739048Y-93546247D01*
X166739048Y-93546247D02*
X166739048Y-93403390D01*
X166739048Y-93403390D02*
X166786667Y-93212914D01*
X166786667Y-93212914D02*
X166834286Y-93117676D01*
X166834286Y-93117676D02*
X166929524Y-93022438D01*
X166929524Y-93022438D02*
X167072381Y-92974819D01*
X167072381Y-92974819D02*
X167167619Y-92974819D01*
X167167619Y-92974819D02*
X167310476Y-93022438D01*
X167310476Y-93022438D02*
X167358095Y-93070057D01*
X168358095Y-93879580D02*
X168310476Y-93927200D01*
X168310476Y-93927200D02*
X168167619Y-93974819D01*
X168167619Y-93974819D02*
X168072381Y-93974819D01*
X168072381Y-93974819D02*
X167929524Y-93927200D01*
X167929524Y-93927200D02*
X167834286Y-93831961D01*
X167834286Y-93831961D02*
X167786667Y-93736723D01*
X167786667Y-93736723D02*
X167739048Y-93546247D01*
X167739048Y-93546247D02*
X167739048Y-93403390D01*
X167739048Y-93403390D02*
X167786667Y-93212914D01*
X167786667Y-93212914D02*
X167834286Y-93117676D01*
X167834286Y-93117676D02*
X167929524Y-93022438D01*
X167929524Y-93022438D02*
X168072381Y-92974819D01*
X168072381Y-92974819D02*
X168167619Y-92974819D01*
X168167619Y-92974819D02*
X168310476Y-93022438D01*
X168310476Y-93022438D02*
X168358095Y-93070057D01*
X165905714Y-96514819D02*
X165905714Y-95514819D01*
X165905714Y-95514819D02*
X166286666Y-95514819D01*
X166286666Y-95514819D02*
X166381904Y-95562438D01*
X166381904Y-95562438D02*
X166429523Y-95610057D01*
X166429523Y-95610057D02*
X166477142Y-95705295D01*
X166477142Y-95705295D02*
X166477142Y-95848152D01*
X166477142Y-95848152D02*
X166429523Y-95943390D01*
X166429523Y-95943390D02*
X166381904Y-95991009D01*
X166381904Y-95991009D02*
X166286666Y-96038628D01*
X166286666Y-96038628D02*
X165905714Y-96038628D01*
X166858095Y-95610057D02*
X166905714Y-95562438D01*
X166905714Y-95562438D02*
X167000952Y-95514819D01*
X167000952Y-95514819D02*
X167239047Y-95514819D01*
X167239047Y-95514819D02*
X167334285Y-95562438D01*
X167334285Y-95562438D02*
X167381904Y-95610057D01*
X167381904Y-95610057D02*
X167429523Y-95705295D01*
X167429523Y-95705295D02*
X167429523Y-95800533D01*
X167429523Y-95800533D02*
X167381904Y-95943390D01*
X167381904Y-95943390D02*
X166810476Y-96514819D01*
X166810476Y-96514819D02*
X167429523Y-96514819D01*
X168381904Y-96514819D02*
X167810476Y-96514819D01*
X168096190Y-96514819D02*
X168096190Y-95514819D01*
X168096190Y-95514819D02*
X168000952Y-95657676D01*
X168000952Y-95657676D02*
X167905714Y-95752914D01*
X167905714Y-95752914D02*
X167810476Y-95800533D01*
X165905714Y-99054819D02*
X165905714Y-98054819D01*
X165905714Y-98054819D02*
X166286666Y-98054819D01*
X166286666Y-98054819D02*
X166381904Y-98102438D01*
X166381904Y-98102438D02*
X166429523Y-98150057D01*
X166429523Y-98150057D02*
X166477142Y-98245295D01*
X166477142Y-98245295D02*
X166477142Y-98388152D01*
X166477142Y-98388152D02*
X166429523Y-98483390D01*
X166429523Y-98483390D02*
X166381904Y-98531009D01*
X166381904Y-98531009D02*
X166286666Y-98578628D01*
X166286666Y-98578628D02*
X165905714Y-98578628D01*
X166858095Y-98150057D02*
X166905714Y-98102438D01*
X166905714Y-98102438D02*
X167000952Y-98054819D01*
X167000952Y-98054819D02*
X167239047Y-98054819D01*
X167239047Y-98054819D02*
X167334285Y-98102438D01*
X167334285Y-98102438D02*
X167381904Y-98150057D01*
X167381904Y-98150057D02*
X167429523Y-98245295D01*
X167429523Y-98245295D02*
X167429523Y-98340533D01*
X167429523Y-98340533D02*
X167381904Y-98483390D01*
X167381904Y-98483390D02*
X166810476Y-99054819D01*
X166810476Y-99054819D02*
X167429523Y-99054819D01*
X168048571Y-98054819D02*
X168143809Y-98054819D01*
X168143809Y-98054819D02*
X168239047Y-98102438D01*
X168239047Y-98102438D02*
X168286666Y-98150057D01*
X168286666Y-98150057D02*
X168334285Y-98245295D01*
X168334285Y-98245295D02*
X168381904Y-98435771D01*
X168381904Y-98435771D02*
X168381904Y-98673866D01*
X168381904Y-98673866D02*
X168334285Y-98864342D01*
X168334285Y-98864342D02*
X168286666Y-98959580D01*
X168286666Y-98959580D02*
X168239047Y-99007200D01*
X168239047Y-99007200D02*
X168143809Y-99054819D01*
X168143809Y-99054819D02*
X168048571Y-99054819D01*
X168048571Y-99054819D02*
X167953333Y-99007200D01*
X167953333Y-99007200D02*
X167905714Y-98959580D01*
X167905714Y-98959580D02*
X167858095Y-98864342D01*
X167858095Y-98864342D02*
X167810476Y-98673866D01*
X167810476Y-98673866D02*
X167810476Y-98435771D01*
X167810476Y-98435771D02*
X167858095Y-98245295D01*
X167858095Y-98245295D02*
X167905714Y-98150057D01*
X167905714Y-98150057D02*
X167953333Y-98102438D01*
X167953333Y-98102438D02*
X168048571Y-98054819D01*
X165905714Y-101594819D02*
X165905714Y-100594819D01*
X165905714Y-100594819D02*
X166286666Y-100594819D01*
X166286666Y-100594819D02*
X166381904Y-100642438D01*
X166381904Y-100642438D02*
X166429523Y-100690057D01*
X166429523Y-100690057D02*
X166477142Y-100785295D01*
X166477142Y-100785295D02*
X166477142Y-100928152D01*
X166477142Y-100928152D02*
X166429523Y-101023390D01*
X166429523Y-101023390D02*
X166381904Y-101071009D01*
X166381904Y-101071009D02*
X166286666Y-101118628D01*
X166286666Y-101118628D02*
X165905714Y-101118628D01*
X167429523Y-101594819D02*
X166858095Y-101594819D01*
X167143809Y-101594819D02*
X167143809Y-100594819D01*
X167143809Y-100594819D02*
X167048571Y-100737676D01*
X167048571Y-100737676D02*
X166953333Y-100832914D01*
X166953333Y-100832914D02*
X166858095Y-100880533D01*
X167905714Y-101594819D02*
X168096190Y-101594819D01*
X168096190Y-101594819D02*
X168191428Y-101547200D01*
X168191428Y-101547200D02*
X168239047Y-101499580D01*
X168239047Y-101499580D02*
X168334285Y-101356723D01*
X168334285Y-101356723D02*
X168381904Y-101166247D01*
X168381904Y-101166247D02*
X168381904Y-100785295D01*
X168381904Y-100785295D02*
X168334285Y-100690057D01*
X168334285Y-100690057D02*
X168286666Y-100642438D01*
X168286666Y-100642438D02*
X168191428Y-100594819D01*
X168191428Y-100594819D02*
X168000952Y-100594819D01*
X168000952Y-100594819D02*
X167905714Y-100642438D01*
X167905714Y-100642438D02*
X167858095Y-100690057D01*
X167858095Y-100690057D02*
X167810476Y-100785295D01*
X167810476Y-100785295D02*
X167810476Y-101023390D01*
X167810476Y-101023390D02*
X167858095Y-101118628D01*
X167858095Y-101118628D02*
X167905714Y-101166247D01*
X167905714Y-101166247D02*
X168000952Y-101213866D01*
X168000952Y-101213866D02*
X168191428Y-101213866D01*
X168191428Y-101213866D02*
X168286666Y-101166247D01*
X168286666Y-101166247D02*
X168334285Y-101118628D01*
X168334285Y-101118628D02*
X168381904Y-101023390D01*
X165905714Y-104134819D02*
X165905714Y-103134819D01*
X165905714Y-103134819D02*
X166286666Y-103134819D01*
X166286666Y-103134819D02*
X166381904Y-103182438D01*
X166381904Y-103182438D02*
X166429523Y-103230057D01*
X166429523Y-103230057D02*
X166477142Y-103325295D01*
X166477142Y-103325295D02*
X166477142Y-103468152D01*
X166477142Y-103468152D02*
X166429523Y-103563390D01*
X166429523Y-103563390D02*
X166381904Y-103611009D01*
X166381904Y-103611009D02*
X166286666Y-103658628D01*
X166286666Y-103658628D02*
X165905714Y-103658628D01*
X167429523Y-104134819D02*
X166858095Y-104134819D01*
X167143809Y-104134819D02*
X167143809Y-103134819D01*
X167143809Y-103134819D02*
X167048571Y-103277676D01*
X167048571Y-103277676D02*
X166953333Y-103372914D01*
X166953333Y-103372914D02*
X166858095Y-103420533D01*
X168000952Y-103563390D02*
X167905714Y-103515771D01*
X167905714Y-103515771D02*
X167858095Y-103468152D01*
X167858095Y-103468152D02*
X167810476Y-103372914D01*
X167810476Y-103372914D02*
X167810476Y-103325295D01*
X167810476Y-103325295D02*
X167858095Y-103230057D01*
X167858095Y-103230057D02*
X167905714Y-103182438D01*
X167905714Y-103182438D02*
X168000952Y-103134819D01*
X168000952Y-103134819D02*
X168191428Y-103134819D01*
X168191428Y-103134819D02*
X168286666Y-103182438D01*
X168286666Y-103182438D02*
X168334285Y-103230057D01*
X168334285Y-103230057D02*
X168381904Y-103325295D01*
X168381904Y-103325295D02*
X168381904Y-103372914D01*
X168381904Y-103372914D02*
X168334285Y-103468152D01*
X168334285Y-103468152D02*
X168286666Y-103515771D01*
X168286666Y-103515771D02*
X168191428Y-103563390D01*
X168191428Y-103563390D02*
X168000952Y-103563390D01*
X168000952Y-103563390D02*
X167905714Y-103611009D01*
X167905714Y-103611009D02*
X167858095Y-103658628D01*
X167858095Y-103658628D02*
X167810476Y-103753866D01*
X167810476Y-103753866D02*
X167810476Y-103944342D01*
X167810476Y-103944342D02*
X167858095Y-104039580D01*
X167858095Y-104039580D02*
X167905714Y-104087200D01*
X167905714Y-104087200D02*
X168000952Y-104134819D01*
X168000952Y-104134819D02*
X168191428Y-104134819D01*
X168191428Y-104134819D02*
X168286666Y-104087200D01*
X168286666Y-104087200D02*
X168334285Y-104039580D01*
X168334285Y-104039580D02*
X168381904Y-103944342D01*
X168381904Y-103944342D02*
X168381904Y-103753866D01*
X168381904Y-103753866D02*
X168334285Y-103658628D01*
X168334285Y-103658628D02*
X168286666Y-103611009D01*
X168286666Y-103611009D02*
X168191428Y-103563390D01*
X165905714Y-106674819D02*
X165905714Y-105674819D01*
X165905714Y-105674819D02*
X166286666Y-105674819D01*
X166286666Y-105674819D02*
X166381904Y-105722438D01*
X166381904Y-105722438D02*
X166429523Y-105770057D01*
X166429523Y-105770057D02*
X166477142Y-105865295D01*
X166477142Y-105865295D02*
X166477142Y-106008152D01*
X166477142Y-106008152D02*
X166429523Y-106103390D01*
X166429523Y-106103390D02*
X166381904Y-106151009D01*
X166381904Y-106151009D02*
X166286666Y-106198628D01*
X166286666Y-106198628D02*
X165905714Y-106198628D01*
X167429523Y-106674819D02*
X166858095Y-106674819D01*
X167143809Y-106674819D02*
X167143809Y-105674819D01*
X167143809Y-105674819D02*
X167048571Y-105817676D01*
X167048571Y-105817676D02*
X166953333Y-105912914D01*
X166953333Y-105912914D02*
X166858095Y-105960533D01*
X168334285Y-105674819D02*
X167858095Y-105674819D01*
X167858095Y-105674819D02*
X167810476Y-106151009D01*
X167810476Y-106151009D02*
X167858095Y-106103390D01*
X167858095Y-106103390D02*
X167953333Y-106055771D01*
X167953333Y-106055771D02*
X168191428Y-106055771D01*
X168191428Y-106055771D02*
X168286666Y-106103390D01*
X168286666Y-106103390D02*
X168334285Y-106151009D01*
X168334285Y-106151009D02*
X168381904Y-106246247D01*
X168381904Y-106246247D02*
X168381904Y-106484342D01*
X168381904Y-106484342D02*
X168334285Y-106579580D01*
X168334285Y-106579580D02*
X168286666Y-106627200D01*
X168286666Y-106627200D02*
X168191428Y-106674819D01*
X168191428Y-106674819D02*
X167953333Y-106674819D01*
X167953333Y-106674819D02*
X167858095Y-106627200D01*
X167858095Y-106627200D02*
X167810476Y-106579580D01*
X165905714Y-109214819D02*
X165905714Y-108214819D01*
X165905714Y-108214819D02*
X166286666Y-108214819D01*
X166286666Y-108214819D02*
X166381904Y-108262438D01*
X166381904Y-108262438D02*
X166429523Y-108310057D01*
X166429523Y-108310057D02*
X166477142Y-108405295D01*
X166477142Y-108405295D02*
X166477142Y-108548152D01*
X166477142Y-108548152D02*
X166429523Y-108643390D01*
X166429523Y-108643390D02*
X166381904Y-108691009D01*
X166381904Y-108691009D02*
X166286666Y-108738628D01*
X166286666Y-108738628D02*
X165905714Y-108738628D01*
X167429523Y-109214819D02*
X166858095Y-109214819D01*
X167143809Y-109214819D02*
X167143809Y-108214819D01*
X167143809Y-108214819D02*
X167048571Y-108357676D01*
X167048571Y-108357676D02*
X166953333Y-108452914D01*
X166953333Y-108452914D02*
X166858095Y-108500533D01*
X168286666Y-108548152D02*
X168286666Y-109214819D01*
X168048571Y-108167200D02*
X167810476Y-108881485D01*
X167810476Y-108881485D02*
X168429523Y-108881485D01*
X165905714Y-111754819D02*
X165905714Y-110754819D01*
X165905714Y-110754819D02*
X166286666Y-110754819D01*
X166286666Y-110754819D02*
X166381904Y-110802438D01*
X166381904Y-110802438D02*
X166429523Y-110850057D01*
X166429523Y-110850057D02*
X166477142Y-110945295D01*
X166477142Y-110945295D02*
X166477142Y-111088152D01*
X166477142Y-111088152D02*
X166429523Y-111183390D01*
X166429523Y-111183390D02*
X166381904Y-111231009D01*
X166381904Y-111231009D02*
X166286666Y-111278628D01*
X166286666Y-111278628D02*
X165905714Y-111278628D01*
X167429523Y-111754819D02*
X166858095Y-111754819D01*
X167143809Y-111754819D02*
X167143809Y-110754819D01*
X167143809Y-110754819D02*
X167048571Y-110897676D01*
X167048571Y-110897676D02*
X166953333Y-110992914D01*
X166953333Y-110992914D02*
X166858095Y-111040533D01*
X168286666Y-110754819D02*
X168096190Y-110754819D01*
X168096190Y-110754819D02*
X168000952Y-110802438D01*
X168000952Y-110802438D02*
X167953333Y-110850057D01*
X167953333Y-110850057D02*
X167858095Y-110992914D01*
X167858095Y-110992914D02*
X167810476Y-111183390D01*
X167810476Y-111183390D02*
X167810476Y-111564342D01*
X167810476Y-111564342D02*
X167858095Y-111659580D01*
X167858095Y-111659580D02*
X167905714Y-111707200D01*
X167905714Y-111707200D02*
X168000952Y-111754819D01*
X168000952Y-111754819D02*
X168191428Y-111754819D01*
X168191428Y-111754819D02*
X168286666Y-111707200D01*
X168286666Y-111707200D02*
X168334285Y-111659580D01*
X168334285Y-111659580D02*
X168381904Y-111564342D01*
X168381904Y-111564342D02*
X168381904Y-111326247D01*
X168381904Y-111326247D02*
X168334285Y-111231009D01*
X168334285Y-111231009D02*
X168286666Y-111183390D01*
X168286666Y-111183390D02*
X168191428Y-111135771D01*
X168191428Y-111135771D02*
X168000952Y-111135771D01*
X168000952Y-111135771D02*
X167905714Y-111183390D01*
X167905714Y-111183390D02*
X167858095Y-111231009D01*
X167858095Y-111231009D02*
X167810476Y-111326247D01*
X165905714Y-114294819D02*
X165905714Y-113294819D01*
X165905714Y-113294819D02*
X166286666Y-113294819D01*
X166286666Y-113294819D02*
X166381904Y-113342438D01*
X166381904Y-113342438D02*
X166429523Y-113390057D01*
X166429523Y-113390057D02*
X166477142Y-113485295D01*
X166477142Y-113485295D02*
X166477142Y-113628152D01*
X166477142Y-113628152D02*
X166429523Y-113723390D01*
X166429523Y-113723390D02*
X166381904Y-113771009D01*
X166381904Y-113771009D02*
X166286666Y-113818628D01*
X166286666Y-113818628D02*
X165905714Y-113818628D01*
X167429523Y-114294819D02*
X166858095Y-114294819D01*
X167143809Y-114294819D02*
X167143809Y-113294819D01*
X167143809Y-113294819D02*
X167048571Y-113437676D01*
X167048571Y-113437676D02*
X166953333Y-113532914D01*
X166953333Y-113532914D02*
X166858095Y-113580533D01*
X168048571Y-113294819D02*
X168143809Y-113294819D01*
X168143809Y-113294819D02*
X168239047Y-113342438D01*
X168239047Y-113342438D02*
X168286666Y-113390057D01*
X168286666Y-113390057D02*
X168334285Y-113485295D01*
X168334285Y-113485295D02*
X168381904Y-113675771D01*
X168381904Y-113675771D02*
X168381904Y-113913866D01*
X168381904Y-113913866D02*
X168334285Y-114104342D01*
X168334285Y-114104342D02*
X168286666Y-114199580D01*
X168286666Y-114199580D02*
X168239047Y-114247200D01*
X168239047Y-114247200D02*
X168143809Y-114294819D01*
X168143809Y-114294819D02*
X168048571Y-114294819D01*
X168048571Y-114294819D02*
X167953333Y-114247200D01*
X167953333Y-114247200D02*
X167905714Y-114199580D01*
X167905714Y-114199580D02*
X167858095Y-114104342D01*
X167858095Y-114104342D02*
X167810476Y-113913866D01*
X167810476Y-113913866D02*
X167810476Y-113675771D01*
X167810476Y-113675771D02*
X167858095Y-113485295D01*
X167858095Y-113485295D02*
X167905714Y-113390057D01*
X167905714Y-113390057D02*
X167953333Y-113342438D01*
X167953333Y-113342438D02*
X168048571Y-113294819D01*
X158024819Y-122412969D02*
X157024819Y-122412969D01*
X157024819Y-122412969D02*
X157024819Y-122032017D01*
X157024819Y-122032017D02*
X157072438Y-121936779D01*
X157072438Y-121936779D02*
X157120057Y-121889160D01*
X157120057Y-121889160D02*
X157215295Y-121841541D01*
X157215295Y-121841541D02*
X157358152Y-121841541D01*
X157358152Y-121841541D02*
X157453390Y-121889160D01*
X157453390Y-121889160D02*
X157501009Y-121936779D01*
X157501009Y-121936779D02*
X157548628Y-122032017D01*
X157548628Y-122032017D02*
X157548628Y-122412969D01*
X157024819Y-121508207D02*
X157024819Y-120841541D01*
X157024819Y-120841541D02*
X158024819Y-121270112D01*
X160624819Y-122412969D02*
X159624819Y-122412969D01*
X159624819Y-122412969D02*
X159624819Y-122032017D01*
X159624819Y-122032017D02*
X159672438Y-121936779D01*
X159672438Y-121936779D02*
X159720057Y-121889160D01*
X159720057Y-121889160D02*
X159815295Y-121841541D01*
X159815295Y-121841541D02*
X159958152Y-121841541D01*
X159958152Y-121841541D02*
X160053390Y-121889160D01*
X160053390Y-121889160D02*
X160101009Y-121936779D01*
X160101009Y-121936779D02*
X160148628Y-122032017D01*
X160148628Y-122032017D02*
X160148628Y-122412969D01*
X159624819Y-120984398D02*
X159624819Y-121174874D01*
X159624819Y-121174874D02*
X159672438Y-121270112D01*
X159672438Y-121270112D02*
X159720057Y-121317731D01*
X159720057Y-121317731D02*
X159862914Y-121412969D01*
X159862914Y-121412969D02*
X160053390Y-121460588D01*
X160053390Y-121460588D02*
X160434342Y-121460588D01*
X160434342Y-121460588D02*
X160529580Y-121412969D01*
X160529580Y-121412969D02*
X160577200Y-121365350D01*
X160577200Y-121365350D02*
X160624819Y-121270112D01*
X160624819Y-121270112D02*
X160624819Y-121079636D01*
X160624819Y-121079636D02*
X160577200Y-120984398D01*
X160577200Y-120984398D02*
X160529580Y-120936779D01*
X160529580Y-120936779D02*
X160434342Y-120889160D01*
X160434342Y-120889160D02*
X160196247Y-120889160D01*
X160196247Y-120889160D02*
X160101009Y-120936779D01*
X160101009Y-120936779D02*
X160053390Y-120984398D01*
X160053390Y-120984398D02*
X160005771Y-121079636D01*
X160005771Y-121079636D02*
X160005771Y-121270112D01*
X160005771Y-121270112D02*
X160053390Y-121365350D01*
X160053390Y-121365350D02*
X160101009Y-121412969D01*
X160101009Y-121412969D02*
X160196247Y-121460588D01*
X162254819Y-123460588D02*
X163254819Y-123127255D01*
X163254819Y-123127255D02*
X162254819Y-122793922D01*
X163159580Y-121889160D02*
X163207200Y-121936779D01*
X163207200Y-121936779D02*
X163254819Y-122079636D01*
X163254819Y-122079636D02*
X163254819Y-122174874D01*
X163254819Y-122174874D02*
X163207200Y-122317731D01*
X163207200Y-122317731D02*
X163111961Y-122412969D01*
X163111961Y-122412969D02*
X163016723Y-122460588D01*
X163016723Y-122460588D02*
X162826247Y-122508207D01*
X162826247Y-122508207D02*
X162683390Y-122508207D01*
X162683390Y-122508207D02*
X162492914Y-122460588D01*
X162492914Y-122460588D02*
X162397676Y-122412969D01*
X162397676Y-122412969D02*
X162302438Y-122317731D01*
X162302438Y-122317731D02*
X162254819Y-122174874D01*
X162254819Y-122174874D02*
X162254819Y-122079636D01*
X162254819Y-122079636D02*
X162302438Y-121936779D01*
X162302438Y-121936779D02*
X162350057Y-121889160D01*
X163159580Y-120889160D02*
X163207200Y-120936779D01*
X163207200Y-120936779D02*
X163254819Y-121079636D01*
X163254819Y-121079636D02*
X163254819Y-121174874D01*
X163254819Y-121174874D02*
X163207200Y-121317731D01*
X163207200Y-121317731D02*
X163111961Y-121412969D01*
X163111961Y-121412969D02*
X163016723Y-121460588D01*
X163016723Y-121460588D02*
X162826247Y-121508207D01*
X162826247Y-121508207D02*
X162683390Y-121508207D01*
X162683390Y-121508207D02*
X162492914Y-121460588D01*
X162492914Y-121460588D02*
X162397676Y-121412969D01*
X162397676Y-121412969D02*
X162302438Y-121317731D01*
X162302438Y-121317731D02*
X162254819Y-121174874D01*
X162254819Y-121174874D02*
X162254819Y-121079636D01*
X162254819Y-121079636D02*
X162302438Y-120936779D01*
X162302438Y-120936779D02*
X162350057Y-120889160D01*
X164772438Y-122984398D02*
X164724819Y-123079636D01*
X164724819Y-123079636D02*
X164724819Y-123222493D01*
X164724819Y-123222493D02*
X164772438Y-123365350D01*
X164772438Y-123365350D02*
X164867676Y-123460588D01*
X164867676Y-123460588D02*
X164962914Y-123508207D01*
X164962914Y-123508207D02*
X165153390Y-123555826D01*
X165153390Y-123555826D02*
X165296247Y-123555826D01*
X165296247Y-123555826D02*
X165486723Y-123508207D01*
X165486723Y-123508207D02*
X165581961Y-123460588D01*
X165581961Y-123460588D02*
X165677200Y-123365350D01*
X165677200Y-123365350D02*
X165724819Y-123222493D01*
X165724819Y-123222493D02*
X165724819Y-123127255D01*
X165724819Y-123127255D02*
X165677200Y-122984398D01*
X165677200Y-122984398D02*
X165629580Y-122936779D01*
X165629580Y-122936779D02*
X165296247Y-122936779D01*
X165296247Y-122936779D02*
X165296247Y-123127255D01*
X165724819Y-122508207D02*
X164724819Y-122508207D01*
X164724819Y-122508207D02*
X165724819Y-121936779D01*
X165724819Y-121936779D02*
X164724819Y-121936779D01*
X165724819Y-121460588D02*
X164724819Y-121460588D01*
X164724819Y-121460588D02*
X164724819Y-121222493D01*
X164724819Y-121222493D02*
X164772438Y-121079636D01*
X164772438Y-121079636D02*
X164867676Y-120984398D01*
X164867676Y-120984398D02*
X164962914Y-120936779D01*
X164962914Y-120936779D02*
X165153390Y-120889160D01*
X165153390Y-120889160D02*
X165296247Y-120889160D01*
X165296247Y-120889160D02*
X165486723Y-120936779D01*
X165486723Y-120936779D02*
X165581961Y-120984398D01*
X165581961Y-120984398D02*
X165677200Y-121079636D01*
X165677200Y-121079636D02*
X165724819Y-121222493D01*
X165724819Y-121222493D02*
X165724819Y-121460588D01*
X168224819Y-123365350D02*
X167224819Y-123365350D01*
X167224819Y-123365350D02*
X167224819Y-122984398D01*
X167224819Y-122984398D02*
X167272438Y-122889160D01*
X167272438Y-122889160D02*
X167320057Y-122841541D01*
X167320057Y-122841541D02*
X167415295Y-122793922D01*
X167415295Y-122793922D02*
X167558152Y-122793922D01*
X167558152Y-122793922D02*
X167653390Y-122841541D01*
X167653390Y-122841541D02*
X167701009Y-122889160D01*
X167701009Y-122889160D02*
X167748628Y-122984398D01*
X167748628Y-122984398D02*
X167748628Y-123365350D01*
X168224819Y-121841541D02*
X168224819Y-122412969D01*
X168224819Y-122127255D02*
X167224819Y-122127255D01*
X167224819Y-122127255D02*
X167367676Y-122222493D01*
X167367676Y-122222493D02*
X167462914Y-122317731D01*
X167462914Y-122317731D02*
X167510533Y-122412969D01*
X167558152Y-120984398D02*
X168224819Y-120984398D01*
X167177200Y-121222493D02*
X167891485Y-121460588D01*
X167891485Y-121460588D02*
X167891485Y-120841541D01*
X154380952Y-123054819D02*
X154571428Y-123054819D01*
X154571428Y-123054819D02*
X154666666Y-123102438D01*
X154666666Y-123102438D02*
X154761904Y-123197676D01*
X154761904Y-123197676D02*
X154809523Y-123388152D01*
X154809523Y-123388152D02*
X154809523Y-123721485D01*
X154809523Y-123721485D02*
X154761904Y-123911961D01*
X154761904Y-123911961D02*
X154666666Y-124007200D01*
X154666666Y-124007200D02*
X154571428Y-124054819D01*
X154571428Y-124054819D02*
X154380952Y-124054819D01*
X154380952Y-124054819D02*
X154285714Y-124007200D01*
X154285714Y-124007200D02*
X154190476Y-123911961D01*
X154190476Y-123911961D02*
X154142857Y-123721485D01*
X154142857Y-123721485D02*
X154142857Y-123388152D01*
X154142857Y-123388152D02*
X154190476Y-123197676D01*
X154190476Y-123197676D02*
X154285714Y-123102438D01*
X154285714Y-123102438D02*
X154380952Y-123054819D01*
X155238095Y-124054819D02*
X155238095Y-123054819D01*
X155238095Y-123054819D02*
X155809523Y-124054819D01*
X155809523Y-124054819D02*
X155809523Y-123054819D01*
X154047619Y-133054819D02*
X154238095Y-133054819D01*
X154238095Y-133054819D02*
X154333333Y-133102438D01*
X154333333Y-133102438D02*
X154428571Y-133197676D01*
X154428571Y-133197676D02*
X154476190Y-133388152D01*
X154476190Y-133388152D02*
X154476190Y-133721485D01*
X154476190Y-133721485D02*
X154428571Y-133911961D01*
X154428571Y-133911961D02*
X154333333Y-134007200D01*
X154333333Y-134007200D02*
X154238095Y-134054819D01*
X154238095Y-134054819D02*
X154047619Y-134054819D01*
X154047619Y-134054819D02*
X153952381Y-134007200D01*
X153952381Y-134007200D02*
X153857143Y-133911961D01*
X153857143Y-133911961D02*
X153809524Y-133721485D01*
X153809524Y-133721485D02*
X153809524Y-133388152D01*
X153809524Y-133388152D02*
X153857143Y-133197676D01*
X153857143Y-133197676D02*
X153952381Y-133102438D01*
X153952381Y-133102438D02*
X154047619Y-133054819D01*
X155238095Y-133531009D02*
X154904762Y-133531009D01*
X154904762Y-134054819D02*
X154904762Y-133054819D01*
X154904762Y-133054819D02*
X155380952Y-133054819D01*
X156095238Y-133531009D02*
X155761905Y-133531009D01*
X155761905Y-134054819D02*
X155761905Y-133054819D01*
X155761905Y-133054819D02*
X156238095Y-133054819D01*
%TO.C,D38*%
D11*
X181500000Y-114600000D02*
X181900000Y-114600000D01*
X181900000Y-114600000D02*
X181900000Y-114050000D01*
X181900000Y-114600000D02*
X181900000Y-115150000D01*
X181900000Y-114600000D02*
X182500000Y-114200000D01*
X182500000Y-114200000D02*
X182500000Y-115000000D01*
X182500000Y-114600000D02*
X183000000Y-114600000D01*
X182500000Y-115000000D02*
X181900000Y-114600000D01*
%TO.C,RST1*%
X148228664Y-140255947D02*
X148074749Y-140452950D01*
X148271751Y-140606865D02*
X148074749Y-140452950D01*
X150635784Y-142453849D02*
X150832786Y-142607765D01*
X150814442Y-136946302D02*
X150968358Y-136749299D01*
X150986702Y-142410762D02*
X150832786Y-142607765D01*
X151165360Y-136903215D02*
X150968358Y-136749299D01*
X153529393Y-138750199D02*
X153726395Y-138904114D01*
X153572480Y-139101117D02*
X153726395Y-138904114D01*
%TO.C,D26*%
X261500000Y-121600000D02*
X261900000Y-121600000D01*
X261900000Y-121600000D02*
X261900000Y-121050000D01*
X261900000Y-121600000D02*
X261900000Y-122150000D01*
X261900000Y-121600000D02*
X262500000Y-121200000D01*
X262500000Y-121200000D02*
X262500000Y-122000000D01*
X262500000Y-121600000D02*
X263000000Y-121600000D01*
X262500000Y-122000000D02*
X261900000Y-121600000D01*
%TO.C,D25*%
X261500000Y-140600000D02*
X261900000Y-140600000D01*
X261900000Y-140600000D02*
X261900000Y-140050000D01*
X261900000Y-140600000D02*
X261900000Y-141150000D01*
X261900000Y-140600000D02*
X262500000Y-140200000D01*
X262500000Y-140200000D02*
X262500000Y-141000000D01*
X262500000Y-140600000D02*
X263000000Y-140600000D01*
X262500000Y-141000000D02*
X261900000Y-140600000D01*
%TO.C,D39*%
X181500000Y-95600000D02*
X181900000Y-95600000D01*
X181900000Y-95600000D02*
X181900000Y-95050000D01*
X181900000Y-95600000D02*
X181900000Y-96150000D01*
X181900000Y-95600000D02*
X182500000Y-95200000D01*
X182500000Y-95200000D02*
X182500000Y-96000000D01*
X182500000Y-95600000D02*
X183000000Y-95600000D01*
X182500000Y-96000000D02*
X181900000Y-95600000D01*
%TO.C,D35*%
X201500000Y-112600000D02*
X201900000Y-112600000D01*
X201900000Y-112600000D02*
X201900000Y-112050000D01*
X201900000Y-112600000D02*
X201900000Y-113150000D01*
X201900000Y-112600000D02*
X202500000Y-112200000D01*
X202500000Y-112200000D02*
X202500000Y-113000000D01*
X202500000Y-112600000D02*
X203000000Y-112600000D01*
X202500000Y-113000000D02*
X201900000Y-112600000D01*
%TO.C,D40*%
X201500000Y-152600000D02*
X201900000Y-152600000D01*
X201900000Y-152600000D02*
X201900000Y-152050000D01*
X201900000Y-152600000D02*
X201900000Y-153150000D01*
X201900000Y-152600000D02*
X202500000Y-152200000D01*
X202500000Y-152200000D02*
X202500000Y-153000000D01*
X202500000Y-152600000D02*
X203000000Y-152600000D01*
X202500000Y-153000000D02*
X201900000Y-152600000D01*
%TO.C,JST1*%
D12*
X158190000Y-127040000D02*
X159190000Y-127040000D01*
X158190000Y-127960000D02*
X158190000Y-127040000D01*
X158190000Y-132160000D02*
X158190000Y-133160000D01*
X158190000Y-133160000D02*
X159190000Y-133160000D01*
X166010000Y-127040000D02*
X165010000Y-127040000D01*
X166010000Y-127960000D02*
X166010000Y-127040000D01*
X166010000Y-132240000D02*
X166010000Y-133160000D01*
X166010000Y-133160000D02*
X165010000Y-133160000D01*
D11*
X166550000Y-129100000D02*
X167550000Y-129100000D01*
X167050000Y-128600000D02*
X167050000Y-129600000D01*
X167050000Y-131600000D02*
X167050000Y-130600000D01*
%TO.C,D41*%
X182379635Y-155354275D02*
X182773558Y-155284816D01*
X182773558Y-155284816D02*
X182678052Y-154743172D01*
X182773558Y-155284816D02*
X182869065Y-155826460D01*
X182773558Y-155284816D02*
X183294984Y-154786704D01*
X183294984Y-154786704D02*
X183433902Y-155574550D01*
X183364443Y-155180627D02*
X183856847Y-155093803D01*
X183433902Y-155574550D02*
X182773558Y-155284816D01*
%TO.C,D22*%
X281500000Y-140600000D02*
X281900000Y-140600000D01*
X281900000Y-140600000D02*
X281900000Y-140050000D01*
X281900000Y-140600000D02*
X281900000Y-141150000D01*
X281900000Y-140600000D02*
X282500000Y-140200000D01*
X282500000Y-140200000D02*
X282500000Y-141000000D01*
X282500000Y-140600000D02*
X283000000Y-140600000D01*
X282500000Y-141000000D02*
X281900000Y-140600000D01*
%TO.C,D24*%
X281500000Y-102600000D02*
X281900000Y-102600000D01*
X281900000Y-102600000D02*
X281900000Y-102050000D01*
X281900000Y-102600000D02*
X281900000Y-103150000D01*
X281900000Y-102600000D02*
X282500000Y-102200000D01*
X282500000Y-102200000D02*
X282500000Y-103000000D01*
X282500000Y-102600000D02*
X283000000Y-102600000D01*
X282500000Y-103000000D02*
X281900000Y-102600000D01*
%TO.C,MCU1*%
D12*
X153700000Y-84570000D02*
X153700000Y-115170000D01*
X153700000Y-84570000D02*
X156360000Y-84570000D01*
X153700000Y-115170000D02*
X156360000Y-115170000D01*
X156360000Y-84570000D02*
X156360000Y-115170000D01*
X156360000Y-87170000D02*
X153700000Y-87170000D01*
X168940000Y-84570000D02*
X168940000Y-115170000D01*
X168940000Y-84570000D02*
X171600000Y-84570000D01*
X168940000Y-115170000D02*
X171600000Y-115170000D01*
X171600000Y-84570000D02*
X171600000Y-115170000D01*
%TO.C,D29*%
D11*
X241500000Y-111600000D02*
X241900000Y-111600000D01*
X241900000Y-111600000D02*
X241900000Y-111050000D01*
X241900000Y-111600000D02*
X241900000Y-112150000D01*
X241900000Y-111600000D02*
X242500000Y-111200000D01*
X242500000Y-111200000D02*
X242500000Y-112000000D01*
X242500000Y-111600000D02*
X243000000Y-111600000D01*
X242500000Y-112000000D02*
X241900000Y-111600000D01*
%TO.C,D37*%
X181500000Y-133600000D02*
X181900000Y-133600000D01*
X181900000Y-133600000D02*
X181900000Y-133050000D01*
X181900000Y-133600000D02*
X181900000Y-134150000D01*
X181900000Y-133600000D02*
X182500000Y-133200000D01*
X182500000Y-133200000D02*
X182500000Y-134000000D01*
X182500000Y-133600000D02*
X183000000Y-133600000D01*
X182500000Y-134000000D02*
X181900000Y-133600000D01*
%TO.C,D28*%
X241500000Y-130600000D02*
X241900000Y-130600000D01*
X241900000Y-130600000D02*
X241900000Y-130050000D01*
X241900000Y-130600000D02*
X241900000Y-131150000D01*
X241900000Y-130600000D02*
X242500000Y-130200000D01*
X242500000Y-130200000D02*
X242500000Y-131000000D01*
X242500000Y-130600000D02*
X243000000Y-130600000D01*
X242500000Y-131000000D02*
X241900000Y-130600000D01*
%TO.C,D31*%
X221500000Y-125600000D02*
X221900000Y-125600000D01*
X221900000Y-125600000D02*
X221900000Y-125050000D01*
X221900000Y-125600000D02*
X221900000Y-126150000D01*
X221900000Y-125600000D02*
X222500000Y-125200000D01*
X222500000Y-125200000D02*
X222500000Y-126000000D01*
X222500000Y-125600000D02*
X223000000Y-125600000D01*
X222500000Y-126000000D02*
X221900000Y-125600000D01*
%TO.C,DISP1*%
D12*
X156240000Y-117470000D02*
X156240000Y-120130000D01*
X169060000Y-117470000D02*
X156240000Y-117470000D01*
X169060000Y-117470000D02*
X169060000Y-120130000D01*
X169060000Y-120130000D02*
X156240000Y-120130000D01*
%TO.C,D23*%
D11*
X281500000Y-121600000D02*
X281900000Y-121600000D01*
X281900000Y-121600000D02*
X281900000Y-121050000D01*
X281900000Y-121600000D02*
X281900000Y-122150000D01*
X281900000Y-121600000D02*
X282500000Y-121200000D01*
X282500000Y-121200000D02*
X282500000Y-122000000D01*
X282500000Y-121600000D02*
X283000000Y-121600000D01*
X282500000Y-122000000D02*
X281900000Y-121600000D01*
%TO.C,D30*%
X241500000Y-92600000D02*
X241900000Y-92600000D01*
X241900000Y-92600000D02*
X241900000Y-92050000D01*
X241900000Y-92600000D02*
X241900000Y-93150000D01*
X241900000Y-92600000D02*
X242500000Y-92200000D01*
X242500000Y-92200000D02*
X242500000Y-93000000D01*
X242500000Y-92600000D02*
X243000000Y-92600000D01*
X242500000Y-93000000D02*
X241900000Y-92600000D01*
%TO.C,D33*%
X221500000Y-87600000D02*
X221900000Y-87600000D01*
X221900000Y-87600000D02*
X221900000Y-87050000D01*
X221900000Y-87600000D02*
X221900000Y-88150000D01*
X221900000Y-87600000D02*
X222500000Y-87200000D01*
X222500000Y-87200000D02*
X222500000Y-88000000D01*
X222500000Y-87600000D02*
X223000000Y-87600000D01*
X222500000Y-88000000D02*
X221900000Y-87600000D01*
%TO.C,D42*%
X155740502Y-154145652D02*
X155911167Y-153445029D01*
X155774359Y-153069152D02*
X155911167Y-153445029D01*
X155911167Y-153445029D02*
X155394336Y-153633140D01*
X155911167Y-153445029D02*
X156427998Y-153256918D01*
X155911167Y-153445029D02*
X156492256Y-153872036D01*
X156116379Y-154008844D02*
X156287389Y-154478690D01*
X156492256Y-153872036D02*
X155740502Y-154145652D01*
%TO.C,D27*%
X261500000Y-102600000D02*
X261900000Y-102600000D01*
X261900000Y-102600000D02*
X261900000Y-102050000D01*
X261900000Y-102600000D02*
X261900000Y-103150000D01*
X261900000Y-102600000D02*
X262500000Y-102200000D01*
X262500000Y-102200000D02*
X262500000Y-103000000D01*
X262500000Y-102600000D02*
X263000000Y-102600000D01*
X262500000Y-103000000D02*
X261900000Y-102600000D01*
%TO.C,D34*%
X201500000Y-131600000D02*
X201900000Y-131600000D01*
X201900000Y-131600000D02*
X201900000Y-131050000D01*
X201900000Y-131600000D02*
X201900000Y-132150000D01*
X201900000Y-131600000D02*
X202500000Y-131200000D01*
X202500000Y-131200000D02*
X202500000Y-132000000D01*
X202500000Y-131600000D02*
X203000000Y-131600000D01*
X202500000Y-132000000D02*
X201900000Y-131600000D01*
%TO.C,D32*%
X221500000Y-106600000D02*
X221900000Y-106600000D01*
X221900000Y-106600000D02*
X221900000Y-106050000D01*
X221900000Y-106600000D02*
X221900000Y-107150000D01*
X221900000Y-106600000D02*
X222500000Y-106200000D01*
X222500000Y-106200000D02*
X222500000Y-107000000D01*
X222500000Y-106600000D02*
X223000000Y-106600000D01*
X222500000Y-107000000D02*
X221900000Y-106600000D01*
%TO.C,PWR1*%
D12*
X153575000Y-125750000D02*
X153575000Y-131450000D01*
X154585000Y-132050000D02*
X155375000Y-132050000D01*
X155375000Y-125150000D02*
X154585000Y-125150000D01*
X156425000Y-127000000D02*
X156425000Y-128700000D01*
X156425000Y-130000000D02*
X156425000Y-130200000D01*
%TO.C,D36*%
D11*
X201500000Y-93600000D02*
X201900000Y-93600000D01*
X201900000Y-93600000D02*
X201900000Y-93050000D01*
X201900000Y-93600000D02*
X201900000Y-94150000D01*
X201900000Y-93600000D02*
X202500000Y-93200000D01*
X202500000Y-93200000D02*
X202500000Y-94000000D01*
X202500000Y-93600000D02*
X203000000Y-93600000D01*
X202500000Y-94000000D02*
X201900000Y-93600000D01*
%TD*%
M02*
