%TF.GenerationSoftware,KiCad,Pcbnew,10.0.0*%
%TF.CreationDate,2026-04-13T15:50:50-04:00*%
%TF.ProjectId,mulloy42_right,6d756c6c-6f79-4343-925f-72696768742e,0.1*%
%TF.SameCoordinates,Original*%
%TF.FileFunction,Paste,Top*%
%TF.FilePolarity,Positive*%
%FSLAX46Y46*%
G04 Gerber Fmt 4.6, Leading zero omitted, Abs format (unit mm)*
G04 Created by KiCad (PCBNEW 10.0.0) date 2026-04-13 15:50:50*
%MOMM*%
%LPD*%
G01*
G04 APERTURE LIST*
G04 Aperture macros list*
%AMRotRect*
0 Rectangle, with rotation*
0 The origin of the aperture is its center*
0 $1 length*
0 $2 width*
0 $3 Rotation angle, in degrees counterclockwise*
0 Add horizontal line*
21,1,$1,$2,0,0,$3*%
G04 Aperture macros list end*
%ADD10R,0.900000X1.200000*%
%ADD11RotRect,1.550000X1.000000X232.000000*%
%ADD12RotRect,0.900000X1.200000X10.000000*%
%ADD13RotRect,0.900000X1.200000X290.000000*%
%ADD14R,0.800000X1.000000*%
%ADD15R,1.500000X0.700000*%
G04 APERTURE END LIST*
D10*
%TO.C,D38*%
X180600000Y-114600000D03*
X183900000Y-114600000D03*
%TD*%
D11*
%TO.C,RST1*%
X151846874Y-137086692D03*
X153186493Y-138133316D03*
X148614651Y-141223748D03*
X149954270Y-142270372D03*
%TD*%
D10*
%TO.C,D26*%
X260600000Y-121600000D03*
X263900000Y-121600000D03*
%TD*%
%TO.C,D25*%
X260600000Y-140600000D03*
X263900000Y-140600000D03*
%TD*%
%TO.C,D39*%
X180600000Y-95600000D03*
X183900000Y-95600000D03*
%TD*%
%TO.C,D35*%
X200600000Y-112600000D03*
X203900000Y-112600000D03*
%TD*%
%TO.C,D40*%
X200600000Y-152600000D03*
X203900000Y-152600000D03*
%TD*%
D12*
%TO.C,D41*%
X181493308Y-155510558D03*
X184743174Y-154937520D03*
%TD*%
D10*
%TO.C,D22*%
X280600000Y-140600000D03*
X283900000Y-140600000D03*
%TD*%
%TO.C,D24*%
X280600000Y-102600000D03*
X283900000Y-102600000D03*
%TD*%
%TO.C,D29*%
X240600000Y-111600000D03*
X243900000Y-111600000D03*
%TD*%
%TO.C,D37*%
X180600000Y-133600000D03*
X183900000Y-133600000D03*
%TD*%
%TO.C,D28*%
X240600000Y-130600000D03*
X243900000Y-130600000D03*
%TD*%
%TO.C,D31*%
X220600000Y-125600000D03*
X223900000Y-125600000D03*
%TD*%
%TO.C,D23*%
X280600000Y-121600000D03*
X283900000Y-121600000D03*
%TD*%
%TO.C,D30*%
X240600000Y-92600000D03*
X243900000Y-92600000D03*
%TD*%
%TO.C,D33*%
X220600000Y-87600000D03*
X223900000Y-87600000D03*
%TD*%
D13*
%TO.C,D42*%
X155466541Y-152223428D03*
X156595207Y-155324414D03*
%TD*%
D10*
%TO.C,D27*%
X260600000Y-102600000D03*
X263900000Y-102600000D03*
%TD*%
%TO.C,D34*%
X200600000Y-131600000D03*
X203900000Y-131600000D03*
%TD*%
%TO.C,D32*%
X220600000Y-106600000D03*
X223900000Y-106600000D03*
%TD*%
D14*
%TO.C,PWR1*%
X156085000Y-132250000D03*
X156085000Y-124950000D03*
X153875000Y-132250000D03*
X153875000Y-124950000D03*
D15*
X156735000Y-126350000D03*
X156735000Y-129350000D03*
X156735000Y-130850000D03*
%TD*%
D10*
%TO.C,D36*%
X200600000Y-93600000D03*
X203900000Y-93600000D03*
%TD*%
M02*
