%TF.GenerationSoftware,KiCad,Pcbnew,10.0.0*%
%TF.CreationDate,2026-04-13T15:50:50-04:00*%
%TF.ProjectId,mulloy42_right,6d756c6c-6f79-4343-925f-72696768742e,0.1*%
%TF.SameCoordinates,Original*%
%TF.FileFunction,Soldermask,Top*%
%TF.FilePolarity,Negative*%
%FSLAX46Y46*%
G04 Gerber Fmt 4.6, Leading zero omitted, Abs format (unit mm)*
G04 Created by KiCad (PCBNEW 10.0.0) date 2026-04-13 15:50:50*
%MOMM*%
%LPD*%
G01*
G04 APERTURE LIST*
G04 Aperture macros list*
%AMRoundRect*
0 Rectangle with rounded corners*
0 $1 Rounding radius*
0 $2 $3 $4 $5 $6 $7 $8 $9 X,Y pos of 4 corners*
0 Add a 4 corners polygon primitive as box body*
4,1,4,$2,$3,$4,$5,$6,$7,$8,$9,$2,$3,0*
0 Add four circle primitives for the rounded corners*
1,1,$1+$1,$2,$3*
1,1,$1+$1,$4,$5*
1,1,$1+$1,$6,$7*
1,1,$1+$1,$8,$9*
0 Add four rect primitives between the rounded corners*
20,1,$1+$1,$2,$3,$4,$5,0*
20,1,$1+$1,$4,$5,$6,$7,0*
20,1,$1+$1,$6,$7,$8,$9,0*
20,1,$1+$1,$8,$9,$2,$3,0*%
G04 Aperture macros list end*
%ADD10C,1.801800*%
%ADD11C,3.100000*%
%ADD12C,3.529000*%
%ADD13RoundRect,0.050000X-0.889000X-0.889000X0.889000X-0.889000X0.889000X0.889000X-0.889000X0.889000X0*%
%ADD14RoundRect,0.050000X-0.450000X-0.600000X0.450000X-0.600000X0.450000X0.600000X-0.450000X0.600000X0*%
%ADD15C,2.005000*%
%ADD16RoundRect,0.050000X0.083132X0.918539X-0.871143X-0.302878X-0.083132X-0.918539X0.871143X0.302878X0*%
%ADD17C,4.700000*%
%ADD18RoundRect,0.260000X0.665000X-0.390000X0.665000X0.390000X-0.665000X0.390000X-0.665000X-0.390000X0*%
%ADD19O,1.850000X1.300000*%
%ADD20RoundRect,0.050000X-0.721121X-1.029867X1.029867X-0.721121X0.721121X1.029867X-1.029867X0.721121X0*%
%ADD21RoundRect,0.050000X-0.338975X-0.669026X0.547352X-0.512743X0.338975X0.669026X-0.547352X0.512743X0*%
%ADD22C,1.800000*%
%ADD23O,1.800000X1.800000*%
%ADD24RoundRect,0.050000X-1.139443X0.531331X-0.531331X-1.139443X1.139443X-0.531331X0.531331X1.139443X0*%
%ADD25RoundRect,0.050000X-0.717725X0.217650X-0.409907X-0.628074X0.717725X-0.217650X0.409907X0.628074X0*%
%ADD26RoundRect,0.050000X-0.400000X0.500000X-0.400000X-0.500000X0.400000X-0.500000X0.400000X0.500000X0*%
%ADD27C,1.000000*%
%ADD28RoundRect,0.050000X-0.750000X0.350000X-0.750000X-0.350000X0.750000X-0.350000X0.750000X0.350000X0*%
G04 APERTURE END LIST*
D10*
%TO.C,S32*%
X216750000Y-101600000D03*
D11*
X222250000Y-95650000D03*
D12*
X222250000Y-101600000D03*
D11*
X227250000Y-97850000D03*
D10*
X227750000Y-101600000D03*
%TD*%
D13*
%TO.C,D38*%
X178440000Y-114600000D03*
D14*
X180600000Y-114600000D03*
X183900000Y-114600000D03*
D15*
X186060000Y-114600000D03*
%TD*%
D16*
%TO.C,RST1*%
X151846874Y-137086692D03*
X153186493Y-138133316D03*
X148614651Y-141223748D03*
X149954270Y-142270372D03*
%TD*%
D10*
%TO.C,S25*%
X256750000Y-135600000D03*
D11*
X262250000Y-129650000D03*
D12*
X262250000Y-135600000D03*
D11*
X267250000Y-131850000D03*
D10*
X267750000Y-135600000D03*
%TD*%
D17*
%TO.C,MH6*%
X272250000Y-126100000D03*
%TD*%
D13*
%TO.C,D26*%
X258440000Y-121600000D03*
D14*
X260600000Y-121600000D03*
X263900000Y-121600000D03*
D15*
X266060000Y-121600000D03*
%TD*%
D13*
%TO.C,D25*%
X258440000Y-140600000D03*
D14*
X260600000Y-140600000D03*
X263900000Y-140600000D03*
D15*
X266060000Y-140600000D03*
%TD*%
D10*
%TO.C,S31*%
X216750000Y-120600000D03*
D11*
X222250000Y-114650000D03*
D12*
X222250000Y-120600000D03*
D11*
X227250000Y-116850000D03*
D10*
X227750000Y-120600000D03*
%TD*%
D13*
%TO.C,D39*%
X178440000Y-95600000D03*
D14*
X180600000Y-95600000D03*
X183900000Y-95600000D03*
D15*
X186060000Y-95600000D03*
%TD*%
D10*
%TO.C,S35*%
X196750000Y-107600000D03*
D11*
X202250000Y-101650000D03*
D12*
X202250000Y-107600000D03*
D11*
X207250000Y-103850000D03*
D10*
X207750000Y-107600000D03*
%TD*%
%TO.C,S26*%
X256750000Y-116600000D03*
D11*
X262250000Y-110650000D03*
D12*
X262250000Y-116600000D03*
D11*
X267250000Y-112850000D03*
D10*
X267750000Y-116600000D03*
%TD*%
%TO.C,S27*%
X256750000Y-97600000D03*
D11*
X262250000Y-91650000D03*
D12*
X262250000Y-97600000D03*
D11*
X267250000Y-93850000D03*
D10*
X267750000Y-97600000D03*
%TD*%
%TO.C,S33*%
X216750000Y-82600000D03*
D11*
X222250000Y-76650000D03*
D12*
X222250000Y-82600000D03*
D11*
X227250000Y-78850000D03*
D10*
X227750000Y-82600000D03*
%TD*%
D17*
%TO.C,MH5*%
X272250000Y-107100000D03*
%TD*%
D10*
%TO.C,S38*%
X176750000Y-109600000D03*
D11*
X182250000Y-103650000D03*
D12*
X182250000Y-109600000D03*
D11*
X187250000Y-105850000D03*
D10*
X187750000Y-109600000D03*
%TD*%
D13*
%TO.C,D35*%
X198440000Y-112600000D03*
D14*
X200600000Y-112600000D03*
X203900000Y-112600000D03*
D15*
X206060000Y-112600000D03*
%TD*%
D13*
%TO.C,D40*%
X198440000Y-152600000D03*
D14*
X200600000Y-152600000D03*
X203900000Y-152600000D03*
D15*
X206060000Y-152600000D03*
%TD*%
D18*
%TO.C,JST1*%
X159650000Y-131100000D03*
D19*
X159650000Y-129100000D03*
%TD*%
D20*
%TO.C,D41*%
X179366121Y-155885639D03*
D21*
X181493308Y-155510558D03*
X184743174Y-154937520D03*
D15*
X186870361Y-154562439D03*
%TD*%
D13*
%TO.C,D22*%
X278440000Y-140600000D03*
D14*
X280600000Y-140600000D03*
X283900000Y-140600000D03*
D15*
X286060000Y-140600000D03*
%TD*%
D13*
%TO.C,D24*%
X278440000Y-102600000D03*
D14*
X280600000Y-102600000D03*
X283900000Y-102600000D03*
D15*
X286060000Y-102600000D03*
%TD*%
D10*
%TO.C,S37*%
X176750000Y-128600000D03*
D11*
X182250000Y-122650000D03*
D12*
X182250000Y-128600000D03*
D11*
X187250000Y-124850000D03*
D10*
X187750000Y-128600000D03*
%TD*%
D17*
%TO.C,MH7*%
X192250000Y-99100000D03*
%TD*%
D10*
%TO.C,S24*%
X276750000Y-97600000D03*
D11*
X282250000Y-91650000D03*
D12*
X282250000Y-97600000D03*
D11*
X287250000Y-93850000D03*
D10*
X287750000Y-97600000D03*
%TD*%
%TO.C,S40*%
X196750000Y-147600000D03*
D11*
X202250000Y-141650000D03*
D12*
X202250000Y-147600000D03*
D11*
X207250000Y-143850000D03*
D10*
X207750000Y-147600000D03*
%TD*%
%TO.C,S36*%
X196750000Y-88600000D03*
D11*
X202250000Y-82650000D03*
D12*
X202250000Y-88600000D03*
D11*
X207250000Y-84850000D03*
D10*
X207750000Y-88600000D03*
%TD*%
D17*
%TO.C,MH8*%
X171489669Y-140331910D03*
%TD*%
D22*
%TO.C,MCU1*%
X170270000Y-85900000D03*
X170270000Y-88440000D03*
X170270000Y-90980000D03*
X170270000Y-93520000D03*
X170270000Y-96060000D03*
X170270000Y-98600000D03*
X170270000Y-101140000D03*
X170270000Y-103680000D03*
X170270000Y-106220000D03*
X170270000Y-108760000D03*
X170270000Y-111300000D03*
X170270000Y-113840000D03*
X155030000Y-113840000D03*
X155030000Y-111300000D03*
X155030000Y-108760000D03*
X155030000Y-106220000D03*
X155030000Y-103680000D03*
X155030000Y-101140000D03*
X155030000Y-98600000D03*
X155030000Y-96060000D03*
X155030000Y-93520000D03*
X155030000Y-90980000D03*
X155030000Y-88440000D03*
X155030000Y-85900000D03*
%TD*%
D10*
%TO.C,S41*%
X176833557Y-151255065D03*
D11*
X181216793Y-144440394D03*
D12*
X182250000Y-150300000D03*
D11*
X186522858Y-145738730D03*
D10*
X187666443Y-149344935D03*
%TD*%
D13*
%TO.C,D29*%
X238440000Y-111600000D03*
D14*
X240600000Y-111600000D03*
X243900000Y-111600000D03*
D15*
X246060000Y-111600000D03*
%TD*%
D13*
%TO.C,D37*%
X178440000Y-133600000D03*
D14*
X180600000Y-133600000D03*
X183900000Y-133600000D03*
D15*
X186060000Y-133600000D03*
%TD*%
D10*
%TO.C,S30*%
X236750000Y-87600000D03*
D11*
X242250000Y-81650000D03*
D12*
X242250000Y-87600000D03*
D11*
X247250000Y-83850000D03*
D10*
X247750000Y-87600000D03*
%TD*%
D13*
%TO.C,D28*%
X238440000Y-130600000D03*
D14*
X240600000Y-130600000D03*
X243900000Y-130600000D03*
D15*
X246060000Y-130600000D03*
%TD*%
D13*
%TO.C,D31*%
X218440000Y-125600000D03*
D14*
X220600000Y-125600000D03*
X223900000Y-125600000D03*
D15*
X226060000Y-125600000D03*
%TD*%
D10*
%TO.C,S39*%
X176750000Y-90600000D03*
D11*
X182250000Y-84650000D03*
D12*
X182250000Y-90600000D03*
D11*
X187250000Y-86850000D03*
D10*
X187750000Y-90600000D03*
%TD*%
%TO.C,S28*%
X236750000Y-125600000D03*
D11*
X242250000Y-119650000D03*
D12*
X242250000Y-125600000D03*
D11*
X247250000Y-121850000D03*
D10*
X247750000Y-125600000D03*
%TD*%
D23*
%TO.C,DISP1*%
X157570000Y-118800000D03*
X160110000Y-118800000D03*
X162650000Y-118800000D03*
X165190000Y-118800000D03*
D22*
X167730000Y-118800000D03*
%TD*%
D10*
%TO.C,S29*%
X236750000Y-106600000D03*
D11*
X242250000Y-100650000D03*
D12*
X242250000Y-106600000D03*
D11*
X247250000Y-102850000D03*
D10*
X247750000Y-106600000D03*
%TD*%
%TO.C,S22*%
X276750000Y-135600000D03*
D11*
X282250000Y-129650000D03*
D12*
X282250000Y-135600000D03*
D11*
X287250000Y-131850000D03*
D10*
X287750000Y-135600000D03*
%TD*%
D13*
%TO.C,D23*%
X278440000Y-121600000D03*
D14*
X280600000Y-121600000D03*
X283900000Y-121600000D03*
D15*
X286060000Y-121600000D03*
%TD*%
D10*
%TO.C,S23*%
X276750000Y-116600000D03*
D11*
X282250000Y-110650000D03*
D12*
X282250000Y-116600000D03*
D11*
X287250000Y-112850000D03*
D10*
X287750000Y-116600000D03*
%TD*%
D13*
%TO.C,D30*%
X238440000Y-92600000D03*
D14*
X240600000Y-92600000D03*
X243900000Y-92600000D03*
D15*
X246060000Y-92600000D03*
%TD*%
D13*
%TO.C,D33*%
X218440000Y-87600000D03*
D14*
X220600000Y-87600000D03*
X223900000Y-87600000D03*
D15*
X226060000Y-87600000D03*
%TD*%
D24*
%TO.C,D42*%
X154727777Y-150193692D03*
D25*
X155466541Y-152223428D03*
X156595207Y-155324414D03*
D15*
X157333971Y-157354150D03*
%TD*%
D10*
%TO.C,S42*%
X158848226Y-146895511D03*
D11*
X166320508Y-150028800D03*
D12*
X160729337Y-152063820D03*
D11*
X165963285Y-155479708D03*
D10*
X162610448Y-157232129D03*
%TD*%
D13*
%TO.C,D27*%
X258440000Y-102600000D03*
D14*
X260600000Y-102600000D03*
X263900000Y-102600000D03*
D15*
X266060000Y-102600000D03*
%TD*%
D10*
%TO.C,S34*%
X196750000Y-126600000D03*
D11*
X202250000Y-120650000D03*
D12*
X202250000Y-126600000D03*
D11*
X207250000Y-122850000D03*
D10*
X207750000Y-126600000D03*
%TD*%
D13*
%TO.C,D34*%
X198440000Y-131600000D03*
D14*
X200600000Y-131600000D03*
X203900000Y-131600000D03*
D15*
X206060000Y-131600000D03*
%TD*%
D13*
%TO.C,D32*%
X218440000Y-106600000D03*
D14*
X220600000Y-106600000D03*
X223900000Y-106600000D03*
D15*
X226060000Y-106600000D03*
%TD*%
D26*
%TO.C,PWR1*%
X156085000Y-132250000D03*
X156085000Y-124950000D03*
D27*
X154975000Y-130100000D03*
X154975000Y-127100000D03*
D26*
X153875000Y-132250000D03*
X153875000Y-124950000D03*
D28*
X156735000Y-126350000D03*
X156735000Y-129350000D03*
X156735000Y-130850000D03*
%TD*%
D13*
%TO.C,D36*%
X198440000Y-93600000D03*
D14*
X200600000Y-93600000D03*
X203900000Y-93600000D03*
D15*
X206060000Y-93600000D03*
%TD*%
M02*
