M48
; DRILL file KiCad 10.0.0 date 2026-04-13T15:51:00
; FORMAT={-:-/ absolute / metric / decimal}
; #@! TF.CreationDate,2026-04-13T15:51:00-04:00
; #@! TF.GenerationSoftware,Kicad,Pcbnew,10.0.0
; #@! TF.FileFunction,Plated,1,2,PTH
FMAT,2
METRIC
; #@! TA.AperFunction,Plated,PTH,ViaDrill
T1C0.300
; #@! TA.AperFunction,Plated,PTH,ComponentDrill
T2C0.750
; #@! TA.AperFunction,Plated,PTH,ComponentDrill
T3C0.991
; #@! TA.AperFunction,Plated,PTH,ComponentDrill
T4C1.000
%
G90
G05
T1
X166.529Y-113.08
X167.709Y-113.09
X172.479Y-118.89
X173.349Y-97.03
X174.709Y-112.09
X174.979Y-127.73
X176.149Y-113.29
X176.239Y-95.62
X179.069Y-106.8
X198.829Y-95.54
X218.929Y-112.64
X238.369Y-115.64
X257.299Y-123.48
T2
X159.65Y-129.1
X159.65Y-131.1
T3
X154.728Y-150.194
X157.334Y-157.354
X178.44Y-95.6
X178.44Y-114.6
X178.44Y-133.6
X179.366Y-155.886
X186.06Y-95.6
X186.06Y-114.6
X186.06Y-133.6
X186.87Y-154.562
X198.44Y-93.6
X198.44Y-112.6
X198.44Y-131.6
X198.44Y-152.6
X206.06Y-93.6
X206.06Y-112.6
X206.06Y-131.6
X206.06Y-152.6
X218.44Y-87.6
X218.44Y-106.6
X218.44Y-125.6
X226.06Y-87.6
X226.06Y-106.6
X226.06Y-125.6
X238.44Y-92.6
X238.44Y-111.6
X238.44Y-130.6
X246.06Y-92.6
X246.06Y-111.6
X246.06Y-130.6
X258.44Y-102.6
X258.44Y-121.6
X258.44Y-140.6
X266.06Y-102.6
X266.06Y-121.6
X266.06Y-140.6
X278.44Y-102.6
X278.44Y-121.6
X278.44Y-140.6
X286.06Y-102.6
X286.06Y-121.6
X286.06Y-140.6
T4
X155.03Y-85.9
X155.03Y-88.44
X155.03Y-90.98
X155.03Y-93.52
X155.03Y-96.06
X155.03Y-98.6
X155.03Y-101.14
X155.03Y-103.68
X155.03Y-106.22
X155.03Y-108.76
X155.03Y-111.3
X155.03Y-113.84
X157.57Y-118.8
X160.11Y-118.8
X162.65Y-118.8
X165.19Y-118.8
X167.73Y-118.8
X170.27Y-85.9
X170.27Y-88.44
X170.27Y-90.98
X170.27Y-93.52
X170.27Y-96.06
X170.27Y-98.6
X170.27Y-101.14
X170.27Y-103.68
X170.27Y-106.22
X170.27Y-108.76
X170.27Y-111.3
X170.27Y-113.84
M30
