M48
; DRILL file KiCad 10.0.0 date 2026-04-13T15:51:00
; FORMAT={-:-/ absolute / metric / decimal}
; #@! TF.CreationDate,2026-04-13T15:51:00-04:00
; #@! TF.GenerationSoftware,Kicad,Pcbnew,10.0.0
; #@! TF.FileFunction,NonPlated,1,2,NPTH
FMAT,2
METRIC
; #@! TA.AperFunction,NonPlated,NPTH,ComponentDrill
T1C0.900
; #@! TA.AperFunction,NonPlated,NPTH,ComponentDrill
T2C1.702
; #@! TA.AperFunction,NonPlated,NPTH,ComponentDrill
T3C2.200
; #@! TA.AperFunction,NonPlated,NPTH,ComponentDrill
T4C3.000
; #@! TA.AperFunction,NonPlated,NPTH,ComponentDrill
T5C3.429
%
G90
G05
T1
X154.975Y-127.1
X154.975Y-130.1
T2
X158.848Y-146.896
X162.61Y-157.232
X176.75Y-90.6
X176.75Y-109.6
X176.75Y-128.6
X176.834Y-151.255
X187.666Y-149.345
X187.75Y-90.6
X187.75Y-109.6
X187.75Y-128.6
X196.75Y-88.6
X196.75Y-107.6
X196.75Y-126.6
X196.75Y-147.6
X207.75Y-88.6
X207.75Y-107.6
X207.75Y-126.6
X207.75Y-147.6
X216.75Y-82.6
X216.75Y-101.6
X216.75Y-120.6
X227.75Y-82.6
X227.75Y-101.6
X227.75Y-120.6
X236.75Y-87.6
X236.75Y-106.6
X236.75Y-125.6
X247.75Y-87.6
X247.75Y-106.6
X247.75Y-125.6
X256.75Y-97.6
X256.75Y-116.6
X256.75Y-135.6
X267.75Y-97.6
X267.75Y-116.6
X267.75Y-135.6
X276.75Y-97.6
X276.75Y-116.6
X276.75Y-135.6
X287.75Y-97.6
X287.75Y-116.6
X287.75Y-135.6
T3
X171.49Y-140.332
X192.25Y-99.1
X272.25Y-107.1
X272.25Y-126.1
T4
X165.963Y-155.48
X166.321Y-150.029
X181.217Y-144.44
X182.25Y-84.65
X182.25Y-103.65
X182.25Y-122.65
X186.523Y-145.739
X187.25Y-86.85
X187.25Y-105.85
X187.25Y-124.85
X202.25Y-82.65
X202.25Y-101.65
X202.25Y-120.65
X202.25Y-141.65
X207.25Y-84.85
X207.25Y-103.85
X207.25Y-122.85
X207.25Y-143.85
X222.25Y-76.65
X222.25Y-95.65
X222.25Y-114.65
X227.25Y-78.85
X227.25Y-97.85
X227.25Y-116.85
X242.25Y-81.65
X242.25Y-100.65
X242.25Y-119.65
X247.25Y-83.85
X247.25Y-102.85
X247.25Y-121.85
X262.25Y-91.65
X262.25Y-110.65
X262.25Y-129.65
X267.25Y-93.85
X267.25Y-112.85
X267.25Y-131.85
X282.25Y-91.65
X282.25Y-110.65
X282.25Y-129.65
X287.25Y-93.85
X287.25Y-112.85
X287.25Y-131.85
T5
X160.729Y-152.064
X182.25Y-90.6
X182.25Y-109.6
X182.25Y-128.6
X182.25Y-150.3
X202.25Y-88.6
X202.25Y-107.6
X202.25Y-126.6
X202.25Y-147.6
X222.25Y-82.6
X222.25Y-101.6
X222.25Y-120.6
X242.25Y-87.6
X242.25Y-106.6
X242.25Y-125.6
X262.25Y-97.6
X262.25Y-116.6
X262.25Y-135.6
X282.25Y-97.6
X282.25Y-116.6
X282.25Y-135.6
M30
