0
SECTION
2
HEADER
9
$INSUNITS
70
4
0
ENDSEC
0
SECTION
2
TABLES
0
TABLE
2
LTYPE
0
LTYPE
72
65
70
0
2
CONTINUOUS
3
______
73
0
40
0
0
LTYPE
72
65
70
0
2
DASHED
3
_ _ _ 
73
2
40
7.5
49
5
49
-2.5
0
LTYPE
72
65
70
0
2
DOTTED
3
. . . 
73
2
40
1.5
49
0.5
49
-1
0
ENDTAB
0
TABLE
2
LAYER
0
ENDTAB
0
ENDSEC
0
SECTION
2
ENTITIES
0
LINE
8
0
6
CONTINUOUS
10
89.25
20
-107.5
11
89.25
21
-54.5
0
LINE
8
0
6
CONTINUOUS
10
91.25
20
-52.5
11
127.25
21
-52.5
0
LINE
8
0
6
CONTINUOUS
10
129.25
20
-50.5
11
129.25
21
-44.5
0
LINE
8
0
6
CONTINUOUS
10
131.25
20
-42.5
11
148
21
-42.5
0
LINE
8
0
6
CONTINUOUS
10
150
20
-40.5
11
150
21
-39.5
0
LINE
8
0
6
CONTINUOUS
10
152
20
-37.5
11
168.75
21
-37.5
0
LINE
8
0
6
CONTINUOUS
10
170.75
20
-39.5
11
170.75
21
-41.5
0
LINE
8
0
6
CONTINUOUS
10
172.75
20
-43.5
11
190
21
-43.5
0
LINE
8
0
6
CONTINUOUS
10
190
20
-43.5
11
190
21
-45.5
0
LINE
8
0
6
CONTINUOUS
10
190
20
-45.5
11
227.5
21
-45.5
0
LINE
8
0
6
CONTINUOUS
10
229.5
20
-47.5
11
229.5
21
-97.0674401
0
LINE
8
0
6
CONTINUOUS
10
229.9172858
20
-98.2901485
11
234.9046393
21
-104.7459437
0
LINE
8
0
6
CONTINUOUS
10
235.2013103
20
-106.6526923
11
225.9943676
21
-131.9485596
0
LINE
8
0
6
CONTINUOUS
10
223.450625
20
-133.1509524
11
207.9339399
21
-127.6863407
0
LINE
8
0
6
CONTINUOUS
10
207.8015972
20
-127.6448316
11
188.721761
21
-122.3797617
0
LINE
8
0
6
CONTINUOUS
10
188.2747702
20
-122.3095119
11
171.1649762
21
-121.581483
0
LINE
8
0
6
CONTINUOUS
10
169.25
20
-119.5832911
11
169.25
21
-96.5
0
LINE
8
0
6
CONTINUOUS
10
167.25
20
-94.5
11
152
21
-94.5
0
LINE
8
0
6
CONTINUOUS
10
150
20
-96.5
11
150
21
-97.5
0
LINE
8
0
6
CONTINUOUS
10
148
20
-99.5
11
132
21
-99.5
0
LINE
8
0
6
CONTINUOUS
10
130
20
-101.5
11
130
21
-107.5
0
LINE
8
0
6
CONTINUOUS
10
128
20
-109.5
11
91.25
21
-109.5
0
ARC
8
0
6
CONTINUOUS
10
91.25
20
-54.5
40
2
50
90
51
180
0
ARC
8
0
6
CONTINUOUS
10
127.25
20
-50.5
40
2
50
270
51
0
0
ARC
8
0
6
CONTINUOUS
10
131.25
20
-44.5
40
2
50
90
51
180
0
ARC
8
0
6
CONTINUOUS
10
148
20
-40.5
40
2
50
270
51
0
0
ARC
8
0
6
CONTINUOUS
10
152
20
-39.5
40
2
50
90
51
180
0
ARC
8
0
6
CONTINUOUS
10
168.75
20
-39.5
40
2
50
0
51
90
0
ARC
8
0
6
CONTINUOUS
10
172.75
20
-41.5
40
2
50
180
51
270
0
ARC
8
0
6
CONTINUOUS
10
227.5
20
-47.5
40
2
50
0
51
90
0
ARC
8
0
6
CONTINUOUS
10
231.5
20
-97.0674401
40
2
50
180
51
217.6874846
0
ARC
8
0
6
CONTINUOUS
10
233.3219251
20
-105.9686521
40
2
50
340.0000019
51
37.6874846
0
ARC
8
0
6
CONTINUOUS
10
224.1149824
20
-131.2645194
40
2
50
250.5989334
51
340.0000019
0
ARC
8
0
6
CONTINUOUS
10
207.2695826
20
-129.5727737
40
2
50
70.5989334
51
74.5731845
0
ARC
8
0
6
CONTINUOUS
10
188.1897464
20
-124.3077038
40
2
50
74.5731845
51
87.5635134
0
ARC
8
0
6
CONTINUOUS
10
171.25
20
-119.5832911
40
2
50
180
51
267.5635134
0
ARC
8
0
6
CONTINUOUS
10
167.25
20
-96.5
40
2
50
0
51
90
0
ARC
8
0
6
CONTINUOUS
10
152
20
-96.5
40
2
50
90
51
180
0
ARC
8
0
6
CONTINUOUS
10
148
20
-97.5
40
2
50
270
51
0
0
ARC
8
0
6
CONTINUOUS
10
132
20
-101.5
40
2
50
90
51
180
0
ARC
8
0
6
CONTINUOUS
10
128
20
-107.5
40
2
50
270
51
0
0
ARC
8
0
6
CONTINUOUS
10
91.25
20
-107.5
40
2
50
180
51
270
0
ENDSEC
0
EOF