0
SECTION
2
HEADER
9
$INSUNITS
70
4
0
ENDSEC
0
SECTION
2
TABLES
0
TABLE
2
LTYPE
0
LTYPE
72
65
70
0
2
CONTINUOUS
3
______
73
0
40
0
0
LTYPE
72
65
70
0
2
DASHED
3
_ _ _ 
73
2
40
7.5
49
5
49
-2.5
0
LTYPE
72
65
70
0
2
DOTTED
3
. . . 
73
2
40
1.5
49
0.5
49
-1
0
ENDTAB
0
TABLE
2
LAYER
0
ENDTAB
0
ENDSEC
0
SECTION
2
ENTITIES
0
LINE
8
0
6
CONTINUOUS
10
93
20
-108.5
11
107
21
-108.5
0
LINE
8
0
6
CONTINUOUS
10
109
20
-106.5
11
109
21
-93.5
0
LINE
8
0
6
CONTINUOUS
10
107
20
-91.5
11
93
21
-91.5
0
LINE
8
0
6
CONTINUOUS
10
91
20
-93.5
11
91
21
-106.5
0
LINE
8
0
6
CONTINUOUS
10
93
20
-89.5
11
107
21
-89.5
0
LINE
8
0
6
CONTINUOUS
10
109
20
-87.5
11
109
21
-74.5
0
LINE
8
0
6
CONTINUOUS
10
107
20
-72.5
11
93
21
-72.5
0
LINE
8
0
6
CONTINUOUS
10
91
20
-74.5
11
91
21
-87.5
0
LINE
8
0
6
CONTINUOUS
10
93
20
-70.5
11
107
21
-70.5
0
LINE
8
0
6
CONTINUOUS
10
109
20
-68.5
11
109
21
-55.5
0
LINE
8
0
6
CONTINUOUS
10
107
20
-53.5
11
93
21
-53.5
0
LINE
8
0
6
CONTINUOUS
10
91
20
-55.5
11
91
21
-68.5
0
LINE
8
0
6
CONTINUOUS
10
113
20
-108.5
11
127
21
-108.5
0
LINE
8
0
6
CONTINUOUS
10
129
20
-106.5
11
129
21
-93.5
0
LINE
8
0
6
CONTINUOUS
10
127
20
-91.5
11
113
21
-91.5
0
LINE
8
0
6
CONTINUOUS
10
111
20
-93.5
11
111
21
-106.5
0
LINE
8
0
6
CONTINUOUS
10
113
20
-89.5
11
127
21
-89.5
0
LINE
8
0
6
CONTINUOUS
10
129
20
-87.5
11
129
21
-74.5
0
LINE
8
0
6
CONTINUOUS
10
127
20
-72.5
11
113
21
-72.5
0
LINE
8
0
6
CONTINUOUS
10
111
20
-74.5
11
111
21
-87.5
0
LINE
8
0
6
CONTINUOUS
10
113
20
-70.5
11
127
21
-70.5
0
LINE
8
0
6
CONTINUOUS
10
129
20
-68.5
11
129
21
-55.5
0
LINE
8
0
6
CONTINUOUS
10
127
20
-53.5
11
113
21
-53.5
0
LINE
8
0
6
CONTINUOUS
10
111
20
-55.5
11
111
21
-68.5
0
LINE
8
0
6
CONTINUOUS
10
133
20
-98.5
11
147
21
-98.5
0
LINE
8
0
6
CONTINUOUS
10
149
20
-96.5
11
149
21
-83.5
0
LINE
8
0
6
CONTINUOUS
10
147
20
-81.5
11
133
21
-81.5
0
LINE
8
0
6
CONTINUOUS
10
131
20
-83.5
11
131
21
-96.5
0
LINE
8
0
6
CONTINUOUS
10
133
20
-79.5
11
147
21
-79.5
0
LINE
8
0
6
CONTINUOUS
10
149
20
-77.5
11
149
21
-64.5
0
LINE
8
0
6
CONTINUOUS
10
147
20
-62.5
11
133
21
-62.5
0
LINE
8
0
6
CONTINUOUS
10
131
20
-64.5
11
131
21
-77.5
0
LINE
8
0
6
CONTINUOUS
10
133
20
-60.5
11
147
21
-60.5
0
LINE
8
0
6
CONTINUOUS
10
149
20
-58.5
11
149
21
-45.5
0
LINE
8
0
6
CONTINUOUS
10
147
20
-43.5
11
133
21
-43.5
0
LINE
8
0
6
CONTINUOUS
10
131
20
-45.5
11
131
21
-58.5
0
LINE
8
0
6
CONTINUOUS
10
153
20
-93.5
11
167
21
-93.5
0
LINE
8
0
6
CONTINUOUS
10
169
20
-91.5
11
169
21
-78.5
0
LINE
8
0
6
CONTINUOUS
10
167
20
-76.5
11
153
21
-76.5
0
LINE
8
0
6
CONTINUOUS
10
151
20
-78.5
11
151
21
-91.5
0
LINE
8
0
6
CONTINUOUS
10
153
20
-74.5
11
167
21
-74.5
0
LINE
8
0
6
CONTINUOUS
10
169
20
-72.5
11
169
21
-59.5
0
LINE
8
0
6
CONTINUOUS
10
167
20
-57.5
11
153
21
-57.5
0
LINE
8
0
6
CONTINUOUS
10
151
20
-59.5
11
151
21
-72.5
0
LINE
8
0
6
CONTINUOUS
10
153
20
-55.5
11
167
21
-55.5
0
LINE
8
0
6
CONTINUOUS
10
169
20
-53.5
11
169
21
-40.5
0
LINE
8
0
6
CONTINUOUS
10
167
20
-38.5
11
153
21
-38.5
0
LINE
8
0
6
CONTINUOUS
10
151
20
-40.5
11
151
21
-53.5
0
LINE
8
0
6
CONTINUOUS
10
173
20
-99.5
11
187
21
-99.5
0
LINE
8
0
6
CONTINUOUS
10
189
20
-97.5
11
189
21
-84.5
0
LINE
8
0
6
CONTINUOUS
10
187
20
-82.5
11
173
21
-82.5
0
LINE
8
0
6
CONTINUOUS
10
171
20
-84.5
11
171
21
-97.5
0
LINE
8
0
6
CONTINUOUS
10
173
20
-80.5
11
187
21
-80.5
0
LINE
8
0
6
CONTINUOUS
10
189
20
-78.5
11
189
21
-65.5
0
LINE
8
0
6
CONTINUOUS
10
187
20
-63.5
11
173
21
-63.5
0
LINE
8
0
6
CONTINUOUS
10
171
20
-65.5
11
171
21
-78.5
0
LINE
8
0
6
CONTINUOUS
10
173
20
-61.5
11
187
21
-61.5
0
LINE
8
0
6
CONTINUOUS
10
189
20
-59.5
11
189
21
-46.5
0
LINE
8
0
6
CONTINUOUS
10
187
20
-44.5
11
173
21
-44.5
0
LINE
8
0
6
CONTINUOUS
10
171
20
-46.5
11
171
21
-59.5
0
LINE
8
0
6
CONTINUOUS
10
193
20
-101.5
11
207
21
-101.5
0
LINE
8
0
6
CONTINUOUS
10
209
20
-99.5
11
209
21
-86.5
0
LINE
8
0
6
CONTINUOUS
10
207
20
-84.5
11
193
21
-84.5
0
LINE
8
0
6
CONTINUOUS
10
191
20
-86.5
11
191
21
-99.5
0
LINE
8
0
6
CONTINUOUS
10
193
20
-82.5
11
207
21
-82.5
0
LINE
8
0
6
CONTINUOUS
10
209
20
-80.5
11
209
21
-67.5
0
LINE
8
0
6
CONTINUOUS
10
207
20
-65.5
11
193
21
-65.5
0
LINE
8
0
6
CONTINUOUS
10
191
20
-67.5
11
191
21
-80.5
0
LINE
8
0
6
CONTINUOUS
10
193
20
-63.5
11
207
21
-63.5
0
LINE
8
0
6
CONTINUOUS
10
209
20
-61.5
11
209
21
-48.5
0
LINE
8
0
6
CONTINUOUS
10
207
20
-46.5
11
193
21
-46.5
0
LINE
8
0
6
CONTINUOUS
10
191
20
-48.5
11
191
21
-61.5
0
LINE
8
0
6
CONTINUOUS
10
173
20
-120.5
11
187
21
-120.5
0
LINE
8
0
6
CONTINUOUS
10
189
20
-118.5
11
189
21
-105.5
0
LINE
8
0
6
CONTINUOUS
10
187
20
-103.5
11
173
21
-103.5
0
LINE
8
0
6
CONTINUOUS
10
171
20
-105.5
11
171
21
-118.5
0
LINE
8
0
6
CONTINUOUS
10
191.6303362
20
-121.8553286
11
205.4176448
21
-124.2864031
0
LINE
8
0
6
CONTINUOUS
10
207.7345566
20
-122.664084
11
209.9919829
21
-109.8615832
0
LINE
8
0
6
CONTINUOUS
10
208.3696638
20
-107.5446714
11
194.5823552
21
-105.1135969
0
LINE
8
0
6
CONTINUOUS
10
192.2654434
20
-106.735916
11
190.0080171
21
-119.5384168
0
LINE
8
0
6
CONTINUOUS
10
386.041326
20
-108.5
11
400.041326
21
-108.5
0
LINE
8
0
6
CONTINUOUS
10
402.041326
20
-106.5
11
402.041326
21
-93.5
0
LINE
8
0
6
CONTINUOUS
10
400.041326
20
-91.5
11
386.041326
21
-91.5
0
LINE
8
0
6
CONTINUOUS
10
384.041326
20
-93.5
11
384.041326
21
-106.5
0
LINE
8
0
6
CONTINUOUS
10
386.041326
20
-89.5
11
400.041326
21
-89.5
0
LINE
8
0
6
CONTINUOUS
10
402.041326
20
-87.5
11
402.041326
21
-74.5
0
LINE
8
0
6
CONTINUOUS
10
400.041326
20
-72.5
11
386.041326
21
-72.5
0
LINE
8
0
6
CONTINUOUS
10
384.041326
20
-74.5
11
384.041326
21
-87.5
0
LINE
8
0
6
CONTINUOUS
10
386.041326
20
-70.5
11
400.041326
21
-70.5
0
LINE
8
0
6
CONTINUOUS
10
402.041326
20
-68.5
11
402.041326
21
-55.5
0
LINE
8
0
6
CONTINUOUS
10
400.041326
20
-53.5
11
386.041326
21
-53.5
0
LINE
8
0
6
CONTINUOUS
10
384.041326
20
-55.5
11
384.041326
21
-68.5
0
LINE
8
0
6
CONTINUOUS
10
366.041326
20
-108.5
11
380.041326
21
-108.5
0
LINE
8
0
6
CONTINUOUS
10
382.041326
20
-106.5
11
382.041326
21
-93.5
0
LINE
8
0
6
CONTINUOUS
10
380.041326
20
-91.5
11
366.041326
21
-91.5
0
LINE
8
0
6
CONTINUOUS
10
364.041326
20
-93.5
11
364.041326
21
-106.5
0
LINE
8
0
6
CONTINUOUS
10
366.041326
20
-89.5
11
380.041326
21
-89.5
0
LINE
8
0
6
CONTINUOUS
10
382.041326
20
-87.5
11
382.041326
21
-74.5
0
LINE
8
0
6
CONTINUOUS
10
380.041326
20
-72.5
11
366.041326
21
-72.5
0
LINE
8
0
6
CONTINUOUS
10
364.041326
20
-74.5
11
364.041326
21
-87.5
0
LINE
8
0
6
CONTINUOUS
10
366.041326
20
-70.5
11
380.041326
21
-70.5
0
LINE
8
0
6
CONTINUOUS
10
382.041326
20
-68.5
11
382.041326
21
-55.5
0
LINE
8
0
6
CONTINUOUS
10
380.041326
20
-53.5
11
366.041326
21
-53.5
0
LINE
8
0
6
CONTINUOUS
10
364.041326
20
-55.5
11
364.041326
21
-68.5
0
LINE
8
0
6
CONTINUOUS
10
346.041326
20
-98.5
11
360.041326
21
-98.5
0
LINE
8
0
6
CONTINUOUS
10
362.041326
20
-96.5
11
362.041326
21
-83.5
0
LINE
8
0
6
CONTINUOUS
10
360.041326
20
-81.5
11
346.041326
21
-81.5
0
LINE
8
0
6
CONTINUOUS
10
344.041326
20
-83.5
11
344.041326
21
-96.5
0
LINE
8
0
6
CONTINUOUS
10
346.041326
20
-79.5
11
360.041326
21
-79.5
0
LINE
8
0
6
CONTINUOUS
10
362.041326
20
-77.5
11
362.041326
21
-64.5
0
LINE
8
0
6
CONTINUOUS
10
360.041326
20
-62.5
11
346.041326
21
-62.5
0
LINE
8
0
6
CONTINUOUS
10
344.041326
20
-64.5
11
344.041326
21
-77.5
0
LINE
8
0
6
CONTINUOUS
10
346.041326
20
-60.5
11
360.041326
21
-60.5
0
LINE
8
0
6
CONTINUOUS
10
362.041326
20
-58.5
11
362.041326
21
-45.5
0
LINE
8
0
6
CONTINUOUS
10
360.041326
20
-43.5
11
346.041326
21
-43.5
0
LINE
8
0
6
CONTINUOUS
10
344.041326
20
-45.5
11
344.041326
21
-58.5
0
LINE
8
0
6
CONTINUOUS
10
326.041326
20
-93.5
11
340.041326
21
-93.5
0
LINE
8
0
6
CONTINUOUS
10
342.041326
20
-91.5
11
342.041326
21
-78.5
0
LINE
8
0
6
CONTINUOUS
10
340.041326
20
-76.5
11
326.041326
21
-76.5
0
LINE
8
0
6
CONTINUOUS
10
324.041326
20
-78.5
11
324.041326
21
-91.5
0
LINE
8
0
6
CONTINUOUS
10
326.041326
20
-74.5
11
340.041326
21
-74.5
0
LINE
8
0
6
CONTINUOUS
10
342.041326
20
-72.5
11
342.041326
21
-59.5
0
LINE
8
0
6
CONTINUOUS
10
340.041326
20
-57.5
11
326.041326
21
-57.5
0
LINE
8
0
6
CONTINUOUS
10
324.041326
20
-59.5
11
324.041326
21
-72.5
0
LINE
8
0
6
CONTINUOUS
10
326.041326
20
-55.5
11
340.041326
21
-55.5
0
LINE
8
0
6
CONTINUOUS
10
342.041326
20
-53.5
11
342.041326
21
-40.5
0
LINE
8
0
6
CONTINUOUS
10
340.041326
20
-38.5
11
326.041326
21
-38.5
0
LINE
8
0
6
CONTINUOUS
10
324.041326
20
-40.5
11
324.041326
21
-53.5
0
LINE
8
0
6
CONTINUOUS
10
306.041326
20
-99.5
11
320.041326
21
-99.5
0
LINE
8
0
6
CONTINUOUS
10
322.041326
20
-97.5
11
322.041326
21
-84.5
0
LINE
8
0
6
CONTINUOUS
10
320.041326
20
-82.5
11
306.041326
21
-82.5
0
LINE
8
0
6
CONTINUOUS
10
304.041326
20
-84.5
11
304.041326
21
-97.5
0
LINE
8
0
6
CONTINUOUS
10
306.041326
20
-80.5
11
320.041326
21
-80.5
0
LINE
8
0
6
CONTINUOUS
10
322.041326
20
-78.5
11
322.041326
21
-65.5
0
LINE
8
0
6
CONTINUOUS
10
320.041326
20
-63.5
11
306.041326
21
-63.5
0
LINE
8
0
6
CONTINUOUS
10
304.041326
20
-65.5
11
304.041326
21
-78.5
0
LINE
8
0
6
CONTINUOUS
10
306.041326
20
-61.5
11
320.041326
21
-61.5
0
LINE
8
0
6
CONTINUOUS
10
322.041326
20
-59.5
11
322.041326
21
-46.5
0
LINE
8
0
6
CONTINUOUS
10
320.041326
20
-44.5
11
306.041326
21
-44.5
0
LINE
8
0
6
CONTINUOUS
10
304.041326
20
-46.5
11
304.041326
21
-59.5
0
LINE
8
0
6
CONTINUOUS
10
286.041326
20
-101.5
11
300.041326
21
-101.5
0
LINE
8
0
6
CONTINUOUS
10
302.041326
20
-99.5
11
302.041326
21
-86.5
0
LINE
8
0
6
CONTINUOUS
10
300.041326
20
-84.5
11
286.041326
21
-84.5
0
LINE
8
0
6
CONTINUOUS
10
284.041326
20
-86.5
11
284.041326
21
-99.5
0
LINE
8
0
6
CONTINUOUS
10
286.041326
20
-82.5
11
300.041326
21
-82.5
0
LINE
8
0
6
CONTINUOUS
10
302.041326
20
-80.5
11
302.041326
21
-67.5
0
LINE
8
0
6
CONTINUOUS
10
300.041326
20
-65.5
11
286.041326
21
-65.5
0
LINE
8
0
6
CONTINUOUS
10
284.041326
20
-67.5
11
284.041326
21
-80.5
0
LINE
8
0
6
CONTINUOUS
10
286.041326
20
-63.5
11
300.041326
21
-63.5
0
LINE
8
0
6
CONTINUOUS
10
302.041326
20
-61.5
11
302.041326
21
-48.5
0
LINE
8
0
6
CONTINUOUS
10
300.041326
20
-46.5
11
286.041326
21
-46.5
0
LINE
8
0
6
CONTINUOUS
10
284.041326
20
-48.5
11
284.041326
21
-61.5
0
LINE
8
0
6
CONTINUOUS
10
306.041326
20
-120.5
11
320.041326
21
-120.5
0
LINE
8
0
6
CONTINUOUS
10
322.041326
20
-118.5
11
322.041326
21
-105.5
0
LINE
8
0
6
CONTINUOUS
10
320.041326
20
-103.5
11
306.041326
21
-103.5
0
LINE
8
0
6
CONTINUOUS
10
304.041326
20
-105.5
11
304.041326
21
-118.5
0
LINE
8
0
6
CONTINUOUS
10
287.6236812
20
-124.2864031
11
301.4109898
21
-121.8553286
0
LINE
8
0
6
CONTINUOUS
10
303.0333089
20
-119.5384168
11
300.7758826
21
-106.735916
0
LINE
8
0
6
CONTINUOUS
10
298.4589708
20
-105.1135969
11
284.6716622
21
-107.5446714
0
LINE
8
0
6
CONTINUOUS
10
283.0493431
20
-109.8615832
11
285.3067694
21
-122.664084
0
LINE
8
0
6
CONTINUOUS
10
225.5748186
20
-130.1774566
11
233.4412819
21
-108.5645262
0
LINE
8
0
6
CONTINUOUS
10
232.2459369
20
-106.0011008
11
220.0299328
21
-101.5548389
0
LINE
8
0
6
CONTINUOUS
10
217.4665074
20
-102.750184
11
209.6000441
21
-124.3631144
0
LINE
8
0
6
CONTINUOUS
10
210.7953891
20
-126.9265398
11
223.0113932
21
-131.3728017
0
LINE
8
0
6
CONTINUOUS
10
259.6000441
20
-108.5645262
11
267.4665074
21
-130.1774566
0
LINE
8
0
6
CONTINUOUS
10
270.0299328
20
-131.3728017
11
282.2459369
21
-126.9265398
0
LINE
8
0
6
CONTINUOUS
10
283.4412819
20
-124.3631144
11
275.5748186
21
-102.750184
0
LINE
8
0
6
CONTINUOUS
10
273.0113932
20
-101.5548389
11
260.7953891
21
-106.0011008
0
LINE
8
0
6
CONTINUOUS
10
228.6
20
-84.5
11
228.6
21
-48.5
0
LINE
8
0
6
CONTINUOUS
10
226.6
20
-46.5
11
212.6
21
-46.5
0
LINE
8
0
6
CONTINUOUS
10
210.6
20
-84.5
11
210.6
21
-48.5
0
LINE
8
0
6
CONTINUOUS
10
282.441326
20
-84.5
11
282.441326
21
-48.5
0
LINE
8
0
6
CONTINUOUS
10
280.441326
20
-46.5
11
266.441326
21
-46.5
0
LINE
8
0
6
CONTINUOUS
10
264.441326
20
-84.5
11
264.441326
21
-48.5
0
ARC
8
0
6
CONTINUOUS
10
226.6
20
-48.5
40
2
50
0
51
90
0
ARC
8
0
6
CONTINUOUS
10
212.6
20
-48.5
40
2
50
90
51
180
0
ARC
8
0
6
CONTINUOUS
10
280.441326
20
-48.5
40
2
50
0
51
90
0
ARC
8
0
6
CONTINUOUS
10
266.441326
20
-48.5
40
2
50
90
51
180
0
ARC
8
0
6
CONTINUOUS
10
269.3458926
20
-129.4934164
40
2
50
199.9999981
51
289.9999981
0
ARC
8
0
6
CONTINUOUS
10
281.5618967
20
-125.0471546
40
2
50
289.9999981
51
19.9999981
0
ARC
8
0
6
CONTINUOUS
10
273.6954334
20
-103.4342242
40
2
50
19.9999981
51
109.9999981
0
ARC
8
0
6
CONTINUOUS
10
261.4794293
20
-107.880486
40
2
50
109.9999981
51
199.9999981
0
ARC
8
0
6
CONTINUOUS
10
231.5618967
20
-107.880486
40
2
50
340.0000019
51
70.0000019
0
ARC
8
0
6
CONTINUOUS
10
219.3458926
20
-103.4342242
40
2
50
70.0000019
51
160.0000019
0
ARC
8
0
6
CONTINUOUS
10
211.4794293
20
-125.0471546
40
2
50
160.0000019
51
250.0000019
0
ARC
8
0
6
CONTINUOUS
10
223.6954334
20
-129.4934164
40
2
50
250.0000019
51
340.0000019
0
ARC
8
0
6
CONTINUOUS
10
205.7649411
20
-122.3167876
40
2
50
259.9999992
51
349.9999992
0
ARC
8
0
6
CONTINUOUS
10
208.0223674
20
-109.5142869
40
2
50
349.9999992
51
79.9999992
0
ARC
8
0
6
CONTINUOUS
10
194.2350589
20
-107.0832124
40
2
50
79.9999992
51
169.9999992
0
ARC
8
0
6
CONTINUOUS
10
191.9776326
20
-119.8857131
40
2
50
169.9999992
51
259.9999992
0
ARC
8
0
6
CONTINUOUS
10
301.0636934
20
-119.8857131
40
2
50
280.0000008
51
10.0000008
0
ARC
8
0
6
CONTINUOUS
10
298.8062671
20
-107.0832124
40
2
50
10.0000008
51
100.0000008
0
ARC
8
0
6
CONTINUOUS
10
285.0189586
20
-109.5142869
40
2
50
100.0000008
51
190.0000008
0
ARC
8
0
6
CONTINUOUS
10
287.2763849
20
-122.3167876
40
2
50
190.0000008
51
280.0000008
0
ARC
8
0
6
CONTINUOUS
10
107
20
-106.5
40
2
50
270
51
0
0
ARC
8
0
6
CONTINUOUS
10
107
20
-93.5
40
2
50
0
51
90
0
ARC
8
0
6
CONTINUOUS
10
93
20
-93.5
40
2
50
90
51
180
0
ARC
8
0
6
CONTINUOUS
10
93
20
-106.5
40
2
50
180
51
270
0
ARC
8
0
6
CONTINUOUS
10
107
20
-87.5
40
2
50
270
51
0
0
ARC
8
0
6
CONTINUOUS
10
107
20
-74.5
40
2
50
0
51
90
0
ARC
8
0
6
CONTINUOUS
10
93
20
-74.5
40
2
50
90
51
180
0
ARC
8
0
6
CONTINUOUS
10
93
20
-87.5
40
2
50
180
51
270
0
ARC
8
0
6
CONTINUOUS
10
107
20
-68.5
40
2
50
270
51
0
0
ARC
8
0
6
CONTINUOUS
10
107
20
-55.5
40
2
50
0
51
90
0
ARC
8
0
6
CONTINUOUS
10
93
20
-55.5
40
2
50
90
51
180
0
ARC
8
0
6
CONTINUOUS
10
93
20
-68.5
40
2
50
180
51
270
0
ARC
8
0
6
CONTINUOUS
10
127
20
-106.5
40
2
50
270
51
0
0
ARC
8
0
6
CONTINUOUS
10
127
20
-93.5
40
2
50
0
51
90
0
ARC
8
0
6
CONTINUOUS
10
113
20
-93.5
40
2
50
90
51
180
0
ARC
8
0
6
CONTINUOUS
10
113
20
-106.5
40
2
50
180
51
270
0
ARC
8
0
6
CONTINUOUS
10
127
20
-87.5
40
2
50
270
51
0
0
ARC
8
0
6
CONTINUOUS
10
127
20
-74.5
40
2
50
0
51
90
0
ARC
8
0
6
CONTINUOUS
10
113
20
-74.5
40
2
50
90
51
180
0
ARC
8
0
6
CONTINUOUS
10
113
20
-87.5
40
2
50
180
51
270
0
ARC
8
0
6
CONTINUOUS
10
127
20
-68.5
40
2
50
270
51
0
0
ARC
8
0
6
CONTINUOUS
10
127
20
-55.5
40
2
50
0
51
90
0
ARC
8
0
6
CONTINUOUS
10
113
20
-55.5
40
2
50
90
51
180
0
ARC
8
0
6
CONTINUOUS
10
113
20
-68.5
40
2
50
180
51
270
0
ARC
8
0
6
CONTINUOUS
10
147
20
-96.5
40
2
50
270
51
0
0
ARC
8
0
6
CONTINUOUS
10
147
20
-83.5
40
2
50
0
51
90
0
ARC
8
0
6
CONTINUOUS
10
133
20
-83.5
40
2
50
90
51
180
0
ARC
8
0
6
CONTINUOUS
10
133
20
-96.5
40
2
50
180
51
270
0
ARC
8
0
6
CONTINUOUS
10
147
20
-77.5
40
2
50
270
51
0
0
ARC
8
0
6
CONTINUOUS
10
147
20
-64.5
40
2
50
0
51
90
0
ARC
8
0
6
CONTINUOUS
10
133
20
-64.5
40
2
50
90
51
180
0
ARC
8
0
6
CONTINUOUS
10
133
20
-77.5
40
2
50
180
51
270
0
ARC
8
0
6
CONTINUOUS
10
147
20
-58.5
40
2
50
270
51
0
0
ARC
8
0
6
CONTINUOUS
10
147
20
-45.5
40
2
50
0
51
90
0
ARC
8
0
6
CONTINUOUS
10
133
20
-45.5
40
2
50
90
51
180
0
ARC
8
0
6
CONTINUOUS
10
133
20
-58.5
40
2
50
180
51
270
0
ARC
8
0
6
CONTINUOUS
10
167
20
-91.5
40
2
50
270
51
0
0
ARC
8
0
6
CONTINUOUS
10
167
20
-78.5
40
2
50
0
51
90
0
ARC
8
0
6
CONTINUOUS
10
153
20
-78.5
40
2
50
90
51
180
0
ARC
8
0
6
CONTINUOUS
10
153
20
-91.5
40
2
50
180
51
270
0
ARC
8
0
6
CONTINUOUS
10
167
20
-72.5
40
2
50
270
51
0
0
ARC
8
0
6
CONTINUOUS
10
167
20
-59.5
40
2
50
0
51
90
0
ARC
8
0
6
CONTINUOUS
10
153
20
-59.5
40
2
50
90
51
180
0
ARC
8
0
6
CONTINUOUS
10
153
20
-72.5
40
2
50
180
51
270
0
ARC
8
0
6
CONTINUOUS
10
167
20
-53.5
40
2
50
270
51
0
0
ARC
8
0
6
CONTINUOUS
10
167
20
-40.5
40
2
50
0
51
90
0
ARC
8
0
6
CONTINUOUS
10
153
20
-40.5
40
2
50
90
51
180
0
ARC
8
0
6
CONTINUOUS
10
153
20
-53.5
40
2
50
180
51
270
0
ARC
8
0
6
CONTINUOUS
10
187
20
-97.5
40
2
50
270
51
0
0
ARC
8
0
6
CONTINUOUS
10
187
20
-84.5
40
2
50
0
51
90
0
ARC
8
0
6
CONTINUOUS
10
173
20
-84.5
40
2
50
90
51
180
0
ARC
8
0
6
CONTINUOUS
10
173
20
-97.5
40
2
50
180
51
270
0
ARC
8
0
6
CONTINUOUS
10
187
20
-78.5
40
2
50
270
51
0
0
ARC
8
0
6
CONTINUOUS
10
187
20
-65.5
40
2
50
0
51
90
0
ARC
8
0
6
CONTINUOUS
10
173
20
-65.5
40
2
50
90
51
180
0
ARC
8
0
6
CONTINUOUS
10
173
20
-78.5
40
2
50
180
51
270
0
ARC
8
0
6
CONTINUOUS
10
187
20
-59.5
40
2
50
270
51
0
0
ARC
8
0
6
CONTINUOUS
10
187
20
-46.5
40
2
50
0
51
90
0
ARC
8
0
6
CONTINUOUS
10
173
20
-46.5
40
2
50
90
51
180
0
ARC
8
0
6
CONTINUOUS
10
173
20
-59.5
40
2
50
180
51
270
0
ARC
8
0
6
CONTINUOUS
10
207
20
-99.5
40
2
50
270
51
0
0
ARC
8
0
6
CONTINUOUS
10
207
20
-86.5
40
2
50
0
51
90
0
ARC
8
0
6
CONTINUOUS
10
193
20
-86.5
40
2
50
90
51
180
0
ARC
8
0
6
CONTINUOUS
10
193
20
-99.5
40
2
50
180
51
270
0
ARC
8
0
6
CONTINUOUS
10
207
20
-80.5
40
2
50
270
51
0
0
ARC
8
0
6
CONTINUOUS
10
207
20
-67.5
40
2
50
0
51
90
0
ARC
8
0
6
CONTINUOUS
10
193
20
-67.5
40
2
50
90
51
180
0
ARC
8
0
6
CONTINUOUS
10
193
20
-80.5
40
2
50
180
51
270
0
ARC
8
0
6
CONTINUOUS
10
207
20
-61.5
40
2
50
270
51
0
0
ARC
8
0
6
CONTINUOUS
10
207
20
-48.5
40
2
50
0
51
90
0
ARC
8
0
6
CONTINUOUS
10
193
20
-48.5
40
2
50
90
51
180
0
ARC
8
0
6
CONTINUOUS
10
193
20
-61.5
40
2
50
180
51
270
0
ARC
8
0
6
CONTINUOUS
10
187
20
-118.5
40
2
50
270
51
0
0
ARC
8
0
6
CONTINUOUS
10
187
20
-105.5
40
2
50
0
51
90
0
ARC
8
0
6
CONTINUOUS
10
173
20
-105.5
40
2
50
90
51
180
0
ARC
8
0
6
CONTINUOUS
10
173
20
-118.5
40
2
50
180
51
270
0
ARC
8
0
6
CONTINUOUS
10
400.041326
20
-106.5
40
2
50
270
51
0
0
ARC
8
0
6
CONTINUOUS
10
400.041326
20
-93.5
40
2
50
0
51
90
0
ARC
8
0
6
CONTINUOUS
10
386.041326
20
-93.5
40
2
50
90
51
180
0
ARC
8
0
6
CONTINUOUS
10
386.041326
20
-106.5
40
2
50
180
51
270
0
ARC
8
0
6
CONTINUOUS
10
400.041326
20
-87.5
40
2
50
270
51
0
0
ARC
8
0
6
CONTINUOUS
10
400.041326
20
-74.5
40
2
50
0
51
90
0
ARC
8
0
6
CONTINUOUS
10
386.041326
20
-74.5
40
2
50
90
51
180
0
ARC
8
0
6
CONTINUOUS
10
386.041326
20
-87.5
40
2
50
180
51
270
0
ARC
8
0
6
CONTINUOUS
10
400.041326
20
-68.5
40
2
50
270
51
0
0
ARC
8
0
6
CONTINUOUS
10
400.041326
20
-55.5
40
2
50
0
51
90
0
ARC
8
0
6
CONTINUOUS
10
386.041326
20
-55.5
40
2
50
90
51
180
0
ARC
8
0
6
CONTINUOUS
10
386.041326
20
-68.5
40
2
50
180
51
270
0
ARC
8
0
6
CONTINUOUS
10
380.041326
20
-106.5
40
2
50
270
51
0
0
ARC
8
0
6
CONTINUOUS
10
380.041326
20
-93.5
40
2
50
0
51
90
0
ARC
8
0
6
CONTINUOUS
10
366.041326
20
-93.5
40
2
50
90
51
180
0
ARC
8
0
6
CONTINUOUS
10
366.041326
20
-106.5
40
2
50
180
51
270
0
ARC
8
0
6
CONTINUOUS
10
380.041326
20
-87.5
40
2
50
270
51
0
0
ARC
8
0
6
CONTINUOUS
10
380.041326
20
-74.5
40
2
50
0
51
90
0
ARC
8
0
6
CONTINUOUS
10
366.041326
20
-74.5
40
2
50
90
51
180
0
ARC
8
0
6
CONTINUOUS
10
366.041326
20
-87.5
40
2
50
180
51
270
0
ARC
8
0
6
CONTINUOUS
10
380.041326
20
-68.5
40
2
50
270
51
0
0
ARC
8
0
6
CONTINUOUS
10
380.041326
20
-55.5
40
2
50
0
51
90
0
ARC
8
0
6
CONTINUOUS
10
366.041326
20
-55.5
40
2
50
90
51
180
0
ARC
8
0
6
CONTINUOUS
10
366.041326
20
-68.5
40
2
50
180
51
270
0
ARC
8
0
6
CONTINUOUS
10
360.041326
20
-96.5
40
2
50
270
51
0
0
ARC
8
0
6
CONTINUOUS
10
360.041326
20
-83.5
40
2
50
0
51
90
0
ARC
8
0
6
CONTINUOUS
10
346.041326
20
-83.5
40
2
50
90
51
180
0
ARC
8
0
6
CONTINUOUS
10
346.041326
20
-96.5
40
2
50
180
51
270
0
ARC
8
0
6
CONTINUOUS
10
360.041326
20
-77.5
40
2
50
270
51
0
0
ARC
8
0
6
CONTINUOUS
10
360.041326
20
-64.5
40
2
50
0
51
90
0
ARC
8
0
6
CONTINUOUS
10
346.041326
20
-64.5
40
2
50
90
51
180
0
ARC
8
0
6
CONTINUOUS
10
346.041326
20
-77.5
40
2
50
180
51
270
0
ARC
8
0
6
CONTINUOUS
10
360.041326
20
-58.5
40
2
50
270
51
0
0
ARC
8
0
6
CONTINUOUS
10
360.041326
20
-45.5
40
2
50
0
51
90
0
ARC
8
0
6
CONTINUOUS
10
346.041326
20
-45.5
40
2
50
90
51
180
0
ARC
8
0
6
CONTINUOUS
10
346.041326
20
-58.5
40
2
50
180
51
270
0
ARC
8
0
6
CONTINUOUS
10
340.041326
20
-91.5
40
2
50
270
51
0
0
ARC
8
0
6
CONTINUOUS
10
340.041326
20
-78.5
40
2
50
0
51
90
0
ARC
8
0
6
CONTINUOUS
10
326.041326
20
-78.5
40
2
50
90
51
180
0
ARC
8
0
6
CONTINUOUS
10
326.041326
20
-91.5
40
2
50
180
51
270
0
ARC
8
0
6
CONTINUOUS
10
340.041326
20
-72.5
40
2
50
270
51
0
0
ARC
8
0
6
CONTINUOUS
10
340.041326
20
-59.5
40
2
50
0
51
90
0
ARC
8
0
6
CONTINUOUS
10
326.041326
20
-59.5
40
2
50
90
51
180
0
ARC
8
0
6
CONTINUOUS
10
326.041326
20
-72.5
40
2
50
180
51
270
0
ARC
8
0
6
CONTINUOUS
10
340.041326
20
-53.5
40
2
50
270
51
0
0
ARC
8
0
6
CONTINUOUS
10
340.041326
20
-40.5
40
2
50
0
51
90
0
ARC
8
0
6
CONTINUOUS
10
326.041326
20
-40.5
40
2
50
90
51
180
0
ARC
8
0
6
CONTINUOUS
10
326.041326
20
-53.5
40
2
50
180
51
270
0
ARC
8
0
6
CONTINUOUS
10
320.041326
20
-97.5
40
2
50
270
51
0
0
ARC
8
0
6
CONTINUOUS
10
320.041326
20
-84.5
40
2
50
0
51
90
0
ARC
8
0
6
CONTINUOUS
10
306.041326
20
-84.5
40
2
50
90
51
180
0
ARC
8
0
6
CONTINUOUS
10
306.041326
20
-97.5
40
2
50
180
51
270
0
ARC
8
0
6
CONTINUOUS
10
320.041326
20
-78.5
40
2
50
270
51
0
0
ARC
8
0
6
CONTINUOUS
10
320.041326
20
-65.5
40
2
50
0
51
90
0
ARC
8
0
6
CONTINUOUS
10
306.041326
20
-65.5
40
2
50
90
51
180
0
ARC
8
0
6
CONTINUOUS
10
306.041326
20
-78.5
40
2
50
180
51
270
0
ARC
8
0
6
CONTINUOUS
10
320.041326
20
-59.5
40
2
50
270
51
0
0
ARC
8
0
6
CONTINUOUS
10
320.041326
20
-46.5
40
2
50
0
51
90
0
ARC
8
0
6
CONTINUOUS
10
306.041326
20
-46.5
40
2
50
90
51
180
0
ARC
8
0
6
CONTINUOUS
10
306.041326
20
-59.5
40
2
50
180
51
270
0
ARC
8
0
6
CONTINUOUS
10
300.041326
20
-99.5
40
2
50
270
51
0
0
ARC
8
0
6
CONTINUOUS
10
300.041326
20
-86.5
40
2
50
0
51
90
0
ARC
8
0
6
CONTINUOUS
10
286.041326
20
-86.5
40
2
50
90
51
180
0
ARC
8
0
6
CONTINUOUS
10
286.041326
20
-99.5
40
2
50
180
51
270
0
ARC
8
0
6
CONTINUOUS
10
300.041326
20
-80.5
40
2
50
270
51
0
0
ARC
8
0
6
CONTINUOUS
10
300.041326
20
-67.5
40
2
50
0
51
90
0
ARC
8
0
6
CONTINUOUS
10
286.041326
20
-67.5
40
2
50
90
51
180
0
ARC
8
0
6
CONTINUOUS
10
286.041326
20
-80.5
40
2
50
180
51
270
0
ARC
8
0
6
CONTINUOUS
10
300.041326
20
-61.5
40
2
50
270
51
0
0
ARC
8
0
6
CONTINUOUS
10
300.041326
20
-48.5
40
2
50
0
51
90
0
ARC
8
0
6
CONTINUOUS
10
286.041326
20
-48.5
40
2
50
90
51
180
0
ARC
8
0
6
CONTINUOUS
10
286.041326
20
-61.5
40
2
50
180
51
270
0
ARC
8
0
6
CONTINUOUS
10
320.041326
20
-118.5
40
2
50
270
51
0
0
ARC
8
0
6
CONTINUOUS
10
320.041326
20
-105.5
40
2
50
0
51
90
0
ARC
8
0
6
CONTINUOUS
10
306.041326
20
-105.5
40
2
50
90
51
180
0
ARC
8
0
6
CONTINUOUS
10
306.041326
20
-118.5
40
2
50
180
51
270
0
LINE
8
0
6
CONTINUOUS
10
210.6
20
-84.5
11
228.6
21
-84.5
0
LINE
8
0
6
CONTINUOUS
10
264.441326
20
-84.5
11
282.441326
21
-84.5
0
LINE
8
0
6
CONTINUOUS
10
89.25
20
-107.5
11
89.25
21
-54.5
0
LINE
8
0
6
CONTINUOUS
10
91.25
20
-52.5
11
127.25
21
-52.5
0
LINE
8
0
6
CONTINUOUS
10
129.25
20
-50.5
11
129.25
21
-44.5
0
LINE
8
0
6
CONTINUOUS
10
131.25
20
-42.5
11
148
21
-42.5
0
LINE
8
0
6
CONTINUOUS
10
150
20
-40.5
11
150
21
-39.5
0
LINE
8
0
6
CONTINUOUS
10
152
20
-37.5
11
168.75
21
-37.5
0
LINE
8
0
6
CONTINUOUS
10
170.75
20
-39.5
11
170.75
21
-41.5
0
LINE
8
0
6
CONTINUOUS
10
172.75
20
-43.5
11
190
21
-43.5
0
LINE
8
0
6
CONTINUOUS
10
190
20
-43.5
11
190
21
-45.5
0
LINE
8
0
6
CONTINUOUS
10
190
20
-45.5
11
227.5
21
-45.5
0
LINE
8
0
6
CONTINUOUS
10
229.5
20
-47.5
11
229.5
21
-97.0674401
0
LINE
8
0
6
CONTINUOUS
10
229.9172858
20
-98.2901485
11
234.9046393
21
-104.7459437
0
LINE
8
0
6
CONTINUOUS
10
235.2013103
20
-106.6526923
11
225.9943676
21
-131.9485596
0
LINE
8
0
6
CONTINUOUS
10
223.450625
20
-133.1509524
11
207.9339399
21
-127.6863407
0
LINE
8
0
6
CONTINUOUS
10
207.8015972
20
-127.6448316
11
188.721761
21
-122.3797617
0
LINE
8
0
6
CONTINUOUS
10
188.2747702
20
-122.3095119
11
171.1649762
21
-121.581483
0
LINE
8
0
6
CONTINUOUS
10
169.25
20
-119.5832911
11
169.25
21
-96.5
0
LINE
8
0
6
CONTINUOUS
10
167.25
20
-94.5
11
152
21
-94.5
0
LINE
8
0
6
CONTINUOUS
10
150
20
-96.5
11
150
21
-97.5
0
LINE
8
0
6
CONTINUOUS
10
148
20
-99.5
11
132
21
-99.5
0
LINE
8
0
6
CONTINUOUS
10
130
20
-101.5
11
130
21
-107.5
0
LINE
8
0
6
CONTINUOUS
10
128
20
-109.5
11
91.25
21
-109.5
0
ARC
8
0
6
CONTINUOUS
10
91.25
20
-54.5
40
2
50
90
51
180
0
ARC
8
0
6
CONTINUOUS
10
127.25
20
-50.5
40
2
50
270
51
0
0
ARC
8
0
6
CONTINUOUS
10
131.25
20
-44.5
40
2
50
90
51
180
0
ARC
8
0
6
CONTINUOUS
10
148
20
-40.5
40
2
50
270
51
0
0
ARC
8
0
6
CONTINUOUS
10
152
20
-39.5
40
2
50
90
51
180
0
ARC
8
0
6
CONTINUOUS
10
168.75
20
-39.5
40
2
50
0
51
90
0
ARC
8
0
6
CONTINUOUS
10
172.75
20
-41.5
40
2
50
180
51
270
0
ARC
8
0
6
CONTINUOUS
10
227.5
20
-47.5
40
2
50
0
51
90
0
ARC
8
0
6
CONTINUOUS
10
231.5
20
-97.0674401
40
2
50
180
51
217.6874846
0
ARC
8
0
6
CONTINUOUS
10
233.3219251
20
-105.9686521
40
2
50
340.0000019
51
37.6874846
0
ARC
8
0
6
CONTINUOUS
10
224.1149824
20
-131.2645194
40
2
50
250.5989334
51
340.0000019
0
ARC
8
0
6
CONTINUOUS
10
207.2695826
20
-129.5727737
40
2
50
70.5989334
51
74.5731845
0
ARC
8
0
6
CONTINUOUS
10
188.1897464
20
-124.3077038
40
2
50
74.5731845
51
87.5635134
0
ARC
8
0
6
CONTINUOUS
10
171.25
20
-119.5832911
40
2
50
180
51
267.5635134
0
ARC
8
0
6
CONTINUOUS
10
167.25
20
-96.5
40
2
50
0
51
90
0
ARC
8
0
6
CONTINUOUS
10
152
20
-96.5
40
2
50
90
51
180
0
ARC
8
0
6
CONTINUOUS
10
148
20
-97.5
40
2
50
270
51
0
0
ARC
8
0
6
CONTINUOUS
10
132
20
-101.5
40
2
50
90
51
180
0
ARC
8
0
6
CONTINUOUS
10
128
20
-107.5
40
2
50
270
51
0
0
ARC
8
0
6
CONTINUOUS
10
91.25
20
-107.5
40
2
50
180
51
270
0
LINE
8
0
6
CONTINUOUS
10
403.791326
20
-107.5
11
403.791326
21
-54.5
0
LINE
8
0
6
CONTINUOUS
10
401.791326
20
-52.5
11
365.791326
21
-52.5
0
LINE
8
0
6
CONTINUOUS
10
363.791326
20
-50.5
11
363.791326
21
-44.5
0
LINE
8
0
6
CONTINUOUS
10
361.791326
20
-42.5
11
345.041326
21
-42.5
0
LINE
8
0
6
CONTINUOUS
10
343.041326
20
-40.5
11
343.041326
21
-39.5
0
LINE
8
0
6
CONTINUOUS
10
341.041326
20
-37.5
11
324.291326
21
-37.5
0
LINE
8
0
6
CONTINUOUS
10
322.291326
20
-39.5
11
322.291326
21
-41.5
0
LINE
8
0
6
CONTINUOUS
10
320.291326
20
-43.5
11
303.041326
21
-43.5
0
LINE
8
0
6
CONTINUOUS
10
303.041326
20
-43.5
11
303.041326
21
-45.5
0
LINE
8
0
6
CONTINUOUS
10
303.041326
20
-45.5
11
265.541326
21
-45.5
0
LINE
8
0
6
CONTINUOUS
10
263.541326
20
-47.5
11
263.541326
21
-97.0674401
0
LINE
8
0
6
CONTINUOUS
10
263.1240402
20
-98.2901485
11
258.1366867
21
-104.7459437
0
LINE
8
0
6
CONTINUOUS
10
257.8400157
20
-106.6526923
11
267.0469584
21
-131.9485596
0
LINE
8
0
6
CONTINUOUS
10
269.590701
20
-133.1509524
11
285.1073861
21
-127.6863407
0
LINE
8
0
6
CONTINUOUS
10
285.2397288
20
-127.6448316
11
304.319565
21
-122.3797617
0
LINE
8
0
6
CONTINUOUS
10
304.7665558
20
-122.3095119
11
321.8763498
21
-121.581483
0
LINE
8
0
6
CONTINUOUS
10
323.791326
20
-119.5832911
11
323.791326
21
-96.5
0
LINE
8
0
6
CONTINUOUS
10
325.791326
20
-94.5
11
341.041326
21
-94.5
0
LINE
8
0
6
CONTINUOUS
10
343.041326
20
-96.5
11
343.041326
21
-97.5
0
LINE
8
0
6
CONTINUOUS
10
345.041326
20
-99.5
11
361.041326
21
-99.5
0
LINE
8
0
6
CONTINUOUS
10
363.041326
20
-101.5
11
363.041326
21
-107.5
0
LINE
8
0
6
CONTINUOUS
10
365.041326
20
-109.5
11
401.791326
21
-109.5
0
ARC
8
0
6
CONTINUOUS
10
401.791326
20
-54.5
40
2
50
0
51
90
0
ARC
8
0
6
CONTINUOUS
10
365.791326
20
-50.5
40
2
50
180
51
270
0
ARC
8
0
6
CONTINUOUS
10
361.791326
20
-44.5
40
2
50
0
51
90
0
ARC
8
0
6
CONTINUOUS
10
345.041326
20
-40.5
40
2
50
180
51
270
0
ARC
8
0
6
CONTINUOUS
10
341.041326
20
-39.5
40
2
50
0
51
90
0
ARC
8
0
6
CONTINUOUS
10
324.291326
20
-39.5
40
2
50
90
51
180
0
ARC
8
0
6
CONTINUOUS
10
320.291326
20
-41.5
40
2
50
270
51
0
0
ARC
8
0
6
CONTINUOUS
10
265.541326
20
-47.5
40
2
50
90
51
180
0
ARC
8
0
6
CONTINUOUS
10
261.541326
20
-97.0674401
40
2
50
322.3125154
51
0
0
ARC
8
0
6
CONTINUOUS
10
259.7194009
20
-105.9686521
40
2
50
142.3125154
51
199.9999981
0
ARC
8
0
6
CONTINUOUS
10
268.9263436
20
-131.2645194
40
2
50
199.9999981
51
289.4010666
0
ARC
8
0
6
CONTINUOUS
10
285.7717434
20
-129.5727737
40
2
50
105.4268155
51
109.4010666
0
ARC
8
0
6
CONTINUOUS
10
304.8515796
20
-124.3077038
40
2
50
92.4364866
51
105.4268155
0
ARC
8
0
6
CONTINUOUS
10
321.791326
20
-119.5832911
40
2
50
272.4364866
51
0
0
ARC
8
0
6
CONTINUOUS
10
325.791326
20
-96.5
40
2
50
90
51
180
0
ARC
8
0
6
CONTINUOUS
10
341.041326
20
-96.5
40
2
50
0
51
90
0
ARC
8
0
6
CONTINUOUS
10
345.041326
20
-97.5
40
2
50
180
51
270
0
ARC
8
0
6
CONTINUOUS
10
361.041326
20
-101.5
40
2
50
0
51
90
0
ARC
8
0
6
CONTINUOUS
10
365.041326
20
-107.5
40
2
50
180
51
270
0
ARC
8
0
6
CONTINUOUS
10
401.791326
20
-107.5
40
2
50
270
51
0
0
ENDSEC
0
EOF