0
SECTION
2
HEADER
9
$INSUNITS
70
4
0
ENDSEC
0
SECTION
2
TABLES
0
TABLE
2
LTYPE
0
LTYPE
72
65
70
0
2
CONTINUOUS
3
______
73
0
40
0
0
LTYPE
72
65
70
0
2
DASHED
3
_ _ _ 
73
2
40
7.5
49
5
49
-2.5
0
LTYPE
72
65
70
0
2
DOTTED
3
. . . 
73
2
40
1.5
49
0.5
49
-1
0
ENDTAB
0
TABLE
2
LAYER
0
ENDTAB
0
ENDSEC
0
SECTION
2
ENTITIES
0
LINE
8
0
6
CONTINUOUS
10
91
20
-108.5
11
109
21
-108.5
0
LINE
8
0
6
CONTINUOUS
10
109
20
-108.5
11
109
21
-91.5
0
LINE
8
0
6
CONTINUOUS
10
109
20
-91.5
11
91
21
-91.5
0
LINE
8
0
6
CONTINUOUS
10
91
20
-91.5
11
91
21
-108.5
0
LINE
8
0
6
CONTINUOUS
10
91
20
-89.5
11
109
21
-89.5
0
LINE
8
0
6
CONTINUOUS
10
109
20
-89.5
11
109
21
-72.5
0
LINE
8
0
6
CONTINUOUS
10
109
20
-72.5
11
91
21
-72.5
0
LINE
8
0
6
CONTINUOUS
10
91
20
-72.5
11
91
21
-89.5
0
LINE
8
0
6
CONTINUOUS
10
91
20
-70.5
11
109
21
-70.5
0
LINE
8
0
6
CONTINUOUS
10
109
20
-70.5
11
109
21
-53.5
0
LINE
8
0
6
CONTINUOUS
10
109
20
-53.5
11
91
21
-53.5
0
LINE
8
0
6
CONTINUOUS
10
91
20
-53.5
11
91
21
-70.5
0
LINE
8
0
6
CONTINUOUS
10
111
20
-108.5
11
129
21
-108.5
0
LINE
8
0
6
CONTINUOUS
10
129
20
-108.5
11
129
21
-91.5
0
LINE
8
0
6
CONTINUOUS
10
129
20
-91.5
11
111
21
-91.5
0
LINE
8
0
6
CONTINUOUS
10
111
20
-91.5
11
111
21
-108.5
0
LINE
8
0
6
CONTINUOUS
10
111
20
-89.5
11
129
21
-89.5
0
LINE
8
0
6
CONTINUOUS
10
129
20
-89.5
11
129
21
-72.5
0
LINE
8
0
6
CONTINUOUS
10
129
20
-72.5
11
111
21
-72.5
0
LINE
8
0
6
CONTINUOUS
10
111
20
-72.5
11
111
21
-89.5
0
LINE
8
0
6
CONTINUOUS
10
111
20
-70.5
11
129
21
-70.5
0
LINE
8
0
6
CONTINUOUS
10
129
20
-70.5
11
129
21
-53.5
0
LINE
8
0
6
CONTINUOUS
10
129
20
-53.5
11
111
21
-53.5
0
LINE
8
0
6
CONTINUOUS
10
111
20
-53.5
11
111
21
-70.5
0
LINE
8
0
6
CONTINUOUS
10
131
20
-98.5
11
149
21
-98.5
0
LINE
8
0
6
CONTINUOUS
10
149
20
-98.5
11
149
21
-81.5
0
LINE
8
0
6
CONTINUOUS
10
149
20
-81.5
11
131
21
-81.5
0
LINE
8
0
6
CONTINUOUS
10
131
20
-81.5
11
131
21
-98.5
0
LINE
8
0
6
CONTINUOUS
10
131
20
-79.5
11
149
21
-79.5
0
LINE
8
0
6
CONTINUOUS
10
149
20
-79.5
11
149
21
-62.5
0
LINE
8
0
6
CONTINUOUS
10
149
20
-62.5
11
131
21
-62.5
0
LINE
8
0
6
CONTINUOUS
10
131
20
-62.5
11
131
21
-79.5
0
LINE
8
0
6
CONTINUOUS
10
131
20
-60.5
11
149
21
-60.5
0
LINE
8
0
6
CONTINUOUS
10
149
20
-60.5
11
149
21
-43.5
0
LINE
8
0
6
CONTINUOUS
10
149
20
-43.5
11
131
21
-43.5
0
LINE
8
0
6
CONTINUOUS
10
131
20
-43.5
11
131
21
-60.5
0
LINE
8
0
6
CONTINUOUS
10
151
20
-93.5
11
169
21
-93.5
0
LINE
8
0
6
CONTINUOUS
10
169
20
-93.5
11
169
21
-76.5
0
LINE
8
0
6
CONTINUOUS
10
169
20
-76.5
11
151
21
-76.5
0
LINE
8
0
6
CONTINUOUS
10
151
20
-76.5
11
151
21
-93.5
0
LINE
8
0
6
CONTINUOUS
10
151
20
-74.5
11
169
21
-74.5
0
LINE
8
0
6
CONTINUOUS
10
169
20
-74.5
11
169
21
-57.5
0
LINE
8
0
6
CONTINUOUS
10
169
20
-57.5
11
151
21
-57.5
0
LINE
8
0
6
CONTINUOUS
10
151
20
-57.5
11
151
21
-74.5
0
LINE
8
0
6
CONTINUOUS
10
151
20
-55.5
11
169
21
-55.5
0
LINE
8
0
6
CONTINUOUS
10
169
20
-55.5
11
169
21
-38.5
0
LINE
8
0
6
CONTINUOUS
10
169
20
-38.5
11
151
21
-38.5
0
LINE
8
0
6
CONTINUOUS
10
151
20
-38.5
11
151
21
-55.5
0
LINE
8
0
6
CONTINUOUS
10
171
20
-99.5
11
189
21
-99.5
0
LINE
8
0
6
CONTINUOUS
10
189
20
-99.5
11
189
21
-82.5
0
LINE
8
0
6
CONTINUOUS
10
189
20
-82.5
11
171
21
-82.5
0
LINE
8
0
6
CONTINUOUS
10
171
20
-82.5
11
171
21
-99.5
0
LINE
8
0
6
CONTINUOUS
10
171
20
-80.5
11
189
21
-80.5
0
LINE
8
0
6
CONTINUOUS
10
189
20
-80.5
11
189
21
-63.5
0
LINE
8
0
6
CONTINUOUS
10
189
20
-63.5
11
171
21
-63.5
0
LINE
8
0
6
CONTINUOUS
10
171
20
-63.5
11
171
21
-80.5
0
LINE
8
0
6
CONTINUOUS
10
171
20
-61.5
11
189
21
-61.5
0
LINE
8
0
6
CONTINUOUS
10
189
20
-61.5
11
189
21
-44.5
0
LINE
8
0
6
CONTINUOUS
10
189
20
-44.5
11
171
21
-44.5
0
LINE
8
0
6
CONTINUOUS
10
171
20
-44.5
11
171
21
-61.5
0
LINE
8
0
6
CONTINUOUS
10
191
20
-101.5
11
209
21
-101.5
0
LINE
8
0
6
CONTINUOUS
10
209
20
-101.5
11
209
21
-84.5
0
LINE
8
0
6
CONTINUOUS
10
209
20
-84.5
11
191
21
-84.5
0
LINE
8
0
6
CONTINUOUS
10
191
20
-84.5
11
191
21
-101.5
0
LINE
8
0
6
CONTINUOUS
10
191
20
-82.5
11
209
21
-82.5
0
LINE
8
0
6
CONTINUOUS
10
209
20
-82.5
11
209
21
-65.5
0
LINE
8
0
6
CONTINUOUS
10
209
20
-65.5
11
191
21
-65.5
0
LINE
8
0
6
CONTINUOUS
10
191
20
-65.5
11
191
21
-82.5
0
LINE
8
0
6
CONTINUOUS
10
191
20
-63.5
11
209
21
-63.5
0
LINE
8
0
6
CONTINUOUS
10
209
20
-63.5
11
209
21
-46.5
0
LINE
8
0
6
CONTINUOUS
10
209
20
-46.5
11
191
21
-46.5
0
LINE
8
0
6
CONTINUOUS
10
191
20
-46.5
11
191
21
-63.5
0
LINE
8
0
6
CONTINUOUS
10
171
20
-120.5
11
189
21
-120.5
0
LINE
8
0
6
CONTINUOUS
10
189
20
-120.5
11
189
21
-103.5
0
LINE
8
0
6
CONTINUOUS
10
189
20
-103.5
11
171
21
-103.5
0
LINE
8
0
6
CONTINUOUS
10
171
20
-103.5
11
171
21
-120.5
0
LINE
8
0
6
CONTINUOUS
10
189.6607207
20
-121.5080323
11
207.3872603
21
-124.6336995
0
LINE
8
0
6
CONTINUOUS
10
207.3872603
20
-124.6336995
11
210.3392793
21
-107.8919677
0
LINE
8
0
6
CONTINUOUS
10
210.3392793
20
-107.8919677
11
192.6127397
21
-104.7663005
0
LINE
8
0
6
CONTINUOUS
10
192.6127397
20
-104.7663005
11
189.6607207
21
-121.5080323
0
LINE
8
0
6
CONTINUOUS
10
384.041326
20
-108.5
11
402.041326
21
-108.5
0
LINE
8
0
6
CONTINUOUS
10
402.041326
20
-108.5
11
402.041326
21
-91.5
0
LINE
8
0
6
CONTINUOUS
10
402.041326
20
-91.5
11
384.041326
21
-91.5
0
LINE
8
0
6
CONTINUOUS
10
384.041326
20
-91.5
11
384.041326
21
-108.5
0
LINE
8
0
6
CONTINUOUS
10
384.041326
20
-89.5
11
402.041326
21
-89.5
0
LINE
8
0
6
CONTINUOUS
10
402.041326
20
-89.5
11
402.041326
21
-72.5
0
LINE
8
0
6
CONTINUOUS
10
402.041326
20
-72.5
11
384.041326
21
-72.5
0
LINE
8
0
6
CONTINUOUS
10
384.041326
20
-72.5
11
384.041326
21
-89.5
0
LINE
8
0
6
CONTINUOUS
10
384.041326
20
-70.5
11
402.041326
21
-70.5
0
LINE
8
0
6
CONTINUOUS
10
402.041326
20
-70.5
11
402.041326
21
-53.5
0
LINE
8
0
6
CONTINUOUS
10
402.041326
20
-53.5
11
384.041326
21
-53.5
0
LINE
8
0
6
CONTINUOUS
10
384.041326
20
-53.5
11
384.041326
21
-70.5
0
LINE
8
0
6
CONTINUOUS
10
364.041326
20
-108.5
11
382.041326
21
-108.5
0
LINE
8
0
6
CONTINUOUS
10
382.041326
20
-108.5
11
382.041326
21
-91.5
0
LINE
8
0
6
CONTINUOUS
10
382.041326
20
-91.5
11
364.041326
21
-91.5
0
LINE
8
0
6
CONTINUOUS
10
364.041326
20
-91.5
11
364.041326
21
-108.5
0
LINE
8
0
6
CONTINUOUS
10
364.041326
20
-89.5
11
382.041326
21
-89.5
0
LINE
8
0
6
CONTINUOUS
10
382.041326
20
-89.5
11
382.041326
21
-72.5
0
LINE
8
0
6
CONTINUOUS
10
382.041326
20
-72.5
11
364.041326
21
-72.5
0
LINE
8
0
6
CONTINUOUS
10
364.041326
20
-72.5
11
364.041326
21
-89.5
0
LINE
8
0
6
CONTINUOUS
10
364.041326
20
-70.5
11
382.041326
21
-70.5
0
LINE
8
0
6
CONTINUOUS
10
382.041326
20
-70.5
11
382.041326
21
-53.5
0
LINE
8
0
6
CONTINUOUS
10
382.041326
20
-53.5
11
364.041326
21
-53.5
0
LINE
8
0
6
CONTINUOUS
10
364.041326
20
-53.5
11
364.041326
21
-70.5
0
LINE
8
0
6
CONTINUOUS
10
344.041326
20
-98.5
11
362.041326
21
-98.5
0
LINE
8
0
6
CONTINUOUS
10
362.041326
20
-98.5
11
362.041326
21
-81.5
0
LINE
8
0
6
CONTINUOUS
10
362.041326
20
-81.5
11
344.041326
21
-81.5
0
LINE
8
0
6
CONTINUOUS
10
344.041326
20
-81.5
11
344.041326
21
-98.5
0
LINE
8
0
6
CONTINUOUS
10
344.041326
20
-79.5
11
362.041326
21
-79.5
0
LINE
8
0
6
CONTINUOUS
10
362.041326
20
-79.5
11
362.041326
21
-62.5
0
LINE
8
0
6
CONTINUOUS
10
362.041326
20
-62.5
11
344.041326
21
-62.5
0
LINE
8
0
6
CONTINUOUS
10
344.041326
20
-62.5
11
344.041326
21
-79.5
0
LINE
8
0
6
CONTINUOUS
10
344.041326
20
-60.5
11
362.041326
21
-60.5
0
LINE
8
0
6
CONTINUOUS
10
362.041326
20
-60.5
11
362.041326
21
-43.5
0
LINE
8
0
6
CONTINUOUS
10
362.041326
20
-43.5
11
344.041326
21
-43.5
0
LINE
8
0
6
CONTINUOUS
10
344.041326
20
-43.5
11
344.041326
21
-60.5
0
LINE
8
0
6
CONTINUOUS
10
324.041326
20
-93.5
11
342.041326
21
-93.5
0
LINE
8
0
6
CONTINUOUS
10
342.041326
20
-93.5
11
342.041326
21
-76.5
0
LINE
8
0
6
CONTINUOUS
10
342.041326
20
-76.5
11
324.041326
21
-76.5
0
LINE
8
0
6
CONTINUOUS
10
324.041326
20
-76.5
11
324.041326
21
-93.5
0
LINE
8
0
6
CONTINUOUS
10
324.041326
20
-74.5
11
342.041326
21
-74.5
0
LINE
8
0
6
CONTINUOUS
10
342.041326
20
-74.5
11
342.041326
21
-57.5
0
LINE
8
0
6
CONTINUOUS
10
342.041326
20
-57.5
11
324.041326
21
-57.5
0
LINE
8
0
6
CONTINUOUS
10
324.041326
20
-57.5
11
324.041326
21
-74.5
0
LINE
8
0
6
CONTINUOUS
10
324.041326
20
-55.5
11
342.041326
21
-55.5
0
LINE
8
0
6
CONTINUOUS
10
342.041326
20
-55.5
11
342.041326
21
-38.5
0
LINE
8
0
6
CONTINUOUS
10
342.041326
20
-38.5
11
324.041326
21
-38.5
0
LINE
8
0
6
CONTINUOUS
10
324.041326
20
-38.5
11
324.041326
21
-55.5
0
LINE
8
0
6
CONTINUOUS
10
304.041326
20
-99.5
11
322.041326
21
-99.5
0
LINE
8
0
6
CONTINUOUS
10
322.041326
20
-99.5
11
322.041326
21
-82.5
0
LINE
8
0
6
CONTINUOUS
10
322.041326
20
-82.5
11
304.041326
21
-82.5
0
LINE
8
0
6
CONTINUOUS
10
304.041326
20
-82.5
11
304.041326
21
-99.5
0
LINE
8
0
6
CONTINUOUS
10
304.041326
20
-80.5
11
322.041326
21
-80.5
0
LINE
8
0
6
CONTINUOUS
10
322.041326
20
-80.5
11
322.041326
21
-63.5
0
LINE
8
0
6
CONTINUOUS
10
322.041326
20
-63.5
11
304.041326
21
-63.5
0
LINE
8
0
6
CONTINUOUS
10
304.041326
20
-63.5
11
304.041326
21
-80.5
0
LINE
8
0
6
CONTINUOUS
10
304.041326
20
-61.5
11
322.041326
21
-61.5
0
LINE
8
0
6
CONTINUOUS
10
322.041326
20
-61.5
11
322.041326
21
-44.5
0
LINE
8
0
6
CONTINUOUS
10
322.041326
20
-44.5
11
304.041326
21
-44.5
0
LINE
8
0
6
CONTINUOUS
10
304.041326
20
-44.5
11
304.041326
21
-61.5
0
LINE
8
0
6
CONTINUOUS
10
284.041326
20
-101.5
11
302.041326
21
-101.5
0
LINE
8
0
6
CONTINUOUS
10
302.041326
20
-101.5
11
302.041326
21
-84.5
0
LINE
8
0
6
CONTINUOUS
10
302.041326
20
-84.5
11
284.041326
21
-84.5
0
LINE
8
0
6
CONTINUOUS
10
284.041326
20
-84.5
11
284.041326
21
-101.5
0
LINE
8
0
6
CONTINUOUS
10
284.041326
20
-82.5
11
302.041326
21
-82.5
0
LINE
8
0
6
CONTINUOUS
10
302.041326
20
-82.5
11
302.041326
21
-65.5
0
LINE
8
0
6
CONTINUOUS
10
302.041326
20
-65.5
11
284.041326
21
-65.5
0
LINE
8
0
6
CONTINUOUS
10
284.041326
20
-65.5
11
284.041326
21
-82.5
0
LINE
8
0
6
CONTINUOUS
10
284.041326
20
-63.5
11
302.041326
21
-63.5
0
LINE
8
0
6
CONTINUOUS
10
302.041326
20
-63.5
11
302.041326
21
-46.5
0
LINE
8
0
6
CONTINUOUS
10
302.041326
20
-46.5
11
284.041326
21
-46.5
0
LINE
8
0
6
CONTINUOUS
10
284.041326
20
-46.5
11
284.041326
21
-63.5
0
LINE
8
0
6
CONTINUOUS
10
304.041326
20
-120.5
11
322.041326
21
-120.5
0
LINE
8
0
6
CONTINUOUS
10
322.041326
20
-120.5
11
322.041326
21
-103.5
0
LINE
8
0
6
CONTINUOUS
10
322.041326
20
-103.5
11
304.041326
21
-103.5
0
LINE
8
0
6
CONTINUOUS
10
304.041326
20
-103.5
11
304.041326
21
-120.5
0
LINE
8
0
6
CONTINUOUS
10
285.6540657
20
-124.6336995
11
303.3806053
21
-121.5080323
0
LINE
8
0
6
CONTINUOUS
10
303.3806053
20
-121.5080323
11
300.4285863
21
-104.7663005
0
LINE
8
0
6
CONTINUOUS
10
300.4285863
20
-104.7663005
11
282.7020467
21
-107.8919677
0
LINE
8
0
6
CONTINUOUS
10
282.7020467
20
-107.8919677
11
285.6540657
21
-124.6336995
0
LINE
8
0
6
CONTINUOUS
10
224.8907783
20
-132.0568419
11
234.1253222
21
-106.6851411
0
LINE
8
0
6
CONTINUOUS
10
234.1253222
20
-106.6851411
11
231.8947346
21
-105.8732736
0
LINE
8
0
6
CONTINUOUS
10
229.102263
20
-104.8568971
11
218.1505477
21
-100.8707987
0
LINE
8
0
6
CONTINUOUS
10
218.1505477
20
-100.8707987
11
208.9160038
21
-126.2424995
0
LINE
8
0
6
CONTINUOUS
10
208.9160038
20
-126.2424995
11
224.8907783
21
-132.0568419
0
LINE
8
0
6
CONTINUOUS
10
258.9160038
20
-106.6851411
11
268.1505477
21
-132.0568419
0
LINE
8
0
6
CONTINUOUS
10
268.1505477
20
-132.0568419
11
284.1253222
21
-126.2424995
0
LINE
8
0
6
CONTINUOUS
10
284.1253222
20
-126.2424995
11
274.8907783
21
-100.8707987
0
LINE
8
0
6
CONTINUOUS
10
274.8907783
20
-100.8707987
11
263.939063
21
-104.8568971
0
LINE
8
0
6
CONTINUOUS
10
261.1465914
20
-105.8732736
11
258.9160038
21
-106.6851411
0
LINE
8
0
6
CONTINUOUS
10
211.71
20
-79.5
11
227.49
21
-79.5
0
LINE
8
0
6
CONTINUOUS
10
228.49
20
-78.5
11
228.49
21
-47.5
0
LINE
8
0
6
CONTINUOUS
10
227.49
20
-46.5
11
211.71
21
-46.5
0
LINE
8
0
6
CONTINUOUS
10
210.71
20
-47.5
11
210.71
21
-78.5
0
LINE
8
0
6
CONTINUOUS
10
265.551326
20
-79.5
11
281.331326
21
-79.5
0
LINE
8
0
6
CONTINUOUS
10
282.331326
20
-78.5
11
282.331326
21
-47.5
0
LINE
8
0
6
CONTINUOUS
10
281.331326
20
-46.5
11
265.551326
21
-46.5
0
LINE
8
0
6
CONTINUOUS
10
264.551326
20
-47.5
11
264.551326
21
-78.5
0
ARC
8
0
6
CONTINUOUS
10
227.49
20
-78.5
40
1
50
270
51
0
0
ARC
8
0
6
CONTINUOUS
10
227.49
20
-47.5
40
1
50
0
51
90
0
ARC
8
0
6
CONTINUOUS
10
211.71
20
-47.5
40
1
50
90
51
180
0
ARC
8
0
6
CONTINUOUS
10
211.71
20
-78.5
40
1
50
180
51
270
0
ARC
8
0
6
CONTINUOUS
10
281.331326
20
-78.5
40
1
50
270
51
0
0
ARC
8
0
6
CONTINUOUS
10
281.331326
20
-47.5
40
1
50
0
51
90
0
ARC
8
0
6
CONTINUOUS
10
265.551326
20
-47.5
40
1
50
90
51
180
0
ARC
8
0
6
CONTINUOUS
10
265.551326
20
-78.5
40
1
50
180
51
270
0
LINE
8
0
6
CONTINUOUS
10
215.23
20
-53.15
11
223.97
21
-53.15
0
LINE
8
0
6
CONTINUOUS
10
224.07
20
-53.05
11
224.07
21
-45.9
0
LINE
8
0
6
CONTINUOUS
10
223.97
20
-45.8
11
215.23
21
-45.8
0
LINE
8
0
6
CONTINUOUS
10
215.13
20
-45.9
11
215.13
21
-53.05
0
LINE
8
0
6
CONTINUOUS
10
269.071326
20
-53.15
11
277.811326
21
-53.15
0
LINE
8
0
6
CONTINUOUS
10
277.911326
20
-53.05
11
277.911326
21
-45.9
0
LINE
8
0
6
CONTINUOUS
10
277.811326
20
-45.8
11
269.071326
21
-45.8
0
LINE
8
0
6
CONTINUOUS
10
268.971326
20
-45.9
11
268.971326
21
-53.05
0
ARC
8
0
6
CONTINUOUS
10
223.97
20
-53.05
40
0.1
50
270
51
0
0
ARC
8
0
6
CONTINUOUS
10
223.97
20
-45.9
40
0.1
50
0
51
90
0
ARC
8
0
6
CONTINUOUS
10
215.23
20
-45.9
40
0.1
50
90
51
180
0
ARC
8
0
6
CONTINUOUS
10
215.23
20
-53.05
40
0.1
50
180
51
270
0
ARC
8
0
6
CONTINUOUS
10
277.811326
20
-53.05
40
0.1
50
270
51
0
0
ARC
8
0
6
CONTINUOUS
10
277.811326
20
-45.9
40
0.1
50
0
51
90
0
ARC
8
0
6
CONTINUOUS
10
269.071326
20
-45.9
40
0.1
50
90
51
180
0
ARC
8
0
6
CONTINUOUS
10
269.071326
20
-53.05
40
0.1
50
180
51
270
0
LINE
8
0
6
CONTINUOUS
10
213.1
20
-84.5
11
226.1
21
-84.5
0
LINE
8
0
6
CONTINUOUS
10
226.6
20
-84
11
226.6
21
-49
0
LINE
8
0
6
CONTINUOUS
10
226.1
20
-48.5
11
213.1
21
-48.5
0
LINE
8
0
6
CONTINUOUS
10
212.6
20
-49
11
212.6
21
-84
0
LINE
8
0
6
CONTINUOUS
10
266.941326
20
-84.5
11
279.941326
21
-84.5
0
LINE
8
0
6
CONTINUOUS
10
280.441326
20
-84
11
280.441326
21
-49
0
LINE
8
0
6
CONTINUOUS
10
279.941326
20
-48.5
11
266.941326
21
-48.5
0
LINE
8
0
6
CONTINUOUS
10
266.441326
20
-49
11
266.441326
21
-84
0
ARC
8
0
6
CONTINUOUS
10
226.1
20
-84
40
0.5
50
270
51
0
0
ARC
8
0
6
CONTINUOUS
10
226.1
20
-49
40
0.5
50
0
51
90
0
ARC
8
0
6
CONTINUOUS
10
213.1
20
-49
40
0.5
50
90
51
180
0
ARC
8
0
6
CONTINUOUS
10
213.1
20
-84
40
0.5
50
180
51
270
0
ARC
8
0
6
CONTINUOUS
10
279.941326
20
-84
40
0.5
50
270
51
0
0
ARC
8
0
6
CONTINUOUS
10
279.941326
20
-49
40
0.5
50
0
51
90
0
ARC
8
0
6
CONTINUOUS
10
266.941326
20
-49
40
0.5
50
90
51
180
0
ARC
8
0
6
CONTINUOUS
10
266.941326
20
-84
40
0.5
50
180
51
270
0
LINE
8
0
6
CONTINUOUS
10
213.29
20
-84.53
11
225.91
21
-84.53
0
LINE
8
0
6
CONTINUOUS
10
226.01
20
-84.43
11
226.01
21
-81.97
0
LINE
8
0
6
CONTINUOUS
10
225.91
20
-81.87
11
213.29
21
-81.87
0
LINE
8
0
6
CONTINUOUS
10
213.19
20
-81.97
11
213.19
21
-84.43
0
LINE
8
0
6
CONTINUOUS
10
267.131326
20
-84.53
11
279.751326
21
-84.53
0
LINE
8
0
6
CONTINUOUS
10
279.851326
20
-84.43
11
279.851326
21
-81.97
0
LINE
8
0
6
CONTINUOUS
10
279.751326
20
-81.87
11
267.131326
21
-81.87
0
LINE
8
0
6
CONTINUOUS
10
267.031326
20
-81.97
11
267.031326
21
-84.43
0
ARC
8
0
6
CONTINUOUS
10
225.91
20
-84.43
40
0.1
50
270
51
0
0
ARC
8
0
6
CONTINUOUS
10
225.91
20
-81.97
40
0.1
50
0
51
90
0
ARC
8
0
6
CONTINUOUS
10
213.29
20
-81.97
40
0.1
50
90
51
180
0
ARC
8
0
6
CONTINUOUS
10
213.29
20
-84.43
40
0.1
50
180
51
270
0
ARC
8
0
6
CONTINUOUS
10
279.751326
20
-84.43
40
0.1
50
270
51
0
0
ARC
8
0
6
CONTINUOUS
10
279.751326
20
-81.97
40
0.1
50
0
51
90
0
ARC
8
0
6
CONTINUOUS
10
267.131326
20
-81.97
40
0.1
50
90
51
180
0
ARC
8
0
6
CONTINUOUS
10
267.131326
20
-84.43
40
0.1
50
180
51
270
0
LINE
8
0
6
CONTINUOUS
10
214.2
20
-79.55
11
225
21
-79.55
0
LINE
8
0
6
CONTINUOUS
10
225
20
-79.55
11
225
21
-54.95
0
LINE
8
0
6
CONTINUOUS
10
225
20
-54.95
11
214.2
21
-54.95
0
LINE
8
0
6
CONTINUOUS
10
214.2
20
-54.95
11
214.2
21
-79.55
0
LINE
8
0
6
CONTINUOUS
10
268.041326
20
-79.55
11
278.841326
21
-79.55
0
LINE
8
0
6
CONTINUOUS
10
278.841326
20
-79.55
11
278.841326
21
-54.95
0
LINE
8
0
6
CONTINUOUS
10
278.841326
20
-54.95
11
268.041326
21
-54.95
0
LINE
8
0
6
CONTINUOUS
10
268.041326
20
-54.95
11
268.041326
21
-79.55
0
CIRCLE
8
0
6
CONTINUOUS
10
110
20
-71.5
40
2.15
0
CIRCLE
8
0
6
CONTINUOUS
10
110
20
-90.5
40
2.15
0
CIRCLE
8
0
6
CONTINUOUS
10
190
20
-63.5
40
2.15
0
CIRCLE
8
0
6
CONTINUOUS
10
210.7603315
20
-104.7319101
40
2.15
0
CIRCLE
8
0
6
CONTINUOUS
10
383.041326
20
-71.5
40
2.15
0
CIRCLE
8
0
6
CONTINUOUS
10
383.041326
20
-90.5
40
2.15
0
CIRCLE
8
0
6
CONTINUOUS
10
303.041326
20
-63.5
40
2.15
0
CIRCLE
8
0
6
CONTINUOUS
10
282.2809945
20
-104.7319101
40
2.15
0
LINE
8
0
6
CONTINUOUS
10
225.5
20
-96.75
11
229
21
-96.75
0
LINE
8
0
6
CONTINUOUS
10
229
20
-96.75
11
229
21
-89.25
0
LINE
8
0
6
CONTINUOUS
10
229
20
-89.25
11
225.5
21
-89.25
0
LINE
8
0
6
CONTINUOUS
10
225.5
20
-89.25
11
225.5
21
-96.75
0
LINE
8
0
6
CONTINUOUS
10
267.541326
20
-89.25
11
264.041326
21
-89.25
0
LINE
8
0
6
CONTINUOUS
10
264.041326
20
-89.25
11
264.041326
21
-96.75
0
LINE
8
0
6
CONTINUOUS
10
264.041326
20
-96.75
11
267.541326
21
-96.75
0
LINE
8
0
6
CONTINUOUS
10
267.541326
20
-96.75
11
267.541326
21
-89.25
0
LINE
8
0
6
CONTINUOUS
10
228.4989965
20
-104.0847512
11
229.102263
21
-104.8568971
0
LINE
8
0
6
CONTINUOUS
10
231.8947346
20
-105.8732736
11
234.1998601
21
-104.0723122
0
LINE
8
0
6
CONTINUOUS
10
234.1998601
20
-104.0723122
11
232.0450449
21
-101.3142746
0
LINE
8
0
6
CONTINUOUS
10
232.0450449
20
-101.3142746
11
228.4989965
21
-104.0847512
0
LINE
8
0
6
CONTINUOUS
10
263.939063
20
-104.8568971
11
264.5423295
21
-104.0847512
0
LINE
8
0
6
CONTINUOUS
10
264.5423295
20
-104.0847512
11
260.9962811
21
-101.3142746
0
LINE
8
0
6
CONTINUOUS
10
260.9962811
20
-101.3142746
11
258.8414659
21
-104.0723122
0
LINE
8
0
6
CONTINUOUS
10
258.8414659
20
-104.0723122
11
261.1465914
21
-105.8732736
0
LINE
8
0
6
CONTINUOUS
10
89.25
20
-107.5
11
89.25
21
-54.5
0
LINE
8
0
6
CONTINUOUS
10
91.25
20
-52.5
11
127.25
21
-52.5
0
LINE
8
0
6
CONTINUOUS
10
129.25
20
-50.5
11
129.25
21
-44.5
0
LINE
8
0
6
CONTINUOUS
10
131.25
20
-42.5
11
148
21
-42.5
0
LINE
8
0
6
CONTINUOUS
10
150
20
-40.5
11
150
21
-39.5
0
LINE
8
0
6
CONTINUOUS
10
152
20
-37.5
11
168.75
21
-37.5
0
LINE
8
0
6
CONTINUOUS
10
170.75
20
-39.5
11
170.75
21
-41.5
0
LINE
8
0
6
CONTINUOUS
10
172.75
20
-43.5
11
190
21
-43.5
0
LINE
8
0
6
CONTINUOUS
10
190
20
-43.5
11
190
21
-45.5
0
LINE
8
0
6
CONTINUOUS
10
190
20
-45.5
11
227.5
21
-45.5
0
LINE
8
0
6
CONTINUOUS
10
229.5
20
-47.5
11
229.5
21
-97.0674401
0
LINE
8
0
6
CONTINUOUS
10
229.9172858
20
-98.2901485
11
234.9046393
21
-104.7459437
0
LINE
8
0
6
CONTINUOUS
10
235.2013103
20
-106.6526923
11
225.9943676
21
-131.9485596
0
LINE
8
0
6
CONTINUOUS
10
223.450625
20
-133.1509524
11
207.9339399
21
-127.6863407
0
LINE
8
0
6
CONTINUOUS
10
207.8015972
20
-127.6448316
11
188.721761
21
-122.3797617
0
LINE
8
0
6
CONTINUOUS
10
188.2747702
20
-122.3095119
11
171.1649762
21
-121.581483
0
LINE
8
0
6
CONTINUOUS
10
169.25
20
-119.5832911
11
169.25
21
-96.5
0
LINE
8
0
6
CONTINUOUS
10
167.25
20
-94.5
11
152
21
-94.5
0
LINE
8
0
6
CONTINUOUS
10
150
20
-96.5
11
150
21
-97.5
0
LINE
8
0
6
CONTINUOUS
10
148
20
-99.5
11
132
21
-99.5
0
LINE
8
0
6
CONTINUOUS
10
130
20
-101.5
11
130
21
-107.5
0
LINE
8
0
6
CONTINUOUS
10
128
20
-109.5
11
91.25
21
-109.5
0
ARC
8
0
6
CONTINUOUS
10
91.25
20
-54.5
40
2
50
90
51
180
0
ARC
8
0
6
CONTINUOUS
10
127.25
20
-50.5
40
2
50
270
51
0
0
ARC
8
0
6
CONTINUOUS
10
131.25
20
-44.5
40
2
50
90
51
180
0
ARC
8
0
6
CONTINUOUS
10
148
20
-40.5
40
2
50
270
51
0
0
ARC
8
0
6
CONTINUOUS
10
152
20
-39.5
40
2
50
90
51
180
0
ARC
8
0
6
CONTINUOUS
10
168.75
20
-39.5
40
2
50
0
51
90
0
ARC
8
0
6
CONTINUOUS
10
172.75
20
-41.5
40
2
50
180
51
270
0
ARC
8
0
6
CONTINUOUS
10
227.5
20
-47.5
40
2
50
0
51
90
0
ARC
8
0
6
CONTINUOUS
10
231.5
20
-97.0674401
40
2
50
180
51
217.6874846
0
ARC
8
0
6
CONTINUOUS
10
233.3219251
20
-105.9686521
40
2
50
340.0000019
51
37.6874846
0
ARC
8
0
6
CONTINUOUS
10
224.1149824
20
-131.2645194
40
2
50
250.5989334
51
340.0000019
0
ARC
8
0
6
CONTINUOUS
10
207.2695826
20
-129.5727737
40
2
50
70.5989334
51
74.5731845
0
ARC
8
0
6
CONTINUOUS
10
188.1897464
20
-124.3077038
40
2
50
74.5731845
51
87.5635134
0
ARC
8
0
6
CONTINUOUS
10
171.25
20
-119.5832911
40
2
50
180
51
267.5635134
0
ARC
8
0
6
CONTINUOUS
10
167.25
20
-96.5
40
2
50
0
51
90
0
ARC
8
0
6
CONTINUOUS
10
152
20
-96.5
40
2
50
90
51
180
0
ARC
8
0
6
CONTINUOUS
10
148
20
-97.5
40
2
50
270
51
0
0
ARC
8
0
6
CONTINUOUS
10
132
20
-101.5
40
2
50
90
51
180
0
ARC
8
0
6
CONTINUOUS
10
128
20
-107.5
40
2
50
270
51
0
0
ARC
8
0
6
CONTINUOUS
10
91.25
20
-107.5
40
2
50
180
51
270
0
LINE
8
0
6
CONTINUOUS
10
403.791326
20
-107.5
11
403.791326
21
-54.5
0
LINE
8
0
6
CONTINUOUS
10
401.791326
20
-52.5
11
365.791326
21
-52.5
0
LINE
8
0
6
CONTINUOUS
10
363.791326
20
-50.5
11
363.791326
21
-44.5
0
LINE
8
0
6
CONTINUOUS
10
361.791326
20
-42.5
11
345.041326
21
-42.5
0
LINE
8
0
6
CONTINUOUS
10
343.041326
20
-40.5
11
343.041326
21
-39.5
0
LINE
8
0
6
CONTINUOUS
10
341.041326
20
-37.5
11
324.291326
21
-37.5
0
LINE
8
0
6
CONTINUOUS
10
322.291326
20
-39.5
11
322.291326
21
-41.5
0
LINE
8
0
6
CONTINUOUS
10
320.291326
20
-43.5
11
303.041326
21
-43.5
0
LINE
8
0
6
CONTINUOUS
10
303.041326
20
-43.5
11
303.041326
21
-45.5
0
LINE
8
0
6
CONTINUOUS
10
303.041326
20
-45.5
11
265.541326
21
-45.5
0
LINE
8
0
6
CONTINUOUS
10
263.541326
20
-47.5
11
263.541326
21
-97.0674401
0
LINE
8
0
6
CONTINUOUS
10
263.1240402
20
-98.2901485
11
258.1366867
21
-104.7459437
0
LINE
8
0
6
CONTINUOUS
10
257.8400157
20
-106.6526923
11
267.0469584
21
-131.9485596
0
LINE
8
0
6
CONTINUOUS
10
269.590701
20
-133.1509524
11
285.1073861
21
-127.6863407
0
LINE
8
0
6
CONTINUOUS
10
285.2397288
20
-127.6448316
11
304.319565
21
-122.3797617
0
LINE
8
0
6
CONTINUOUS
10
304.7665558
20
-122.3095119
11
321.8763498
21
-121.581483
0
LINE
8
0
6
CONTINUOUS
10
323.791326
20
-119.5832911
11
323.791326
21
-96.5
0
LINE
8
0
6
CONTINUOUS
10
325.791326
20
-94.5
11
341.041326
21
-94.5
0
LINE
8
0
6
CONTINUOUS
10
343.041326
20
-96.5
11
343.041326
21
-97.5
0
LINE
8
0
6
CONTINUOUS
10
345.041326
20
-99.5
11
361.041326
21
-99.5
0
LINE
8
0
6
CONTINUOUS
10
363.041326
20
-101.5
11
363.041326
21
-107.5
0
LINE
8
0
6
CONTINUOUS
10
365.041326
20
-109.5
11
401.791326
21
-109.5
0
ARC
8
0
6
CONTINUOUS
10
401.791326
20
-54.5
40
2
50
0
51
90
0
ARC
8
0
6
CONTINUOUS
10
365.791326
20
-50.5
40
2
50
180
51
270
0
ARC
8
0
6
CONTINUOUS
10
361.791326
20
-44.5
40
2
50
0
51
90
0
ARC
8
0
6
CONTINUOUS
10
345.041326
20
-40.5
40
2
50
180
51
270
0
ARC
8
0
6
CONTINUOUS
10
341.041326
20
-39.5
40
2
50
0
51
90
0
ARC
8
0
6
CONTINUOUS
10
324.291326
20
-39.5
40
2
50
90
51
180
0
ARC
8
0
6
CONTINUOUS
10
320.291326
20
-41.5
40
2
50
270
51
0
0
ARC
8
0
6
CONTINUOUS
10
265.541326
20
-47.5
40
2
50
90
51
180
0
ARC
8
0
6
CONTINUOUS
10
261.541326
20
-97.0674401
40
2
50
322.3125154
51
0
0
ARC
8
0
6
CONTINUOUS
10
259.7194009
20
-105.9686521
40
2
50
142.3125154
51
199.9999981
0
ARC
8
0
6
CONTINUOUS
10
268.9263436
20
-131.2645194
40
2
50
199.9999981
51
289.4010666
0
ARC
8
0
6
CONTINUOUS
10
285.7717434
20
-129.5727737
40
2
50
105.4268155
51
109.4010666
0
ARC
8
0
6
CONTINUOUS
10
304.8515796
20
-124.3077038
40
2
50
92.4364866
51
105.4268155
0
ARC
8
0
6
CONTINUOUS
10
321.791326
20
-119.5832911
40
2
50
272.4364866
51
0
0
ARC
8
0
6
CONTINUOUS
10
325.791326
20
-96.5
40
2
50
90
51
180
0
ARC
8
0
6
CONTINUOUS
10
341.041326
20
-96.5
40
2
50
0
51
90
0
ARC
8
0
6
CONTINUOUS
10
345.041326
20
-97.5
40
2
50
180
51
270
0
ARC
8
0
6
CONTINUOUS
10
361.041326
20
-101.5
40
2
50
0
51
90
0
ARC
8
0
6
CONTINUOUS
10
365.041326
20
-107.5
40
2
50
180
51
270
0
ARC
8
0
6
CONTINUOUS
10
401.791326
20
-107.5
40
2
50
270
51
0
0
ENDSEC
0
EOF