0
SECTION
2
HEADER
9
$INSUNITS
70
4
0
ENDSEC
0
SECTION
2
TABLES
0
TABLE
2
LTYPE
0
LTYPE
72
65
70
0
2
CONTINUOUS
3
______
73
0
40
0
0
LTYPE
72
65
70
0
2
DASHED
3
_ _ _ 
73
2
40
7.5
49
5
49
-2.5
0
LTYPE
72
65
70
0
2
DOTTED
3
. . . 
73
2
40
1.5
49
0.5
49
-1
0
ENDTAB
0
TABLE
2
LAYER
0
ENDTAB
0
ENDSEC
0
SECTION
2
ENTITIES
0
LINE
8
0
6
CONTINUOUS
10
403.791326
20
-107.5
11
403.791326
21
-54.5
0
LINE
8
0
6
CONTINUOUS
10
401.791326
20
-52.5
11
365.791326
21
-52.5
0
LINE
8
0
6
CONTINUOUS
10
363.791326
20
-50.5
11
363.791326
21
-44.5
0
LINE
8
0
6
CONTINUOUS
10
361.791326
20
-42.5
11
345.041326
21
-42.5
0
LINE
8
0
6
CONTINUOUS
10
343.041326
20
-40.5
11
343.041326
21
-39.5
0
LINE
8
0
6
CONTINUOUS
10
341.041326
20
-37.5
11
324.291326
21
-37.5
0
LINE
8
0
6
CONTINUOUS
10
322.291326
20
-39.5
11
322.291326
21
-41.5
0
LINE
8
0
6
CONTINUOUS
10
320.291326
20
-43.5
11
303.041326
21
-43.5
0
LINE
8
0
6
CONTINUOUS
10
303.041326
20
-43.5
11
303.041326
21
-45.5
0
LINE
8
0
6
CONTINUOUS
10
303.041326
20
-45.5
11
265.541326
21
-45.5
0
LINE
8
0
6
CONTINUOUS
10
263.541326
20
-47.5
11
263.541326
21
-97.0674401
0
LINE
8
0
6
CONTINUOUS
10
263.1240402
20
-98.2901485
11
258.1366867
21
-104.7459437
0
LINE
8
0
6
CONTINUOUS
10
257.8400157
20
-106.6526923
11
267.0469584
21
-131.9485596
0
LINE
8
0
6
CONTINUOUS
10
269.590701
20
-133.1509524
11
285.1073861
21
-127.6863407
0
LINE
8
0
6
CONTINUOUS
10
285.2397288
20
-127.6448316
11
304.319565
21
-122.3797617
0
LINE
8
0
6
CONTINUOUS
10
304.7665558
20
-122.3095119
11
321.8763498
21
-121.581483
0
LINE
8
0
6
CONTINUOUS
10
323.791326
20
-119.5832911
11
323.791326
21
-96.5
0
LINE
8
0
6
CONTINUOUS
10
325.791326
20
-94.5
11
341.041326
21
-94.5
0
LINE
8
0
6
CONTINUOUS
10
343.041326
20
-96.5
11
343.041326
21
-97.5
0
LINE
8
0
6
CONTINUOUS
10
345.041326
20
-99.5
11
361.041326
21
-99.5
0
LINE
8
0
6
CONTINUOUS
10
363.041326
20
-101.5
11
363.041326
21
-107.5
0
LINE
8
0
6
CONTINUOUS
10
365.041326
20
-109.5
11
401.791326
21
-109.5
0
ARC
8
0
6
CONTINUOUS
10
401.791326
20
-54.5
40
2
50
0
51
90
0
ARC
8
0
6
CONTINUOUS
10
365.791326
20
-50.5
40
2
50
180
51
270
0
ARC
8
0
6
CONTINUOUS
10
361.791326
20
-44.5
40
2
50
0
51
90
0
ARC
8
0
6
CONTINUOUS
10
345.041326
20
-40.5
40
2
50
180
51
270
0
ARC
8
0
6
CONTINUOUS
10
341.041326
20
-39.5
40
2
50
0
51
90
0
ARC
8
0
6
CONTINUOUS
10
324.291326
20
-39.5
40
2
50
90
51
180
0
ARC
8
0
6
CONTINUOUS
10
320.291326
20
-41.5
40
2
50
270
51
0
0
ARC
8
0
6
CONTINUOUS
10
265.541326
20
-47.5
40
2
50
90
51
180
0
ARC
8
0
6
CONTINUOUS
10
261.541326
20
-97.0674401
40
2
50
322.3125154
51
0
0
ARC
8
0
6
CONTINUOUS
10
259.7194009
20
-105.9686521
40
2
50
142.3125154
51
199.9999981
0
ARC
8
0
6
CONTINUOUS
10
268.9263436
20
-131.2645194
40
2
50
199.9999981
51
289.4010666
0
ARC
8
0
6
CONTINUOUS
10
285.7717434
20
-129.5727737
40
2
50
105.4268155
51
109.4010666
0
ARC
8
0
6
CONTINUOUS
10
304.8515796
20
-124.3077038
40
2
50
92.4364866
51
105.4268155
0
ARC
8
0
6
CONTINUOUS
10
321.791326
20
-119.5832911
40
2
50
272.4364866
51
0
0
ARC
8
0
6
CONTINUOUS
10
325.791326
20
-96.5
40
2
50
90
51
180
0
ARC
8
0
6
CONTINUOUS
10
341.041326
20
-96.5
40
2
50
0
51
90
0
ARC
8
0
6
CONTINUOUS
10
345.041326
20
-97.5
40
2
50
180
51
270
0
ARC
8
0
6
CONTINUOUS
10
361.041326
20
-101.5
40
2
50
0
51
90
0
ARC
8
0
6
CONTINUOUS
10
365.041326
20
-107.5
40
2
50
180
51
270
0
ARC
8
0
6
CONTINUOUS
10
401.791326
20
-107.5
40
2
50
270
51
0
0
ENDSEC
0
EOF